<svg width="120" height="120" viewBox="0 0 120 120" fill="none" xmlns="http://www.w3.org/2000/svg">
<path d="M108.445 51.4578C113.162 78.213 95.2974 103.727 68.5422 108.445C41.787 113.162 16.2732 95.2974 11.5554 68.5422C6.8376 41.787 24.7026 16.2732 51.4578 11.5554C78.213 6.8376 103.727 24.7026 108.445 51.4578Z" fill="url(#paint0_linear_4538_3708)"/>
<path d="M52.7998 82.7998H67.1998C67.1998 86.776 63.976 89.9998 59.9998 89.9998C56.0236 89.9998 52.7998 86.776 52.7998 82.7998Z" fill="url(#paint1_linear_4538_3708)"/>
<path d="M52.7998 82.7998H67.1998C67.1998 86.776 63.976 89.9998 59.9998 89.9998C56.0236 89.9998 52.7998 86.776 52.7998 82.7998Z" fill="#414D58" fill-opacity="0.4"/>
<path d="M60.0002 25.2002C58.568 25.2002 57.1945 25.7691 56.1818 26.7818C55.1691 27.7945 54.6002 29.168 54.6002 30.6002V33.7226C45.9542 36.0896 39.6002 44.003 39.6002 53.4002V70.0118C39.6002 70.6421 39.4761 71.2663 39.2349 71.8487C38.9937 72.4311 38.6401 72.9603 38.1944 73.406L33.146 78.4544C32.7903 78.8105 32.5482 79.2641 32.4501 79.7578C32.3521 80.2515 32.4026 80.7632 32.5952 81.2282C32.7878 81.6932 33.1139 82.0908 33.5323 82.3705C33.9507 82.6503 34.4427 82.7998 34.946 82.8002H85.0544C85.558 82.8004 86.0503 82.6512 86.4691 82.3716C86.8879 82.0919 87.2143 81.6942 87.407 81.229C87.5997 80.7637 87.6501 80.2517 87.5517 79.7578C87.4534 79.2639 87.2107 78.8103 86.8544 78.4544L81.806 73.406C81.3603 72.9603 81.0067 72.4311 80.7655 71.8487C80.5243 71.2663 80.4002 70.6421 80.4002 70.0118V53.4002C80.4002 44.003 74.0462 36.0902 65.4002 33.7226V30.6002C65.4002 29.168 64.8313 27.7945 63.8186 26.7818C62.8059 25.7691 61.4324 25.2002 60.0002 25.2002Z" fill="url(#paint2_linear_4538_3708)" fill-opacity="0.9"/>
<path d="M59.9996 25.2002C58.5674 25.2002 57.1939 25.7691 56.1812 26.7818C55.1685 27.7945 54.5996 29.168 54.5996 30.6002V33.7226C56.3593 33.2417 58.1754 32.9988 59.9996 33.0002C61.8692 33.0002 63.6794 33.2522 65.3996 33.7226V30.6002C65.3996 29.168 64.8307 27.7945 63.818 26.7818C62.8053 25.7691 61.4318 25.2002 59.9996 25.2002Z" fill="url(#paint3_linear_4538_3708)" fill-opacity="0.5"/>
<path d="M66.5996 45.3C66.5996 36.8502 73.4498 30 81.8996 30C90.3494 30 97.1996 36.8502 97.1996 45.3C97.1996 53.7498 90.3494 60.6 81.8996 60.6C73.4498 60.6 66.5996 53.7498 66.5996 45.3Z" fill="white"/>
<path fill-rule="evenodd" clip-rule="evenodd" d="M66.5996 45.3C66.5996 36.8502 73.4498 30 81.8996 30C90.3494 30 97.1996 36.8502 97.1996 45.3C97.1996 53.7498 90.3494 60.6 81.8996 60.6C73.4498 60.6 66.5996 53.7498 66.5996 45.3ZM91.1996 39H84.548C84.0134 39 83.7458 39.6462 84.1238 40.0242L86.3888 42.2892L83.5388 45.1392C83.2842 45.3939 82.9819 45.596 82.6491 45.7338C82.3164 45.8717 81.9598 45.9426 81.5996 45.9426C81.2395 45.9426 80.8828 45.8717 80.5501 45.7338C80.2174 45.596 79.915 45.3939 79.6604 45.1392C78.5834 44.0623 77.1227 43.4573 75.5996 43.4573C74.0765 43.4573 72.6158 44.0623 71.5388 45.1392L70.3388 46.3392C70.0575 46.6205 69.8994 47.0021 69.8994 47.4C69.8994 47.7979 70.0575 48.1795 70.3388 48.4608C70.6202 48.7421 71.0017 48.9002 71.3996 48.9002C71.7975 48.9002 72.1791 48.7421 72.4604 48.4608L73.6604 47.2608C73.915 47.0061 74.2174 46.804 74.5501 46.6662C74.8828 46.5283 75.2395 46.4574 75.5996 46.4574C75.9598 46.4574 76.3164 46.5283 76.6491 46.6662C76.9819 46.804 77.2842 47.0061 77.5388 47.2608C78.6158 48.3377 80.0765 48.9427 81.5996 48.9427C83.1227 48.9427 84.5834 48.3377 85.6604 47.2608L88.5104 44.4108L90.7754 46.6758C91.1534 47.0538 91.7996 46.7862 91.7996 46.2516V39.6C91.7996 39.4409 91.7364 39.2883 91.6239 39.1757C91.5114 39.0632 91.3587 39 91.1996 39Z" fill="url(#paint4_linear_4538_3708)"/>
<defs>
<linearGradient id="paint0_linear_4538_3708" x1="42.5028" y1="2.2962" x2="80.2998" y2="121.369" gradientUnits="userSpaceOnUse">
<stop stop-color="#A7B3BE" stop-opacity="0.05"/>
<stop offset="1" stop-color="#A7B3BE" stop-opacity="0.3"/>
</linearGradient>
<linearGradient id="paint1_linear_4538_3708" x1="59.3692" y1="90.571" x2="60.4468" y2="79.9426" gradientUnits="userSpaceOnUse">
<stop stop-color="#A7B3BE" stop-opacity="0.4"/>
<stop offset="1" stop-color="#A7B3BE" stop-opacity="0.3"/>
</linearGradient>
<linearGradient id="paint2_linear_4538_3708" x1="32.1692" y1="38.2238" x2="69.4598" y2="90.9662" gradientUnits="userSpaceOnUse">
<stop stop-color="#F0F2F5"/>
<stop offset="1" stop-color="#AFBDCF" stop-opacity="0.85"/>
</linearGradient>
<linearGradient id="paint3_linear_4538_3708" x1="50.2574" y1="21.1418" x2="70.0208" y2="23.9624" gradientUnits="userSpaceOnUse">
<stop stop-color="#0747A6"/>
<stop offset="1" stop-color="#97A0AF"/>
</linearGradient>
<linearGradient id="paint4_linear_4538_3708" x1="66.5996" y1="26.7" x2="103.2" y2="60.6" gradientUnits="userSpaceOnUse">
<stop stop-color="#4C9AFF"/>
<stop offset="1" stop-color="#0052CC"/>
</linearGradient>
</defs>
</svg>
