<svg width="24" height="24" viewBox="0 0 24 24" fill="none" xmlns="http://www.w3.org/2000/svg">
<path d="M8.99902 7.20613C9.18065 7.2111 9.38212 7.22102 9.57368 7.64581C9.70072 7.92867 9.9141 8.44974 10.0888 8.87453C10.2248 9.20503 10.3359 9.47697 10.3637 9.53255C10.4272 9.65959 10.4669 9.80549 10.3836 9.97719L10.3558 10.0348C10.2993 10.1683 10.2223 10.2922 10.1275 10.402L9.98556 10.5707C9.9012 10.6739 9.81684 10.7752 9.74538 10.8466C9.61735 10.9737 9.48534 11.1106 9.63223 11.3647C9.77912 11.6188 10.2952 12.4545 11.0565 13.1284C11.6132 13.6305 12.2521 14.0334 12.9452 14.3194C13.0147 14.3492 13.0709 14.3743 13.1139 14.3948C13.369 14.5219 13.5208 14.502 13.6677 14.3313C13.8156 14.1596 14.3059 13.5879 14.4786 13.3338C14.6454 13.0797 14.8161 13.1194 15.0523 13.2068C15.2885 13.2951 16.545 13.9115 16.8001 14.0375L16.942 14.107C17.1197 14.1913 17.2397 14.2499 17.2914 14.3353C17.3549 14.4434 17.3549 14.9506 17.1445 15.5481C16.9281 16.1436 15.887 16.7153 15.4155 16.7589L15.2815 16.7748C14.8488 16.8264 14.301 16.8939 12.3477 16.1247C9.93991 15.1779 8.35092 12.8296 8.03034 12.3542L7.97774 12.2788L7.97178 12.2709C7.82588 12.0753 6.93164 10.8794 6.93164 9.64471C6.93164 8.46363 7.51424 7.84828 7.77924 7.5684L7.82588 7.51877C7.91166 7.42188 8.01646 7.34367 8.13376 7.28903C8.25107 7.23439 8.37837 7.20449 8.50773 7.20117C8.67943 7.20117 8.85213 7.20117 8.99902 7.20613Z" fill="#00B88A"/>
<path fill-rule="evenodd" clip-rule="evenodd" d="M2.3473 21.2613C2.32859 21.3285 2.32797 21.3996 2.34549 21.4672C2.36301 21.5348 2.39805 21.5966 2.44708 21.6463C2.49611 21.696 2.55738 21.7319 2.62473 21.7504C2.69207 21.7689 2.7631 21.7693 2.83064 21.7516L7.40309 20.5566C8.85381 21.3424 10.4775 21.7541 12.1274 21.7545H12.1314C17.5762 21.7545 22.0147 17.3419 22.0147 11.9169C22.018 10.6232 21.764 9.34177 21.2675 8.14717C20.771 6.95256 20.0419 5.86863 19.1225 4.95845C18.2048 4.0408 17.1146 3.31366 15.9148 2.81885C14.715 2.32404 13.4292 2.07132 12.1314 2.07524C6.68651 2.07524 2.24805 6.4879 2.24805 11.9119C2.24805 13.6379 2.70261 15.3331 3.56807 16.8288L2.3473 21.2613ZM5.00422 17.2238C5.0567 17.0333 5.07074 16.8343 5.04552 16.6383C5.0203 16.4424 4.95633 16.2534 4.85733 16.0824C4.12401 14.8148 3.73754 13.3764 3.7368 11.9119C3.7368 7.31663 7.50135 3.56399 12.1314 3.56399C14.3843 3.56399 16.4865 4.43441 18.0725 6.01348C18.8528 6.78535 19.4717 7.70488 19.8929 8.71844C20.3141 9.73199 20.5293 10.8193 20.5259 11.9169C20.5259 16.5121 16.7614 20.2658 12.1314 20.2658H12.1264C10.7247 20.2651 9.34525 19.9151 8.11273 19.2475C7.78053 19.0676 7.39238 19.0208 7.02693 19.1165L4.28565 19.8321L5.00422 17.2238Z" fill="#00B88A"/>
</svg>
