<svg width="370" height="370" viewBox="0 0 370 370" fill="none" xmlns="http://www.w3.org/2000/svg">
<path fill-rule="evenodd" clip-rule="evenodd" d="M202.312 62.4042C202.882 62.1195 203.51 61.9713 204.148 61.9713C204.785 61.9713 205.413 62.1195 205.983 62.4042L328.257 123.539C329.294 124.058 330.166 124.857 330.775 125.844C331.383 126.832 331.704 127.97 331.701 129.13V224.031C331.702 224.69 331.518 225.336 331.172 225.896C330.826 226.456 330.33 226.908 329.74 227.202L327.232 228.46L201.339 164.587L200.662 63.2292L202.312 62.4042Z" fill="black" stroke="black" stroke-width="2" stroke-linecap="round" stroke-linejoin="round"/>
<path fill-rule="evenodd" clip-rule="evenodd" d="M198.919 65.8341C198.919 65.3549 199.042 64.8837 199.276 64.4653C199.509 64.0469 199.846 63.6952 200.254 63.4438C200.662 63.1923 201.128 63.0494 201.606 63.0287C202.085 63.008 202.561 63.1102 202.989 63.3255L325.829 124.746C326.87 125.262 327.746 126.059 328.359 127.045C328.972 128.032 329.298 129.171 329.3 130.333V225.245C329.3 225.849 329.146 226.444 328.852 226.972C328.557 227.5 328.133 227.944 327.619 228.262C327.104 228.58 326.517 228.761 325.913 228.788C325.309 228.814 324.709 228.687 324.168 228.416L198.919 165.801V65.8341Z" fill="url(#paint0_linear_3134_105)" stroke="black" stroke-width="2" stroke-linecap="round" stroke-linejoin="round"/>
<path fill-rule="evenodd" clip-rule="evenodd" d="M198.919 132.064L329.3 197.243V214.186L198.919 149.006V132.064Z" fill="white" stroke="black" stroke-width="2" stroke-linecap="round" stroke-linejoin="round"/>
<path fill-rule="evenodd" clip-rule="evenodd" d="M297.08 122.603C297.08 122.469 297.115 122.338 297.18 122.221C297.245 122.104 297.339 122.005 297.452 121.934C297.566 121.864 297.696 121.823 297.829 121.817C297.963 121.81 298.096 121.837 298.216 121.896L302.042 123.809C302.282 123.929 302.484 124.113 302.625 124.341C302.766 124.569 302.841 124.832 302.841 125.101V130.192C302.842 130.326 302.808 130.458 302.743 130.575C302.678 130.692 302.584 130.79 302.47 130.861C302.356 130.931 302.226 130.971 302.092 130.977C301.958 130.983 301.825 130.955 301.705 130.895L297.876 128.982C297.637 128.861 297.436 128.677 297.295 128.449C297.155 128.221 297.08 127.958 297.08 127.691V122.603Z" fill="white"/>
<path fill-rule="evenodd" clip-rule="evenodd" d="M305.05 126.17C305.05 126.079 305.074 125.99 305.118 125.911C305.163 125.831 305.228 125.765 305.306 125.719C305.382 125.67 305.469 125.642 305.559 125.638C305.649 125.633 305.739 125.652 305.82 125.693L320.723 133.144C320.963 133.265 321.164 133.45 321.305 133.679C321.445 133.908 321.519 134.171 321.519 134.439V139.834C321.52 139.936 321.495 140.036 321.447 140.125C321.398 140.215 321.327 140.29 321.241 140.344C321.154 140.398 321.056 140.429 320.954 140.433C320.852 140.438 320.751 140.416 320.661 140.371L305.861 132.971C305.621 132.85 305.419 132.665 305.278 132.436C305.137 132.207 305.062 131.944 305.061 131.676L305.05 126.17Z" fill="white"/>
<path fill-rule="evenodd" clip-rule="evenodd" d="M198.919 101.95C198.919 101.95 214.382 100.792 223.162 111.063C231.942 121.334 328.242 227.957 328.242 227.957C326.947 229.211 325.519 229.067 324.027 228.349L309.205 220.949L203.278 118.663L198.919 107.725V101.95Z" fill="black"/>
<path fill-rule="evenodd" clip-rule="evenodd" d="M208.132 102.442C208.131 102.136 208.208 101.836 208.356 101.569C208.505 101.301 208.719 101.077 208.979 100.916C209.239 100.756 209.536 100.665 209.841 100.652C210.147 100.639 210.45 100.705 210.722 100.843L225.915 108.436C226.417 108.687 226.839 109.074 227.134 109.551C227.429 110.029 227.586 110.579 227.587 111.141V122.389C227.587 122.694 227.509 122.994 227.361 123.26C227.212 123.527 226.998 123.751 226.738 123.911C226.479 124.071 226.182 124.163 225.878 124.176C225.573 124.189 225.27 124.124 224.997 123.987L209.827 116.391C209.326 116.14 208.904 115.754 208.61 115.277C208.315 114.8 208.159 114.251 208.158 113.69L208.132 102.442Z" fill="white" stroke="black" stroke-width="2" stroke-linecap="round" stroke-linejoin="round"/>
<path fill-rule="evenodd" clip-rule="evenodd" d="M213.716 107.94L221.26 111.714V117.771L213.701 113.993L213.716 107.94Z" fill="white" stroke="black" stroke-width="2" stroke-linecap="round" stroke-linejoin="round"/>
<path fill-rule="evenodd" clip-rule="evenodd" d="M148 193.88L61.9343 236.918C61.4577 237.158 61.057 237.524 60.7769 237.978C60.4969 238.432 60.3486 238.955 60.3486 239.488C60.3486 240.021 60.4969 240.544 60.7769 240.998C61.057 241.452 61.4577 241.819 61.9343 242.058L213.76 317.971C216.299 319.239 219.099 319.899 221.937 319.899C224.775 319.899 227.575 319.239 230.114 317.971L319.021 273.515C319.499 273.278 319.901 272.911 320.183 272.458C320.464 272.004 320.613 271.481 320.613 270.947C320.613 270.414 320.464 269.891 320.183 269.437C319.901 268.983 319.499 268.617 319.021 268.379L297.931 257.838L277.655 267.976L148 193.88Z" fill="black" stroke="black" stroke-width="2" stroke-linecap="round" stroke-linejoin="round"/>
<path d="M145.207 307.91C164.817 307.91 180.727 300.492 180.727 291.338C180.727 282.184 164.817 274.766 145.207 274.766C125.597 274.766 109.687 282.166 109.687 291.338C109.687 300.51 125.597 307.91 145.207 307.91Z" fill="black" stroke="black" stroke-width="2" stroke-linecap="round" stroke-linejoin="round"/>
<path d="M80.5268 291.504C103.837 291.504 122.755 282.229 122.755 270.784C122.755 259.34 103.848 250.064 80.5268 250.064C57.2057 250.064 38.2987 259.34 38.2987 270.784C38.2987 282.229 57.2057 291.504 80.5268 291.504Z" fill="black" stroke="black" stroke-width="2" stroke-linecap="round" stroke-linejoin="round"/>
<path fill-rule="evenodd" clip-rule="evenodd" d="M98.642 232.526C105.846 231.786 115.262 225.674 122.755 221.582L117.83 203.792L98.642 232.526Z" fill="black" stroke="black" stroke-width="2" stroke-linecap="round" stroke-linejoin="round"/>
<path d="M107.245 229.855L121.456 223.062" stroke="white" stroke-width="2" stroke-linecap="round" stroke-linejoin="round"/>
<path fill-rule="evenodd" clip-rule="evenodd" d="M122.148 148.696L128.734 152.44L205.047 114.289L197.598 110.567L122.148 148.696Z" fill="black" stroke="black" stroke-width="2" stroke-linecap="round" stroke-linejoin="round"/>
<path d="M247.415 274.222L318.455 238.702" stroke="black" stroke-width="2" stroke-linecap="round" stroke-linejoin="round"/>
<path fill-rule="evenodd" clip-rule="evenodd" d="M96.4553 150.882L174.666 111.777C174.666 111.777 202.612 97.1841 221.204 119.081C233.751 133.851 302.009 211.769 321.042 233.47C322.48 235.112 323.37 237.162 323.589 239.333C323.808 241.505 323.344 243.691 322.263 245.587C320.483 248.714 318.378 252.399 316.742 255.27C314.956 258.4 312.283 260.931 309.061 262.545L232.271 300.951L211.895 274.422L96.4553 150.882Z" fill="url(#paint1_linear_3134_105)" stroke="black" stroke-width="2" stroke-linecap="round" stroke-linejoin="round"/>
<path fill-rule="evenodd" clip-rule="evenodd" d="M88.7519 230.14C83.4559 227.493 79.2431 223.089 76.8327 217.681C74.4223 212.273 73.9638 206.197 75.5355 200.488C78.6805 189.052 82.5655 174.977 85.4626 164.402C86.9761 158.904 90.5945 154.223 95.5342 151.373C100.474 148.524 106.337 147.734 111.855 149.177C118.315 150.864 125.637 154.164 133.019 160.277C146.113 171.147 217.109 247.597 238.313 270.496C240.103 272.42 241.305 274.816 241.778 277.401C242.25 279.986 241.972 282.653 240.977 285.085C239.516 288.644 237.795 292.855 236.286 296.529C235.84 297.618 235.149 298.59 234.267 299.369C233.385 300.148 232.334 300.713 231.198 301.02C230.062 301.326 228.87 301.367 227.716 301.138C226.561 300.909 225.475 300.417 224.542 299.7L113.66 214.315L104.47 228.612C103.214 230.566 101.281 231.987 99.0414 232.602C96.8018 233.216 94.414 232.981 92.3372 231.942L88.7519 230.14Z" fill="url(#paint2_linear_3134_105)" stroke="black" stroke-width="2" stroke-linecap="round" stroke-linejoin="round"/>
<path fill-rule="evenodd" clip-rule="evenodd" d="M83.0391 198.601C83.1154 198.613 83.1881 198.642 83.252 198.686C83.3159 198.729 83.3696 198.786 83.4091 198.853L84.9816 201.409C85.0483 201.52 85.072 201.652 85.0482 201.779L84.6782 203.692C84.6512 203.828 84.5734 203.949 84.4606 204.029C84.3479 204.109 84.2087 204.144 84.0714 204.125C83.5867 204.051 82.8652 203.951 82.4915 203.9C82.415 203.886 82.3424 203.857 82.2785 203.812C82.2146 203.768 82.161 203.711 82.1215 203.644C81.7774 203.086 80.8672 201.609 80.5527 201.087C80.4844 200.977 80.4593 200.845 80.4824 200.717C80.5638 200.307 80.7488 199.385 80.8524 198.805C80.8786 198.67 80.9559 198.55 81.0683 198.471C81.1808 198.391 81.3195 198.358 81.4555 198.379L83.0391 198.601Z" fill="black"/>
<path fill-rule="evenodd" clip-rule="evenodd" d="M102.331 213.431C102.407 213.444 102.479 213.473 102.543 213.517C102.607 213.56 102.661 213.616 102.701 213.682C103.045 214.241 103.951 215.725 104.27 216.239C104.341 216.355 104.366 216.494 104.34 216.628C104.259 217.038 104.07 217.967 103.97 218.541C103.943 218.676 103.866 218.796 103.754 218.876C103.642 218.956 103.504 218.991 103.367 218.973C102.878 218.899 102.161 218.8 101.783 218.748C101.707 218.734 101.634 218.705 101.57 218.661C101.506 218.617 101.453 218.559 101.413 218.492C101.073 217.934 100.163 216.457 99.8445 215.936C99.7729 215.82 99.7478 215.681 99.7742 215.547C99.8593 215.137 100.044 214.215 100.144 213.634C100.171 213.5 100.249 213.381 100.361 213.301C100.473 213.222 100.611 213.189 100.747 213.209L102.331 213.431Z" fill="black"/>
<path fill-rule="evenodd" clip-rule="evenodd" d="M199.219 111.255C198.692 111.046 198.126 110.951 197.559 110.976C196.992 111.001 196.437 111.145 195.93 111.4L122.492 148.34C122.292 148.44 122.125 148.596 122.011 148.788C121.898 148.981 121.842 149.202 121.852 149.426C121.861 149.649 121.935 149.865 122.064 150.047C122.194 150.23 122.373 150.371 122.581 150.453L126.281 151.933C126.808 152.144 127.374 152.24 127.941 152.215C128.508 152.19 129.064 152.045 129.57 151.789C139.42 146.838 191.397 120.69 203.008 114.848C203.208 114.748 203.375 114.592 203.488 114.399C203.601 114.207 203.656 113.985 203.647 113.762C203.637 113.538 203.563 113.322 203.433 113.14C203.303 112.958 203.123 112.818 202.915 112.735L199.219 111.255Z" fill="black" stroke="white" stroke-width="2" stroke-linecap="round" stroke-linejoin="round"/>
<path fill-rule="evenodd" clip-rule="evenodd" d="M79.5167 80.9818L84.3859 78.5842C84.4155 78.5842 84.7892 78.7951 84.9483 78.8728C87.9527 80.2825 92.3113 80.3861 94.9383 79.0578C97.7059 77.6592 97.5283 75.2061 94.5683 73.5707L100.118 70.8364C103.119 72.2054 107.411 72.2942 110.016 70.977C112.621 69.6598 112.624 67.4731 110.238 65.8525L114.622 63.6917C117.623 65.3234 122.307 65.5121 125.082 64.1098C127.857 62.7075 127.672 60.3136 124.801 58.6782L130.044 56.0882C133.048 57.5497 137.481 57.6718 140.149 56.325C142.816 54.9782 142.739 52.7175 140.193 51.0895L141.899 50.2496C142.114 50.1392 142.352 50.0817 142.594 50.0817C142.836 50.0817 143.075 50.1392 143.29 50.2496C168.746 63.725 187.168 85.5513 200.303 113.66L128.153 149.735C112.702 125.43 92.3668 104.91 66.2929 88.9146C66.168 88.8369 66.0659 88.7275 65.997 88.5975C65.9281 88.4675 65.8949 88.3216 65.9007 88.1746C65.9062 88.0264 65.9518 87.8824 66.0326 87.758C66.1134 87.6335 66.2263 87.5333 66.3595 87.4679L69.3195 85.9879C69.3454 85.9879 69.8856 86.2802 70.1446 86.3912C73.1342 87.6825 77.3115 87.7417 79.8645 86.4541C82.6469 85.0666 82.4767 82.6172 79.5167 80.9818Z" fill="white" stroke="black" stroke-width="2" stroke-linecap="round" stroke-linejoin="round"/>
<path fill-rule="evenodd" clip-rule="evenodd" d="M78.921 97.3322C74.8683 94.4018 70.6589 91.5959 66.2929 88.9147C66.1664 88.8372 66.063 88.7273 65.9935 88.5963C65.924 88.4652 65.8909 88.318 65.8977 88.1698C65.9045 88.0216 65.9509 87.878 66.0322 87.7539C66.1134 87.6298 66.2264 87.5298 66.3595 87.4643L69.338 85.9843C69.3639 85.9843 69.8967 86.2766 70.1557 86.3876C73.149 87.6826 77.3226 87.7381 79.883 86.4505C82.6432 85.0519 82.473 82.6025 79.513 80.9671L84.3859 78.5695C84.4155 78.5695 84.7855 78.7804 84.9483 78.8581C87.949 80.2678 92.3039 80.3714 94.9383 79.0431C97.7133 77.6445 97.5283 75.1914 94.5683 73.556L100.118 70.8217C103.112 72.1907 107.407 72.2795 110.016 70.9623C112.624 69.6451 112.606 67.4584 110.23 65.8378L114.622 63.677C117.623 65.3087 122.303 65.4974 125.078 64.0951C127.854 62.6928 127.668 60.2989 124.801 58.6635L130.04 56.0735C133.045 57.5313 137.474 57.6534 140.145 56.3066C142.816 54.9598 142.735 52.6991 140.186 51.0711L141.891 50.2312C142.107 50.1217 142.345 50.0646 142.587 50.0646C142.829 50.0646 143.067 50.1217 143.283 50.2312C147.894 52.6708 152.335 55.4213 156.573 58.4637L78.921 97.3322Z" fill="#5C4DF1" stroke="black" stroke-width="2" stroke-linecap="round" stroke-linejoin="round"/>
<path fill-rule="evenodd" clip-rule="evenodd" d="M90.4909 97.4949C90.3647 97.5571 90.2565 97.6507 90.1768 97.7666C90.0972 97.8826 90.0486 98.0171 90.0358 98.1572C90.0223 98.2963 90.0433 98.4366 90.0968 98.5656C90.1504 98.6947 90.2349 98.8086 90.3429 98.8972C95.1384 102.688 99.6645 106.807 103.889 111.226C104.011 111.357 104.173 111.445 104.35 111.476C104.527 111.508 104.709 111.481 104.869 111.4L109.083 109.294C104.415 104.429 99.4496 99.857 94.2168 95.6042L90.4909 97.4949Z" fill="black"/>
<path fill-rule="evenodd" clip-rule="evenodd" d="M117.238 84.1305C122.568 88.2773 127.576 92.8216 132.219 97.7243L136.989 95.3378C132.321 90.4717 127.356 85.8996 122.122 81.6478L117.238 84.1305Z" fill="black"/>
<path fill-rule="evenodd" clip-rule="evenodd" d="M147.33 69.0864C152.661 73.2309 157.669 77.7739 162.312 82.6765L167.081 80.29C162.412 75.4248 157.447 70.8528 152.214 66.6L147.33 69.0864Z" fill="black"/>
<path fill-rule="evenodd" clip-rule="evenodd" d="M133.481 76.0091C138.812 80.1535 143.82 84.6966 148.462 89.5992L156.044 85.8104C151.377 80.9433 146.412 76.3711 141.177 72.1204L133.481 76.0091Z" fill="black"/>
<path fill-rule="evenodd" clip-rule="evenodd" d="M97.2323 94.1353C102.563 98.2798 107.571 102.823 112.214 107.725L113.919 106.874C109.249 102.009 104.283 97.4372 99.049 93.1844L97.2323 94.1353Z" fill="black"/>
<path fill-rule="evenodd" clip-rule="evenodd" d="M125.141 80.1789C130.471 84.3257 135.479 88.87 140.123 93.7727L141.828 92.918C137.157 88.0538 132.191 83.4818 126.958 79.228L125.141 80.1789Z" fill="black"/>
<path fill-rule="evenodd" clip-rule="evenodd" d="M101.217 92.13C106.548 96.2745 111.556 100.818 116.198 105.72L117.904 104.869C113.234 100.004 108.268 95.4318 103.034 91.1791L101.217 92.13Z" fill="black"/>
<path fill-rule="evenodd" clip-rule="evenodd" d="M129.13 78.1883C134.462 82.3309 139.47 86.8741 144.111 91.7784L145.821 90.9274C141.15 86.0631 136.184 81.4911 130.95 77.2374L129.13 78.1883Z" fill="black"/>
<path fill-rule="evenodd" clip-rule="evenodd" d="M143.345 71.077C148.677 75.2217 153.685 79.7661 158.327 84.6708L160.032 83.8161C155.362 78.9509 150.396 74.3788 145.162 70.1261L143.345 71.077Z" fill="black"/>
<path fill-rule="evenodd" clip-rule="evenodd" d="M154.379 65.5603C159.709 69.7048 164.717 74.2478 169.36 79.1504L170.529 78.5658C170.591 78.5351 170.645 78.4902 170.686 78.4348C170.728 78.3795 170.756 78.3151 170.767 78.247C170.779 78.179 170.775 78.109 170.755 78.0429C170.735 77.9768 170.699 77.9163 170.651 77.8665C166.169 73.2305 161.418 68.8631 156.421 64.787C156.354 64.7326 156.272 64.6991 156.186 64.6905C156.1 64.682 156.013 64.6988 155.937 64.7389L154.379 65.5603Z" fill="black"/>
<path fill-rule="evenodd" clip-rule="evenodd" d="M105.202 90.1505C110.532 94.2949 115.541 98.838 120.183 103.741L129.271 99.197C124.603 94.3308 119.638 89.7587 114.404 85.507L105.202 90.1505Z" fill="black"/>
<path fill-rule="evenodd" clip-rule="evenodd" d="M217.93 286.55C218.015 286.542 218.101 286.554 218.18 286.587C218.26 286.619 218.33 286.67 218.385 286.735L220.235 288.877C220.321 288.981 220.367 289.113 220.365 289.247V291.249C220.364 291.383 220.314 291.512 220.224 291.612C220.134 291.711 220.01 291.773 219.876 291.786L218.467 291.908C218.381 291.916 218.295 291.904 218.216 291.871C218.137 291.839 218.067 291.788 218.011 291.723L216.161 289.581C216.074 289.477 216.028 289.346 216.032 289.211V287.209C216.033 287.074 216.085 286.944 216.176 286.845C216.268 286.746 216.393 286.684 216.528 286.672L217.93 286.55Z" fill="black"/>
<path fill-rule="evenodd" clip-rule="evenodd" d="M222.263 274.71C222.348 274.702 222.434 274.715 222.513 274.747C222.592 274.779 222.662 274.83 222.718 274.895L224.568 277.041C224.657 277.143 224.705 277.275 224.701 277.411V279.413C224.701 279.547 224.651 279.676 224.56 279.775C224.47 279.874 224.346 279.937 224.213 279.949L222.803 280.071C222.718 280.08 222.632 280.068 222.552 280.035C222.473 280.003 222.403 279.952 222.348 279.886L220.498 277.744C220.409 277.642 220.361 277.51 220.365 277.374V275.376C220.366 275.241 220.417 275.111 220.509 275.011C220.6 274.911 220.726 274.849 220.86 274.836L222.263 274.71Z" fill="black"/>
<path fill-rule="evenodd" clip-rule="evenodd" d="M243.482 264.872C243.526 264.79 243.59 264.72 243.669 264.669C243.747 264.619 243.837 264.589 243.93 264.583L246.457 264.439C246.538 264.434 246.618 264.447 246.693 264.477C246.768 264.507 246.835 264.553 246.89 264.613L248.37 266.222C248.445 266.304 248.492 266.408 248.505 266.518C248.518 266.628 248.497 266.739 248.444 266.837L247.574 268.487C247.532 268.569 247.468 268.639 247.391 268.69C247.313 268.74 247.223 268.77 247.13 268.775L244.6 268.92C244.52 268.926 244.439 268.914 244.365 268.883C244.29 268.853 244.224 268.806 244.17 268.746C243.83 268.376 243.086 267.569 242.69 267.136C242.615 267.055 242.567 266.952 242.552 266.842C242.537 266.733 242.555 266.621 242.605 266.522C242.846 266.071 243.264 265.29 243.482 264.872Z" fill="black"/>
<path fill-rule="evenodd" clip-rule="evenodd" d="M309.668 231.779C309.712 231.697 309.776 231.627 309.854 231.577C309.933 231.526 310.022 231.497 310.116 231.491L312.643 231.346C312.723 231.341 312.804 231.354 312.879 231.384C312.954 231.414 313.021 231.461 313.076 231.52L314.556 233.13C314.631 233.211 314.679 233.314 314.692 233.425C314.706 233.535 314.684 233.647 314.629 233.744L313.76 235.394C313.718 235.477 313.655 235.547 313.577 235.598C313.499 235.649 313.409 235.678 313.316 235.683L310.782 235.827C310.702 235.833 310.622 235.82 310.548 235.79C310.475 235.76 310.409 235.713 310.356 235.653C310.016 235.283 309.276 234.476 308.876 234.044C308.802 233.961 308.754 233.859 308.739 233.75C308.724 233.64 308.742 233.528 308.791 233.429C309.031 232.978 309.45 232.19 309.668 231.779Z" fill="black"/>
<path fill-rule="evenodd" clip-rule="evenodd" d="M38.2987 231.772H104.743V270.533C104.743 279.528 89.8545 286.831 71.521 286.831C53.1875 286.831 38.2987 279.528 38.2987 270.533V231.772Z" fill="white" stroke="black" stroke-width="2" stroke-linecap="round" stroke-linejoin="round"/>
<path d="M104.747 246.287C104.747 255.3 89.8619 261.59 71.521 261.59C53.1801 261.59 38.2987 255.3 38.2987 246.287" stroke="black" stroke-width="2" stroke-linecap="round" stroke-linejoin="round"/>
<path d="M104.747 260.369C104.747 269.364 89.8619 275.68 71.521 275.68C53.1801 275.68 38.2987 269.36 38.2987 260.369" stroke="black" stroke-width="2" stroke-linecap="round" stroke-linejoin="round"/>
<path d="M71.521 249.158C89.873 249.158 104.747 241.862 104.747 232.878C104.747 223.894 89.873 216.579 71.521 216.579C53.169 216.579 38.2987 223.85 38.2987 232.863C38.2987 241.876 53.1727 249.158 71.521 249.158Z" fill="#373FEF" stroke="black" stroke-width="2" stroke-linecap="round" stroke-linejoin="round"/>
<path d="M71.521 245.51C85.7623 245.51 97.3063 239.849 97.3063 232.863C97.3063 225.878 85.7623 220.213 71.521 220.213C57.2797 220.213 45.7357 225.874 45.7357 232.863C45.7357 239.852 57.2834 245.51 71.521 245.51Z" fill="white" stroke="black" stroke-width="2" stroke-linecap="round" stroke-linejoin="round"/>
<path fill-rule="evenodd" clip-rule="evenodd" d="M109.698 272.072H162.8V291.334C162.8 298.52 150.908 304.355 136.26 304.355C121.612 304.355 109.716 298.52 109.716 291.334L109.698 272.072Z" fill="white" stroke="black" stroke-width="2" stroke-linecap="round" stroke-linejoin="round"/>
<path d="M162.8 281.052C162.8 288.237 150.908 294.072 136.26 294.072C121.612 294.072 109.698 288.23 109.698 281.052" stroke="black" stroke-width="2" stroke-linecap="round" stroke-linejoin="round"/>
<path d="M136.241 284.319C150.901 284.319 162.782 278.492 162.782 271.299C162.782 264.106 150.901 258.278 136.241 258.278C121.582 258.278 109.698 264.106 109.698 271.299C109.698 278.492 121.582 284.319 136.241 284.319Z" fill="#C557FB" stroke="black" stroke-width="2" stroke-linecap="round" stroke-linejoin="round"/>
<path d="M136.241 281.463C147.682 281.463 156.961 276.912 156.961 271.299C156.961 265.686 147.685 261.135 136.241 261.135C124.797 261.135 115.521 265.686 115.521 271.299C115.521 276.912 124.797 281.463 136.241 281.463Z" fill="white" stroke="black" stroke-width="2" stroke-linecap="round" stroke-linejoin="round"/>
<path fill-rule="evenodd" clip-rule="evenodd" d="M153.28 165.667C152.706 165.017 152.289 164.243 152.062 163.406C151.835 162.569 151.803 161.691 151.969 160.84C152.135 159.988 152.494 159.187 153.019 158.496C153.544 157.806 154.221 157.245 154.997 156.858L212.402 128.157C213.52 127.599 214.791 127.426 216.018 127.664C217.244 127.903 218.358 128.541 219.184 129.478L249.45 163.784C249.849 164.233 250.139 164.769 250.297 165.348C250.456 165.928 250.479 166.536 250.364 167.125C250.25 167.715 250.001 168.27 249.637 168.748C249.273 169.227 248.804 169.614 248.266 169.882L188.774 199.63C187.656 200.192 186.384 200.368 185.156 200.131C183.928 199.894 182.813 199.257 181.984 198.32L153.28 165.667Z" fill="black" stroke="black" stroke-width="2" stroke-linecap="round" stroke-linejoin="round"/>
<path fill-rule="evenodd" clip-rule="evenodd" d="M153.106 165.512C152.859 165.231 152.68 164.897 152.583 164.536C152.485 164.175 152.471 163.796 152.543 163.429C152.614 163.061 152.769 162.715 152.995 162.417C153.221 162.119 153.512 161.877 153.846 161.708L212.75 132.264C213.421 131.929 214.184 131.824 214.92 131.968C215.656 132.111 216.324 132.493 216.82 133.056C221.83 138.728 236.43 155.274 244.13 163.991C244.703 164.643 245.119 165.417 245.346 166.254C245.573 167.091 245.606 167.969 245.44 168.821C245.275 169.673 244.916 170.475 244.392 171.166C243.868 171.857 243.192 172.419 242.417 172.808L188.767 199.641C187.645 200.206 186.368 200.383 185.135 200.144C183.902 199.905 182.784 199.264 181.955 198.32L153.106 165.512Z" fill="#3A3FEF" stroke="black" stroke-width="2" stroke-linecap="round" stroke-linejoin="round"/>
<path fill-rule="evenodd" clip-rule="evenodd" d="M180.693 196.955L245.169 164.717L246.934 166.585C247.231 166.897 247.451 167.274 247.575 167.686C247.7 168.098 247.726 168.533 247.651 168.957C247.576 169.381 247.402 169.781 247.144 170.126C246.886 170.47 246.55 170.749 246.165 170.94L188.559 199.733C187.473 200.277 186.236 200.443 185.045 200.207C183.853 199.97 182.774 199.344 181.977 198.427L180.693 196.955Z" fill="white" stroke="black" stroke-width="2" stroke-linecap="round" stroke-linejoin="round"/>
<path fill-rule="evenodd" clip-rule="evenodd" d="M202.057 212.624C201.864 212.408 201.73 212.145 201.669 211.862C201.608 211.578 201.622 211.284 201.709 211.007L202.449 208.699L216.72 203.274C217.096 203.131 217.503 203.087 217.902 203.146C218.3 203.205 218.677 203.365 218.996 203.611C221.278 205.369 226.481 209.394 226.481 209.394C226.481 209.394 225.933 210.874 225.63 211.684C225.495 212.038 225.23 212.327 224.89 212.491L210.611 219.614C210.148 219.843 209.622 219.915 209.114 219.818C208.606 219.72 208.145 219.459 207.799 219.073C206.171 217.246 203.322 214.041 202.057 212.624Z" fill="black"/>
<path fill-rule="evenodd" clip-rule="evenodd" d="M216.195 230.41C216.001 230.195 215.867 229.933 215.805 229.65C215.743 229.367 215.756 229.073 215.843 228.797C216.147 227.846 216.583 226.488 216.583 226.488L230.858 221.064C231.235 220.92 231.642 220.875 232.041 220.934C232.441 220.993 232.818 221.154 233.137 221.401L240.604 227.18C240.604 227.18 240.06 228.66 239.745 229.47C239.616 229.82 239.36 230.108 239.027 230.277L224.749 237.399C224.285 237.63 223.759 237.701 223.25 237.604C222.742 237.506 222.279 237.245 221.933 236.859C220.309 235.031 217.453 231.831 216.195 230.41Z" fill="black"/>
<path fill-rule="evenodd" clip-rule="evenodd" d="M230.728 248.325C230.537 248.109 230.404 247.847 230.344 247.564C230.284 247.281 230.298 246.988 230.384 246.712L231.124 244.403L245.399 238.976C245.775 238.832 246.182 238.788 246.581 238.847C246.979 238.906 247.356 239.066 247.674 239.312L255.159 245.095C255.159 245.095 254.608 246.575 254.305 247.389C254.169 247.741 253.905 248.029 253.565 248.192C251.374 249.302 242.875 253.528 239.283 255.315C238.82 255.546 238.293 255.619 237.785 255.522C237.277 255.424 236.815 255.161 236.471 254.775C234.843 252.947 231.99 249.75 230.728 248.325Z" fill="black"/>
<path fill-rule="evenodd" clip-rule="evenodd" d="M240.267 218.374C240.075 218.157 239.942 217.894 239.882 217.611C239.822 217.327 239.836 217.033 239.923 216.757C240.219 215.806 240.663 214.452 240.663 214.452L254.93 209.024C255.306 208.881 255.713 208.837 256.112 208.895C256.51 208.954 256.887 209.115 257.206 209.361L264.691 215.144C264.691 215.144 264.143 216.624 263.84 217.434C263.705 217.788 263.44 218.076 263.1 218.241L248.821 225.363C248.359 225.595 247.833 225.667 247.325 225.57C246.818 225.472 246.356 225.21 246.013 224.823L240.267 218.374Z" fill="black"/>
<path fill-rule="evenodd" clip-rule="evenodd" d="M254.808 236.286C254.615 236.07 254.481 235.808 254.42 235.525C254.358 235.243 254.371 234.949 254.456 234.672C254.76 233.722 255.196 232.364 255.196 232.364L269.471 226.936C269.848 226.793 270.255 226.75 270.653 226.809C271.051 226.869 271.428 227.03 271.746 227.276L279.232 233.059C279.232 233.059 278.684 234.539 278.373 235.35C278.239 235.703 277.974 235.992 277.633 236.156L263.359 243.279C262.895 243.509 262.369 243.581 261.86 243.483C261.352 243.384 260.891 243.122 260.547 242.735C258.922 240.907 256.066 237.703 254.808 236.286Z" fill="black"/>
<path fill-rule="evenodd" clip-rule="evenodd" d="M262.667 207.174C262.473 206.959 262.338 206.697 262.276 206.414C262.215 206.131 262.228 205.837 262.315 205.561C262.619 204.61 263.055 203.252 263.055 203.252L277.322 197.824C277.7 197.681 278.109 197.638 278.508 197.697C278.908 197.757 279.285 197.918 279.605 198.165L287.09 203.948C287.09 203.948 286.543 205.428 286.232 206.238C286.097 206.592 285.833 206.88 285.492 207.045L271.21 214.167C270.747 214.398 270.22 214.47 269.712 214.371C269.204 214.273 268.742 214.01 268.398 213.623L262.667 207.174Z" fill="black"/>
<path fill-rule="evenodd" clip-rule="evenodd" d="M277.2 225.089C277.008 224.872 276.876 224.61 276.816 224.326C276.755 224.043 276.769 223.749 276.856 223.473C277.156 222.525 277.596 221.167 277.596 221.167L291.871 215.74C292.247 215.596 292.654 215.552 293.053 215.611C293.451 215.67 293.828 215.83 294.146 216.076L301.631 221.859C301.631 221.859 301.084 223.339 300.773 224.153C300.645 224.503 300.388 224.79 300.055 224.956L285.777 232.079C285.313 232.311 284.786 232.384 284.277 232.286C283.768 232.188 283.306 231.926 282.961 231.539L277.2 225.089Z" fill="black"/>
<path fill-rule="evenodd" clip-rule="evenodd" d="M225.208 201.047C225.016 200.831 224.883 200.569 224.822 200.286C224.761 200.003 224.774 199.71 224.86 199.434L225.6 197.125L239.875 191.697C240.251 191.554 240.658 191.509 241.056 191.568C241.455 191.627 241.831 191.788 242.15 192.034L249.635 197.817C249.635 197.817 249.088 199.297 248.777 200.111C248.644 200.464 248.379 200.752 248.037 200.914L233.766 208.036C233.303 208.268 232.776 208.341 232.267 208.243C231.758 208.146 231.295 207.883 230.95 207.496L225.208 201.047Z" fill="black"/>
<path fill-rule="evenodd" clip-rule="evenodd" d="M247.867 189.717C247.672 189.503 247.537 189.241 247.476 188.958C247.414 188.675 247.428 188.38 247.515 188.104L248.255 185.795L262.522 180.371C262.899 180.227 263.307 180.182 263.706 180.241C264.105 180.3 264.483 180.461 264.802 180.708C267.081 182.465 272.283 186.491 272.283 186.491L271.432 188.781C271.297 189.135 271.033 189.424 270.692 189.588L256.41 196.71C255.947 196.941 255.421 197.013 254.913 196.915C254.405 196.818 253.943 196.556 253.598 196.17L247.867 189.717Z" fill="black"/>
<path fill-rule="evenodd" clip-rule="evenodd" d="M203.13 210.497C202.962 210.305 202.839 210.078 202.773 209.831C202.706 209.585 202.697 209.327 202.746 209.077C202.795 208.827 202.901 208.591 203.055 208.388C203.21 208.185 203.409 208.02 203.637 207.907L217.379 201.032C217.843 200.8 218.372 200.728 218.881 200.827C219.391 200.926 219.854 201.19 220.198 201.58C221.704 203.282 224.268 206.179 225.789 207.914C225.938 208.084 226.046 208.285 226.105 208.503C226.165 208.721 226.173 208.95 226.13 209.172C226.087 209.394 225.994 209.603 225.858 209.783C225.722 209.963 225.546 210.11 225.345 210.212L211.344 217.19C210.879 217.423 210.349 217.495 209.839 217.395C209.328 217.295 208.865 217.029 208.521 216.639C207.082 215.003 204.654 212.25 203.13 210.497Z" fill="white" stroke="black" stroke-width="2" stroke-linecap="round" stroke-linejoin="round"/>
<path fill-rule="evenodd" clip-rule="evenodd" d="M217.253 228.29C217.086 228.097 216.965 227.868 216.901 227.621C216.837 227.374 216.831 227.115 216.883 226.866C216.932 226.614 217.038 226.377 217.194 226.173C217.349 225.969 217.549 225.803 217.778 225.689L231.524 218.814C231.989 218.583 232.518 218.511 233.028 218.61C233.539 218.709 234.002 218.973 234.347 219.362C235.827 221.064 238.417 223.961 239.938 225.696C240.086 225.866 240.193 226.068 240.252 226.286C240.31 226.504 240.318 226.733 240.274 226.954C240.231 227.176 240.138 227.385 240.001 227.566C239.864 227.746 239.688 227.892 239.486 227.994L225.5 234.991C225.035 235.223 224.505 235.295 223.995 235.196C223.484 235.096 223.021 234.83 222.677 234.439C221.212 232.793 218.788 230.04 217.253 228.29Z" fill="white" stroke="black" stroke-width="2" stroke-linecap="round" stroke-linejoin="round"/>
<path fill-rule="evenodd" clip-rule="evenodd" d="M231.786 246.202C231.621 246.007 231.502 245.777 231.438 245.53C231.374 245.283 231.367 245.024 231.416 244.773C231.465 244.522 231.571 244.286 231.726 244.082C231.88 243.878 232.08 243.712 232.308 243.597L246.05 236.726C246.515 236.492 247.044 236.418 247.555 236.517C248.066 236.616 248.53 236.882 248.873 237.274C250.375 238.972 252.943 241.873 254.46 243.608C254.61 243.777 254.72 243.978 254.78 244.197C254.84 244.415 254.85 244.644 254.808 244.866C254.765 245.088 254.671 245.297 254.535 245.477C254.398 245.658 254.222 245.804 254.02 245.906C250.664 247.578 243.29 251.263 240.026 252.899C239.562 253.131 239.033 253.203 238.523 253.103C238.013 253.003 237.55 252.738 237.207 252.347C235.753 250.708 233.326 247.955 231.786 246.202Z" fill="#373FEF" stroke="black" stroke-width="2" stroke-linecap="round" stroke-linejoin="round"/>
<path fill-rule="evenodd" clip-rule="evenodd" d="M241.325 216.25C241.161 216.055 241.042 215.825 240.978 215.578C240.914 215.331 240.906 215.073 240.955 214.822C241.004 214.57 241.11 214.333 241.266 214.129C241.421 213.925 241.621 213.76 241.851 213.645L255.6 206.771C256.064 206.539 256.593 206.468 257.102 206.567C257.612 206.665 258.075 206.93 258.419 207.318L264.006 213.657C264.155 213.826 264.262 214.027 264.321 214.245C264.38 214.463 264.388 214.691 264.345 214.912C264.302 215.133 264.209 215.342 264.074 215.522C263.938 215.702 263.763 215.848 263.562 215.951L249.569 222.947C249.103 223.179 248.574 223.251 248.063 223.151C247.553 223.051 247.09 222.786 246.746 222.396C245.288 220.753 242.872 218 241.325 216.25Z" fill="white" stroke="black" stroke-width="2" stroke-linecap="round" stroke-linejoin="round"/>
<path fill-rule="evenodd" clip-rule="evenodd" d="M255.866 234.162C255.698 233.97 255.577 233.742 255.511 233.496C255.445 233.25 255.437 232.992 255.486 232.742C255.535 232.491 255.641 232.256 255.796 232.053C255.95 231.851 256.149 231.686 256.377 231.572C259.814 229.848 266.925 226.296 270.122 224.697C270.587 224.465 271.115 224.393 271.625 224.492C272.135 224.591 272.598 224.856 272.942 225.245C274.422 226.947 277.012 229.844 278.532 231.579C278.681 231.749 278.788 231.951 278.846 232.169C278.905 232.387 278.913 232.616 278.869 232.837C278.828 233.06 278.735 233.27 278.598 233.45C278.461 233.631 278.284 233.777 278.081 233.877L264.095 240.87C263.63 241.104 263.1 241.177 262.589 241.077C262.078 240.977 261.615 240.71 261.272 240.319C259.825 238.668 257.405 235.916 255.866 234.162Z" fill="white" stroke="black" stroke-width="2" stroke-linecap="round" stroke-linejoin="round"/>
<path fill-rule="evenodd" clip-rule="evenodd" d="M263.725 205.05C263.558 204.857 263.437 204.628 263.373 204.381C263.309 204.134 263.303 203.876 263.355 203.626C263.405 203.374 263.511 203.137 263.666 202.932C263.821 202.727 264.021 202.561 264.25 202.445L277.999 195.575C278.464 195.343 278.992 195.271 279.502 195.37C280.012 195.469 280.475 195.733 280.819 196.122C282.299 197.824 284.889 200.721 286.41 202.457C286.559 202.626 286.667 202.828 286.726 203.046C286.784 203.265 286.793 203.493 286.749 203.715C286.706 203.937 286.613 204.146 286.476 204.326C286.34 204.506 286.164 204.653 285.962 204.754L271.95 211.747C271.484 211.981 270.954 212.054 270.442 211.955C269.931 211.855 269.467 211.588 269.123 211.196L263.725 205.05Z" fill="white" stroke="black" stroke-width="2" stroke-linecap="round" stroke-linejoin="round"/>
<path fill-rule="evenodd" clip-rule="evenodd" d="M278.262 222.966C278.094 222.773 277.973 222.543 277.909 222.295C277.844 222.047 277.839 221.788 277.892 221.537C277.941 221.286 278.046 221.049 278.201 220.845C278.355 220.641 278.555 220.475 278.784 220.361L292.515 213.49C292.979 213.258 293.508 213.186 294.018 213.285C294.528 213.385 294.991 213.651 295.334 214.041L300.928 220.376C301.077 220.546 301.185 220.748 301.244 220.966C301.302 221.185 301.31 221.413 301.267 221.635C301.223 221.857 301.129 222.066 300.992 222.246C300.855 222.426 300.679 222.572 300.477 222.673L286.491 229.666C286.026 229.899 285.496 229.971 284.986 229.871C284.475 229.772 284.012 229.506 283.668 229.115C282.225 227.472 279.798 224.716 278.262 222.966Z" fill="white" stroke="black" stroke-width="2" stroke-linecap="round" stroke-linejoin="round"/>
<path fill-rule="evenodd" clip-rule="evenodd" d="M226.27 198.923C226.099 198.731 225.974 198.503 225.906 198.255C225.838 198.007 225.828 197.747 225.878 197.495C225.929 197.244 226.036 197.007 226.192 196.803C226.348 196.599 226.548 196.434 226.777 196.318L240.522 189.44C240.986 189.206 241.515 189.133 242.026 189.232C242.536 189.331 242.999 189.597 243.342 189.988L248.932 196.322C249.081 196.492 249.189 196.693 249.248 196.912C249.307 197.13 249.316 197.358 249.273 197.58C249.229 197.802 249.135 198.012 248.998 198.192C248.861 198.372 248.684 198.519 248.481 198.62L234.499 205.613C234.033 205.845 233.504 205.917 232.993 205.818C232.483 205.718 232.019 205.452 231.676 205.061C230.229 203.43 227.805 200.673 226.27 198.923Z" fill="white" stroke="black" stroke-width="2" stroke-linecap="round" stroke-linejoin="round"/>
<path fill-rule="evenodd" clip-rule="evenodd" d="M248.925 187.59C248.754 187.399 248.629 187.171 248.561 186.924C248.493 186.677 248.483 186.417 248.533 186.165C248.583 185.914 248.69 185.677 248.846 185.473C249.001 185.269 249.202 185.103 249.432 184.989L263.177 178.114C263.643 177.882 264.171 177.81 264.682 177.909C265.192 178.008 265.655 178.273 266 178.662C267.48 180.364 270.07 183.261 271.587 184.996C271.736 185.166 271.844 185.368 271.903 185.586C271.962 185.804 271.97 186.033 271.927 186.255C271.884 186.477 271.79 186.686 271.654 186.866C271.517 187.046 271.342 187.192 271.14 187.294C267.81 188.97 260.41 192.652 257.154 194.291C256.688 194.523 256.158 194.595 255.647 194.495C255.136 194.395 254.672 194.13 254.327 193.739L248.925 187.59Z" fill="white" stroke="black" stroke-width="2" stroke-linecap="round" stroke-linejoin="round"/>
<path fill-rule="evenodd" clip-rule="evenodd" d="M82.4027 175.539L85.47 164.413C86.9827 158.915 90.6003 154.234 95.5395 151.385C100.479 148.535 106.341 147.746 111.858 149.188C118.322 150.875 125.641 154.175 133.022 160.288C146.12 171.162 217.112 247.608 238.317 270.507C240.108 272.43 241.311 274.827 241.783 277.412C242.255 279.997 241.977 282.664 240.981 285.096C239.52 288.655 237.799 292.866 236.289 296.54C235.843 297.63 235.152 298.602 234.269 299.38C233.386 300.159 232.335 300.723 231.198 301.028C230.061 301.334 228.869 301.373 227.714 301.143C226.56 300.913 225.474 300.419 224.542 299.7L223.647 299.008L229.441 283.435C230.022 281.869 230.144 280.17 229.791 278.537C229.438 276.905 228.626 275.408 227.45 274.222C209.501 256.11 135.846 181.866 124.694 172.102C108.743 158.149 98.3349 161.438 94.5165 175.972C94.5165 175.972 94.3981 176.342 94.2057 176.993C93.7947 178.35 92.9183 179.518 91.7308 180.291C90.5433 181.065 89.1208 181.395 87.7139 181.223C86.307 181.051 85.0059 180.388 84.0398 179.351C83.0736 178.314 82.5044 176.969 82.4323 175.554L82.4027 175.539Z" fill="url(#paint3_linear_3134_105)" stroke="black" stroke-width="2" stroke-linecap="round" stroke-linejoin="round"/>
<path fill-rule="evenodd" clip-rule="evenodd" d="M252.381 292.152L258.301 282.406C259.232 280.881 260.573 279.647 262.171 278.847L299.589 260.136C300.089 259.885 300.641 259.756 301.201 259.759C301.76 259.761 302.311 259.895 302.809 260.149C303.307 260.404 303.739 260.772 304.068 261.224C304.398 261.676 304.616 262.2 304.706 262.752C304.961 264.358 305.187 265.745 305.187 265.745L252.381 292.152Z" fill="black" stroke="black" stroke-width="2" stroke-linecap="round" stroke-linejoin="round"/>
<path d="M247.689 276.889L318.822 241.321" stroke="black" stroke-width="2" stroke-linecap="round" stroke-linejoin="round"/>
<path fill-rule="evenodd" clip-rule="evenodd" d="M132.985 221.156C133.424 220.898 133.93 220.777 134.438 220.81C134.946 220.843 135.433 221.028 135.834 221.341L150.387 232.693C152.057 233.996 153.201 235.857 153.609 237.936L156.025 250.268L124.446 226.196L132.985 221.156Z" fill="black" stroke="black" stroke-width="2" stroke-linecap="round" stroke-linejoin="round"/>
<path d="M213.716 107.94L212.654 105.45V101.972" stroke="black" stroke-width="2" stroke-linecap="round" stroke-linejoin="round"/>
<path d="M230.199 279.472L242.002 278.488" stroke="black" stroke-width="2" stroke-linecap="round" stroke-linejoin="round"/>
<path d="M104.229 148.74L103.937 163.473" stroke="black" stroke-width="2" stroke-linecap="round" stroke-linejoin="round"/>
<path d="M223.221 107.096V110.467L221.26 111.714" stroke="black" stroke-width="2" stroke-linecap="round" stroke-linejoin="round"/>
<path d="M217.863 110.012V104.74" stroke="black" stroke-width="2" stroke-linecap="round" stroke-linejoin="round"/>
<path d="M221.26 114.537L227.55 117.682" stroke="black" stroke-width="2" stroke-linecap="round" stroke-linejoin="round"/>
<path d="M208.351 107.67L213.716 110.356" stroke="black" stroke-width="2" stroke-linecap="round" stroke-linejoin="round"/>
<path d="M221.26 117.738L222.544 119.292V120.527" stroke="black" stroke-width="2" stroke-linecap="round" stroke-linejoin="round"/>
<path d="M273.73 170.248L263.144 164.957" stroke="white" stroke-width="2" stroke-linecap="round" stroke-linejoin="round"/>
<path d="M300.632 199.759L287.738 193.314" stroke="white" stroke-width="2" stroke-linecap="round" stroke-linejoin="round"/>
<path d="M215.34 131.235L216.221 128.693" stroke="white" stroke-width="2" stroke-linecap="round" stroke-linejoin="round"/>
<path d="M113.423 214.633L120.524 202.205L126.988 204.018L138.177 185" stroke="black" stroke-width="2" stroke-linecap="round" stroke-linejoin="round"/>
<path d="M69.8486 238.239C69.7763 238.202 69.7162 238.145 69.6756 238.075C69.6349 238.005 69.6153 237.924 69.6192 237.843C69.6227 237.763 69.6494 237.685 69.696 237.62C69.7426 237.554 69.8071 237.503 69.8819 237.473L80.216 233.141C80.8413 232.878 80.8894 232.401 80.3196 232.116C79.6308 231.811 78.8502 231.787 78.144 232.049L69.042 235.864C65.9007 237.181 61.0389 237.026 58.1788 235.516C55.3187 234.007 55.5481 231.72 58.6894 230.403L60.9686 229.448L58.0086 227.89C57.9014 227.835 57.8121 227.75 57.7515 227.646C57.6909 227.542 57.6614 227.422 57.6664 227.302C57.6715 227.181 57.7109 227.064 57.7801 226.965C57.8492 226.867 57.9452 226.79 58.0567 226.743L60.754 225.611C60.9452 225.531 61.1519 225.493 61.3592 225.502C61.5665 225.511 61.7693 225.566 61.9528 225.663L65.5048 227.539L68.7386 226.185C68.9507 226.096 69.1798 226.056 69.4094 226.066C69.639 226.076 69.8635 226.137 70.0669 226.244L72.6273 227.594C72.7089 227.64 72.7762 227.707 72.8216 227.789C72.8671 227.871 72.8889 227.963 72.8847 228.057C72.8805 228.15 72.8504 228.24 72.7977 228.317C72.7451 228.395 72.672 228.456 72.5866 228.494L62.8223 232.586C62.1933 232.848 62.1452 233.307 62.7187 233.607C63.4057 233.913 64.1853 233.938 64.8906 233.677L74 229.863C77.1413 228.545 82.0068 228.701 84.8632 230.21C87.7196 231.72 87.4976 234.007 84.36 235.32L82.0845 236.275L85.4145 238.039C85.4861 238.077 85.5455 238.134 85.5859 238.204C85.6262 238.274 85.6458 238.354 85.6423 238.435C85.6388 238.516 85.6124 238.594 85.5662 238.66C85.5199 238.726 85.4558 238.778 85.3812 238.809L82.7468 239.919C82.4065 240.061 82.0389 240.126 81.6704 240.11C81.302 240.093 80.9418 239.995 80.6156 239.823L77.5187 238.191L74.2701 239.553C73.9298 239.695 73.5622 239.76 73.1937 239.743C72.8253 239.727 72.4651 239.629 72.1389 239.457L69.8486 238.239Z" fill="black"/>
<path d="M134.739 275.502C134.667 275.465 134.608 275.408 134.567 275.339C134.527 275.269 134.507 275.189 134.51 275.108C134.514 275.028 134.54 274.95 134.587 274.884C134.633 274.818 134.698 274.767 134.772 274.736L142.657 271.432C143.149 271.225 143.183 270.87 142.739 270.633C142.201 270.394 141.592 270.374 141.04 270.577L133.94 273.556C131.487 274.584 127.691 274.462 125.46 273.286C123.228 272.109 123.41 270.326 125.863 269.293L127.639 268.553L125.596 267.477C125.489 267.421 125.4 267.335 125.34 267.23C125.28 267.125 125.251 267.006 125.256 266.885C125.263 266.764 125.304 266.648 125.373 266.55C125.442 266.451 125.538 266.374 125.648 266.326L127.347 265.616C127.538 265.535 127.745 265.498 127.952 265.507C128.159 265.516 128.362 265.571 128.545 265.667L131.187 267.062L133.57 266.067C133.782 265.978 134.011 265.937 134.24 265.946C134.47 265.956 134.695 266.016 134.898 266.123L136.123 266.77C136.24 266.838 136.336 266.937 136.4 267.055C136.465 267.174 136.496 267.308 136.49 267.443C136.484 267.578 136.441 267.708 136.366 267.821C136.291 267.933 136.186 268.023 136.064 268.08L129.1 270.999C128.612 271.203 128.575 271.562 129.019 271.798C129.557 272.036 130.166 272.054 130.717 271.85L137.821 268.89C140.274 267.861 144.071 267.98 146.302 269.16C148.533 270.341 148.351 272.12 145.902 273.153L144.126 273.893L146.561 275.176C146.632 275.214 146.692 275.271 146.732 275.341C146.772 275.411 146.792 275.491 146.788 275.572C146.785 275.653 146.759 275.731 146.712 275.797C146.666 275.863 146.602 275.915 146.527 275.946L144.892 276.631C144.552 276.773 144.184 276.839 143.816 276.822C143.447 276.806 143.087 276.707 142.761 276.534L140.574 275.38L138.273 276.346C137.932 276.488 137.565 276.553 137.196 276.536C136.828 276.519 136.468 276.422 136.141 276.249L134.739 275.502Z" fill="black"/>
<path d="M122.577 123.765L177.811 96.1482" stroke="black" stroke-width="2" stroke-linecap="round" stroke-linejoin="round"/>
<path d="M204.414 149.887L196.788 178.27" stroke="white" stroke-width="2" stroke-linecap="round" stroke-linejoin="round"/>
<path d="M218.848 164.076H182.358" stroke="white" stroke-width="2" stroke-linecap="round" stroke-linejoin="round"/>
<defs>
<linearGradient id="paint0_linear_3134_105" x1="265.457" y1="126.903" x2="259.229" y2="212.587" gradientUnits="userSpaceOnUse">
<stop stop-color="#373FEF"/>
<stop offset="1" stop-color="#EA5DFF"/>
</linearGradient>
<linearGradient id="paint1_linear_3134_105" x1="221.959" y1="230.588" x2="260.132" y2="345.328" gradientUnits="userSpaceOnUse">
<stop stop-color="white"/>
<stop offset="1" stop-color="#B3B3B3"/>
</linearGradient>
<linearGradient id="paint2_linear_3134_105" x1="178.396" y1="207.148" x2="131.498" y2="266.559" gradientUnits="userSpaceOnUse">
<stop stop-color="white"/>
<stop offset="0.53" stop-color="#EEEEEE"/>
<stop offset="1" stop-color="#B3B3B3"/>
</linearGradient>
<linearGradient id="paint3_linear_3134_105" x1="151.685" y1="170.995" x2="179.517" y2="319.628" gradientUnits="userSpaceOnUse">
<stop stop-color="#373FEF"/>
<stop offset="1" stop-color="#DB5BFD"/>
</linearGradient>
</defs>
</svg>
