<svg width="323" height="323" viewBox="0 0 323 323" fill="none" xmlns="http://www.w3.org/2000/svg">
<rect x="0.5" y="0.5" width="322.5" height="322.5" rx="19.7449" fill="#E7E7E7"/>
<g clip-path="url(#clip0_3153_8759)">
<path d="M271.947 278.491H65.2754C63.465 278.491 61.9949 277.021 61.9949 275.211V169.154C61.9949 167.343 63.465 165.873 65.2754 165.873H271.947C273.757 165.873 275.227 167.343 275.227 169.154V275.211C275.227 277.033 273.757 278.491 271.947 278.491Z" fill="white" stroke="#231F20" stroke-width="0.6075" stroke-miterlimit="10" stroke-linecap="round" stroke-linejoin="round"/>
<path d="M255.545 161.475H48.8733C47.0629 161.475 45.5928 160.005 45.5928 158.194V52.1369C45.5928 50.3266 47.0629 48.8564 48.8733 48.8564H255.545C257.355 48.8564 258.825 50.3266 258.825 52.1369V158.194C258.825 160.017 257.355 161.475 255.545 161.475Z" fill="white" stroke="#231F20" stroke-width="0.6075" stroke-miterlimit="10" stroke-linecap="round" stroke-linejoin="round"/>
<path d="M45.5926 205.409C52.6853 205.409 58.4351 199.659 58.4351 192.567C58.4351 185.474 52.6853 179.724 45.5926 179.724C38.4998 179.724 32.75 185.474 32.75 192.567C32.75 199.659 38.4998 205.409 45.5926 205.409Z" fill="white" stroke="#231F20" stroke-width="0.6075" stroke-miterlimit="10" stroke-linecap="round" stroke-linejoin="round"/>
<path d="M58.4108 193.065C58.2285 197.779 55.5069 201.849 51.5703 203.927" stroke="#231F20" stroke-width="0.6075" stroke-miterlimit="10"/>
<path d="M39.5903 181.219C41.3764 180.271 43.4176 179.736 45.5803 179.736C48.0953 179.736 50.4403 180.465 52.4207 181.717" stroke="#231F20" stroke-width="0.6075" stroke-miterlimit="10"/>
<path d="M38.74 203.429C35.1436 201.157 32.75 197.135 32.75 192.567C32.75 192.397 32.75 192.239 32.7622 192.069" stroke="#231F20" stroke-width="0.6075" stroke-miterlimit="10"/>
<path d="M58.4109 193.065C58.4109 193.065 50.7442 186.528 45.5805 192.567C42.9318 185.082 52.4209 181.705 52.4209 181.705C56.0173 183.977 58.4109 187.998 58.4109 192.567C58.423 192.737 58.423 192.907 58.4109 193.065Z" fill="#231F20" stroke="#231F20" stroke-width="0.6075" stroke-miterlimit="10" stroke-linecap="round" stroke-linejoin="round"/>
<path d="M32.7622 192.069C32.7622 192.069 40.4289 198.605 45.5926 192.567C37.7802 191.121 39.6027 181.207 39.6027 181.207C35.6661 183.296 32.9323 187.354 32.7622 192.069Z" fill="#231F20" stroke="#231F20" stroke-width="0.6075" stroke-miterlimit="10" stroke-linecap="round" stroke-linejoin="round"/>
<path d="M51.5701 203.927C49.7841 204.875 47.7429 205.409 45.5802 205.409C43.0651 205.409 40.7202 204.68 38.7397 203.429C38.7397 203.429 48.241 200.051 45.5802 192.567C53.3926 194.013 51.5701 203.927 51.5701 203.927Z" fill="#231F20" stroke="#231F20" stroke-width="0.6075" stroke-miterlimit="10" stroke-linecap="round" stroke-linejoin="round"/>
<path d="M282.444 49.6098L278.131 50.9098C277.718 51.0313 277.39 51.3594 277.256 51.7846L275.956 56.0979C275.738 56.839 274.681 56.839 274.462 56.0979L273.162 51.7846C273.04 51.3715 272.712 51.0435 272.287 50.9098L267.974 49.6098C267.233 49.3911 267.233 48.334 267.974 48.1153L272.287 46.8153C272.7 46.6938 273.028 46.3657 273.15 45.9526L274.45 41.6394C274.668 40.8982 275.726 40.8982 275.944 41.6394L277.244 45.9526C277.366 46.3657 277.694 46.6938 278.119 46.8274L282.432 48.1275C283.186 48.334 283.186 49.3911 282.444 49.6098Z" fill="#231F20"/>
<path d="M54.2067 255.455L51.1935 256.366C50.9019 256.451 50.671 256.682 50.586 256.974L49.6747 259.987C49.5168 260.509 48.7878 260.509 48.6298 259.987L47.7186 256.974C47.6335 256.682 47.4027 256.451 47.1111 256.366L44.0979 255.455C43.5754 255.297 43.5754 254.568 44.0979 254.41L47.1111 253.499C47.4027 253.414 47.6335 253.183 47.7186 252.891L48.6298 249.878C48.7878 249.356 49.5168 249.356 49.6747 249.878L50.586 252.891C50.671 253.183 50.9019 253.414 51.1935 253.499L54.2067 254.41C54.717 254.568 54.717 255.297 54.2067 255.455Z" fill="#231F20"/>
<path d="M290.354 195.009L288.24 195.641C288.033 195.701 287.875 195.859 287.815 196.066L287.183 198.18C287.073 198.545 286.563 198.545 286.454 198.18L285.822 196.066C285.761 195.859 285.603 195.701 285.397 195.641L283.283 195.009C282.918 194.9 282.918 194.389 283.283 194.28L285.397 193.636C285.603 193.575 285.761 193.417 285.822 193.211L286.466 191.097C286.575 190.732 287.086 190.732 287.195 191.097L287.827 193.211C287.888 193.417 288.045 193.575 288.252 193.636L290.366 194.268C290.718 194.389 290.718 194.9 290.354 195.009Z" fill="#231F20"/>
<path d="M56.5278 148.158H247.89" stroke="#231F20" stroke-width="0.6075" stroke-miterlimit="10" stroke-linecap="round" stroke-linejoin="round"/>
<path d="M72.9304 247.023H264.293" stroke="#231F20" stroke-width="0.6075" stroke-miterlimit="10" stroke-linecap="round" stroke-linejoin="round"/>
<path d="M72.9304 228.871H264.293" stroke="#231F20" stroke-width="0.6075" stroke-miterlimit="10" stroke-linecap="round" stroke-linejoin="round"/>
<path d="M72.9304 210.719H264.293" stroke="#231F20" stroke-width="0.6075" stroke-miterlimit="10" stroke-linecap="round" stroke-linejoin="round"/>
<path d="M72.9304 192.567H264.293" stroke="#231F20" stroke-width="0.6075" stroke-miterlimit="10" stroke-linecap="round" stroke-linejoin="round"/>
<path d="M152.209 148.159V101.818" stroke="#231F20" stroke-width="0.6075" stroke-miterlimit="10" stroke-linecap="round" stroke-linejoin="round"/>
<path d="M184.103 148.159V71.8566" stroke="#231F20" stroke-width="0.6075" stroke-miterlimit="10" stroke-linecap="round" stroke-linejoin="round"/>
<path d="M215.996 148.159V84.4805" stroke="#231F20" stroke-width="0.6075" stroke-miterlimit="10" stroke-linecap="round" stroke-linejoin="round"/>
<path d="M247.89 148.159V110.008" stroke="#231F20" stroke-width="0.6075" stroke-miterlimit="10" stroke-linecap="round" stroke-linejoin="round"/>
<path d="M120.315 148.158V89.316" stroke="#231F20" stroke-width="0.6075" stroke-miterlimit="10" stroke-linecap="round" stroke-linejoin="round"/>
<path d="M88.4209 148.159V106.253" stroke="#231F20" stroke-width="0.6075" stroke-miterlimit="10" stroke-linecap="round" stroke-linejoin="round"/>
<path d="M56.5273 148.158V127.151" stroke="#231F20" stroke-width="0.6075" stroke-miterlimit="10" stroke-linecap="round" stroke-linejoin="round"/>
<path d="M57.1594 132.619V121.684C59.2371 121.684 60.3184 120.456 63.2587 114.795C64.9111 111.599 66.7944 107.966 69.7954 105.16C73.5862 101.6 78.3733 100.117 84.0231 100.737C87.7531 101.15 90.7299 100.652 93.3664 99.2061C95.8572 97.8332 97.9348 95.6826 100.146 93.4227C104.314 89.1216 109.514 83.7756 118.566 83.7756C127.034 83.7756 132.854 88.3197 137.532 91.9769C139.95 93.8601 142.222 95.6462 144.481 96.5453C146.62 97.4079 148.685 97.4322 151.164 96.6303C153.375 95.9135 155.89 91.6367 158.32 87.5057C160.933 83.0588 163.897 78.0044 168.198 73.9098C170.665 71.5527 173.374 69.7181 176.266 68.4545C179.559 67.0086 183.179 66.2432 187.043 66.1703C199.642 65.9516 205.973 71.3219 210.614 75.2463C214.721 78.7334 216.215 79.7904 220.103 78.8063C225.801 77.3847 230.771 78.9521 234.452 83.3504C237.101 86.5094 238.717 90.6525 240.272 94.662C243.042 101.782 244.622 104.759 247.27 104.759V115.694C242.41 115.694 238.352 113.495 235.218 109.157C232.958 106.034 231.5 102.268 230.078 98.6229C228.839 95.4396 227.563 92.147 226.069 90.3609C225.194 89.316 224.538 88.9515 222.752 89.4011C213.226 91.7825 207.856 87.2262 203.543 83.5691C199.521 80.1549 195.718 76.9352 187.249 77.081C182.693 77.166 179.048 78.6605 175.756 81.7952C172.56 84.8327 170.118 89.0001 167.761 93.0218C166.072 95.8892 164.48 98.5986 162.621 100.944C160.143 104.066 157.506 106.059 154.566 107.006C149.621 108.61 145.004 108.501 140.436 106.678C136.742 105.196 133.729 102.851 130.825 100.579C126.779 97.4201 123.292 94.6985 118.59 94.6985C114.362 94.6985 112.053 96.8733 108.019 101.029C105.48 103.653 102.6 106.618 98.6638 108.78C94.0225 111.332 88.8466 112.267 82.8567 111.611C77.9845 111.077 76.3686 113.312 72.9909 119.837C71.5572 122.595 70.0749 125.45 67.9122 127.819C64.9476 131.003 61.339 132.619 57.1594 132.619Z" fill="white"/>
<path d="M57.1594 127.151C69.8926 127.151 66.7215 104.346 83.4277 106.168C103.159 108.331 103.657 89.231 118.553 89.231C133.085 89.231 137.872 106.678 152.841 101.818C163.606 98.3192 165.379 72.0144 187.128 71.6256C207.516 71.2611 207.346 87.6272 221.415 84.1037C236.907 80.2278 233.019 110.226 247.258 110.226" stroke="#231F20" stroke-width="2.43" stroke-miterlimit="10" stroke-linecap="round" stroke-linejoin="round"/>
<path d="M88.4213 109.193C90.0451 109.193 91.3616 107.877 91.3616 106.253C91.3616 104.629 90.0451 103.313 88.4213 103.313C86.7974 103.313 85.481 104.629 85.481 106.253C85.481 107.877 86.7974 109.193 88.4213 109.193Z" fill="white" stroke="#231F20" stroke-width="0.6075" stroke-miterlimit="10" stroke-linecap="round" stroke-linejoin="round"/>
<path d="M215.996 87.4206C217.62 87.4206 218.936 86.1042 218.936 84.4803C218.936 82.8565 217.62 81.54 215.996 81.54C214.372 81.54 213.056 82.8565 213.056 84.4803C213.056 86.1042 214.372 87.4206 215.996 87.4206Z" fill="white" stroke="#231F20" stroke-width="0.6075" stroke-miterlimit="10" stroke-linecap="round" stroke-linejoin="round"/>
<path d="M120.315 149.884C121.268 149.884 122.04 149.111 122.04 148.158C122.04 147.206 121.268 146.433 120.315 146.433C119.362 146.433 118.59 147.206 118.59 148.158C118.59 149.111 119.362 149.884 120.315 149.884Z" fill="#231F20" stroke="white" stroke-width="0.6075" stroke-miterlimit="10" stroke-linecap="round" stroke-linejoin="round"/>
<path d="M88.4211 149.884C89.374 149.884 90.1464 149.111 90.1464 148.158C90.1464 147.206 89.374 146.433 88.4211 146.433C87.4682 146.433 86.6958 147.206 86.6958 148.158C86.6958 149.111 87.4682 149.884 88.4211 149.884Z" fill="#231F20" stroke="white" stroke-width="0.6075" stroke-miterlimit="10" stroke-linecap="round" stroke-linejoin="round"/>
<path d="M56.5275 149.884C57.4804 149.884 58.2528 149.111 58.2528 148.158C58.2528 147.206 57.4804 146.433 56.5275 146.433C55.5747 146.433 54.8022 147.206 54.8022 148.158C54.8022 149.111 55.5747 149.884 56.5275 149.884Z" fill="#231F20" stroke="white" stroke-width="0.6075" stroke-miterlimit="10" stroke-linecap="round" stroke-linejoin="round"/>
<path d="M215.996 149.884C216.949 149.884 217.722 149.111 217.722 148.158C217.722 147.206 216.949 146.433 215.996 146.433C215.043 146.433 214.271 147.206 214.271 148.158C214.271 149.111 215.043 149.884 215.996 149.884Z" fill="#231F20" stroke="white" stroke-width="0.6075" stroke-miterlimit="10" stroke-linecap="round" stroke-linejoin="round"/>
<path d="M247.89 149.884C248.843 149.884 249.615 149.111 249.615 148.158C249.615 147.206 248.843 146.433 247.89 146.433C246.937 146.433 246.165 147.206 246.165 148.158C246.165 149.111 246.937 149.884 247.89 149.884Z" fill="#231F20" stroke="white" stroke-width="0.6075" stroke-miterlimit="10" stroke-linecap="round" stroke-linejoin="round"/>
<path d="M184.102 149.884C185.055 149.884 185.828 149.111 185.828 148.158C185.828 147.206 185.055 146.433 184.102 146.433C183.15 146.433 182.377 147.206 182.377 148.158C182.377 149.111 183.15 149.884 184.102 149.884Z" fill="#231F20" stroke="white" stroke-width="0.6075" stroke-miterlimit="10" stroke-linecap="round" stroke-linejoin="round"/>
<path d="M152.209 149.884C153.162 149.884 153.934 149.111 153.934 148.158C153.934 147.206 153.162 146.433 152.209 146.433C151.256 146.433 150.483 147.206 150.483 148.158C150.483 149.111 151.256 149.884 152.209 149.884Z" fill="#231F20" stroke="white" stroke-width="0.6075" stroke-miterlimit="10" stroke-linecap="round" stroke-linejoin="round"/>
<path d="M107.205 213.367H100.036C98.469 213.367 97.1568 214.461 96.8287 215.931H92.8557C91.0453 215.931 89.5752 217.401 89.5752 219.212V265.163C89.5752 266.973 91.0453 268.443 92.8557 268.443H100.024H107.193C109.003 268.443 110.473 266.973 110.473 265.163V216.648C110.485 214.838 109.015 213.367 107.205 213.367Z" fill="white"/>
<path d="M141.493 197.913H134.324C132.514 197.913 131.044 199.383 131.044 201.193V209.795H127.156C125.345 209.795 123.875 211.265 123.875 213.076V265.175C123.875 266.985 125.345 268.455 127.156 268.455H134.324H141.493C143.303 268.455 144.773 266.985 144.773 265.175V201.193C144.773 199.383 143.303 197.913 141.493 197.913Z" fill="white"/>
<path d="M175.78 214.85H171.892V210.5C171.892 208.69 170.421 207.219 168.611 207.219H161.443C159.632 207.219 158.162 208.69 158.162 210.5V265.175C158.162 266.985 159.632 268.455 161.443 268.455H168.611H175.78C177.59 268.455 179.06 266.985 179.06 265.175V218.142C179.06 216.32 177.59 214.85 175.78 214.85Z" fill="white"/>
<path d="M210.055 180.295H202.887C201.076 180.295 199.606 181.765 199.606 183.576V195.446H195.718C193.908 195.446 192.438 196.916 192.438 198.727V265.175C192.438 266.985 193.908 268.456 195.718 268.456H202.887H210.055C211.865 268.456 213.336 266.985 213.336 265.175V183.588C213.336 181.765 211.878 180.295 210.055 180.295Z" fill="white"/>
<path d="M244.342 194.972H237.174C235.363 194.972 233.893 196.442 233.893 198.253V200.464H230.005C228.195 200.464 226.725 201.934 226.725 203.744V265.175C226.725 266.985 228.195 268.455 230.005 268.455H237.174H244.342C246.152 268.455 247.623 266.985 247.623 265.175V198.253C247.623 196.442 246.152 194.972 244.342 194.972Z" fill="white"/>
<path d="M100.036 219.212H92.8674V265.163H100.036V219.212Z" fill="#231F20" stroke="#231F20" stroke-width="0.6075" stroke-miterlimit="10" stroke-linecap="round" stroke-linejoin="round"/>
<path d="M107.205 216.648H100.036V265.163H107.205V216.648Z" fill="white" stroke="#231F20" stroke-width="0.6075" stroke-miterlimit="10" stroke-linecap="round" stroke-linejoin="round"/>
<path d="M134.324 213.064H127.156V265.163H134.324V213.064Z" fill="#231F20" stroke="#231F20" stroke-width="0.6075" stroke-miterlimit="10" stroke-linecap="round" stroke-linejoin="round"/>
<path d="M141.493 201.193H134.324V265.175H141.493V201.193Z" fill="white" stroke="#231F20" stroke-width="0.6075" stroke-miterlimit="10" stroke-linecap="round" stroke-linejoin="round"/>
<path d="M168.599 213.781H161.43V265.175H168.599V213.781Z" fill="#231F20" stroke="#231F20" stroke-width="0.6075" stroke-miterlimit="10" stroke-linecap="round" stroke-linejoin="round"/>
<path d="M175.78 218.13H168.611V265.163H175.78V218.13Z" fill="white" stroke="#231F20" stroke-width="0.6075" stroke-miterlimit="10" stroke-linecap="round" stroke-linejoin="round"/>
<path d="M202.886 198.727H195.718V265.175H202.886V198.727Z" fill="#231F20" stroke="#231F20" stroke-width="0.6075" stroke-miterlimit="10" stroke-linecap="round" stroke-linejoin="round"/>
<path d="M210.055 183.576H202.886V265.163H210.055V183.576Z" fill="white" stroke="#231F20" stroke-width="0.6075" stroke-miterlimit="10" stroke-linecap="round" stroke-linejoin="round"/>
<path d="M237.174 203.732H230.005V265.163H237.174V203.732Z" fill="#231F20" stroke="#231F20" stroke-width="0.6075" stroke-miterlimit="10" stroke-linecap="round" stroke-linejoin="round"/>
<path d="M244.342 196.066H237.174V265.175H244.342V196.066Z" fill="white" stroke="#231F20" stroke-width="0.6075" stroke-miterlimit="10" stroke-linecap="round" stroke-linejoin="round"/>
<path d="M72.9299 265.175H264.292" stroke="#231F20" stroke-width="0.6075" stroke-miterlimit="10" stroke-linecap="round" stroke-linejoin="round"/>
<path d="M196.435 172.932H140.788V175.532H196.435V172.932Z" fill="#231F20"/>
<path d="M191.49 178.011H145.721V180.611H191.49V178.011Z" fill="#231F20"/>
<path d="M172.183 55.9158H132.209V58.5159H172.183V55.9158Z" fill="#231F20"/>
<path d="M168.635 60.9944H135.757V63.5945H168.635V60.9944Z" fill="#231F20"/>
<path d="M85.6511 96.7517H68.5925C67.985 96.7517 67.499 96.2657 67.499 95.6582V59.026C67.499 58.4185 67.985 57.9325 68.5925 57.9325H108.238C108.845 57.9325 109.331 58.4185 109.331 59.026V95.6704C109.331 96.2779 108.845 96.7639 108.238 96.7639H91.1794L90.0008 98.4771L88.4092 100.798L86.8175 98.4771L85.6511 96.7517Z" fill="white" stroke="#231F20" stroke-width="0.6075" stroke-miterlimit="10" stroke-linecap="round" stroke-linejoin="round"/>
<path d="M95.2252 63.4H72.9785V68.1385H95.2252V63.4Z" fill="white" stroke="#231F20" stroke-width="0.6075" stroke-miterlimit="10" stroke-linecap="round" stroke-linejoin="round"/>
<path d="M95.2252 71.1031H72.9785V75.8417H95.2252V71.1031Z" fill="#231F20" stroke="#231F20" stroke-width="0.6075" stroke-miterlimit="10" stroke-linecap="round" stroke-linejoin="round"/>
<path d="M95.2252 78.8184H72.9785V83.5569H95.2252V78.8184Z" fill="white" stroke="#231F20" stroke-width="0.6075" stroke-miterlimit="10" stroke-linecap="round" stroke-linejoin="round"/>
<path d="M95.1766 86.5215H72.9299V91.26H95.1766V86.5215Z" fill="#231F20" stroke="#231F20" stroke-width="0.6075" stroke-miterlimit="10" stroke-linecap="round" stroke-linejoin="round"/>
<path d="M97.7036 66.9721L100.778 63.8982L103.864 66.9721H97.7036Z" fill="white" stroke="#231F20" stroke-width="0.6075" stroke-miterlimit="10" stroke-linecap="round" stroke-linejoin="round"/>
<path d="M103.864 72.1481L100.778 75.2342L97.7036 72.1481H103.864Z" fill="#231F20" stroke="#231F20" stroke-width="0.6075" stroke-miterlimit="10" stroke-linecap="round" stroke-linejoin="round"/>
<path d="M103.864 87.5664L100.778 90.6525L97.7036 87.5664H103.864Z" fill="#231F20" stroke="#231F20" stroke-width="0.6075" stroke-miterlimit="10" stroke-linecap="round" stroke-linejoin="round"/>
<path d="M97.7036 82.3905L100.778 79.3165L103.864 82.3905H97.7036Z" fill="white" stroke="#231F20" stroke-width="0.6075" stroke-miterlimit="10" stroke-linecap="round" stroke-linejoin="round"/>
<path d="M213.226 75.3314H196.168C195.56 75.3314 195.074 74.8454 195.074 74.2379V37.5935C195.074 36.986 195.56 36.5 196.168 36.5H235.813C236.421 36.5 236.907 36.986 236.907 37.5935V74.2379C236.907 74.8454 236.421 75.3314 235.813 75.3314H218.755L217.576 77.0446L215.984 79.3652L214.393 77.0446L213.226 75.3314Z" fill="white" stroke="#231F20" stroke-width="0.6075" stroke-miterlimit="10" stroke-linecap="round" stroke-linejoin="round"/>
<path d="M222.8 41.9674H200.554V46.7059H222.8V41.9674Z" fill="white" stroke="#231F20" stroke-width="0.6075" stroke-miterlimit="10" stroke-linecap="round" stroke-linejoin="round"/>
<path d="M222.8 49.6827H200.554V54.4212H222.8V49.6827Z" fill="#231F20" stroke="#231F20" stroke-width="0.6075" stroke-miterlimit="10" stroke-linecap="round" stroke-linejoin="round"/>
<path d="M222.752 65.1011H200.505V69.8396H222.752V65.1011Z" fill="#231F20" stroke="#231F20" stroke-width="0.6075" stroke-miterlimit="10" stroke-linecap="round" stroke-linejoin="round"/>
<path d="M225.279 45.5517L228.353 42.4656L231.439 45.5517H225.279Z" fill="white" stroke="#231F20" stroke-width="0.6075" stroke-miterlimit="10" stroke-linecap="round" stroke-linejoin="round"/>
<path d="M231.439 50.7277L228.353 53.8016L225.279 50.7277H231.439Z" fill="#231F20" stroke="#231F20" stroke-width="0.6075" stroke-miterlimit="10" stroke-linecap="round" stroke-linejoin="round"/>
<path d="M231.439 66.146L228.353 69.2199L225.279 66.146H231.439Z" fill="#231F20" stroke="#231F20" stroke-width="0.6075" stroke-miterlimit="10" stroke-linecap="round" stroke-linejoin="round"/>
<path d="M222.8 57.3857H200.554V62.1242H222.8V57.3857Z" fill="#231F20" stroke="#231F20" stroke-width="0.6075" stroke-miterlimit="10" stroke-linecap="round" stroke-linejoin="round"/>
<path d="M231.439 58.4308L228.353 61.5169L225.279 58.4308H231.439Z" fill="#231F20" stroke="#231F20" stroke-width="0.6075" stroke-miterlimit="10" stroke-linecap="round" stroke-linejoin="round"/>
<path d="M188.513 272.465H205.571C206.179 272.465 206.665 272.951 206.665 273.558V292.707C206.665 293.314 206.179 293.8 205.571 293.8H165.926C165.319 293.8 164.833 293.314 164.833 292.707V273.558C164.833 272.951 165.319 272.465 165.926 272.465H182.985L184.163 270.752L185.755 268.431L187.346 270.752L188.513 272.465Z" fill="white" stroke="#231F20" stroke-width="0.6075" stroke-miterlimit="10" stroke-linecap="round" stroke-linejoin="round"/>
<path d="M176.302 276.329H170.92V281.711H176.302V276.329Z" fill="#231F20" stroke="#231F20" stroke-width="0.6075" stroke-miterlimit="10" stroke-linecap="round" stroke-linejoin="round"/>
<path d="M176.302 284.542H170.919V289.924H176.302V284.542Z" fill="white" stroke="#231F20" stroke-width="0.6075" stroke-miterlimit="10" stroke-linecap="round" stroke-linejoin="round"/>
<path d="M200.565 277.714H178.598V280.314H200.565V277.714Z" fill="#231F20"/>
<path d="M196.532 285.939H178.598V288.539H196.532V285.939Z" fill="#231F20"/>
</g>
<defs>
<clipPath id="clip0_3153_8759">
<rect width="317.25" height="317.25" fill="white" transform="translate(3.125 3.125)"/>
</clipPath>
</defs>
</svg>
