<svg width="327" height="327" viewBox="0 0 327 327" fill="none" xmlns="http://www.w3.org/2000/svg">
<rect x="0.75" y="0.75" width="326.25" height="326.25" rx="19.9745" fill="#E7E7E7"/>
<path d="M163.876 304.369C241.469 304.369 304.371 241.467 304.371 163.875C304.371 86.2818 241.469 23.3804 163.876 23.3804C86.2836 23.3804 23.3822 86.2818 23.3822 163.875C23.3822 241.467 86.2836 304.369 163.876 304.369Z" fill="#F0F0F0"/>
<path d="M163.876 285.19C230.876 285.19 285.191 230.875 285.191 163.875C285.191 96.8744 230.876 42.5598 163.876 42.5598C96.8757 42.5598 42.5612 96.8744 42.5612 163.875C42.5612 230.875 96.8757 285.19 163.876 285.19Z" fill="#F0F0F0" stroke="#231F20" stroke-width="0.641878" stroke-miterlimit="10" stroke-linecap="round" stroke-linejoin="round"/>
<path d="M163.876 274.188C224.801 274.188 274.19 224.799 274.19 163.875C274.19 102.951 224.801 53.5616 163.876 53.5616C102.952 53.5616 53.5632 102.951 53.5632 163.875C53.5632 224.799 102.952 274.188 163.876 274.188Z" stroke="#231F20" stroke-width="0.641878" stroke-miterlimit="10" stroke-linecap="round" stroke-linejoin="round"/>
<path d="M163.876 263.186C218.725 263.186 263.188 218.723 263.188 163.875C263.188 109.027 218.725 64.5636 163.876 64.5636C109.028 64.5636 64.5651 109.027 64.5651 163.875C64.5651 218.723 109.028 263.186 163.876 263.186Z" stroke="#231F20" stroke-width="0.641878" stroke-miterlimit="10" stroke-linecap="round" stroke-linejoin="round"/>
<path d="M163.876 252.184C212.648 252.184 252.186 212.647 252.186 163.875C252.186 115.103 212.648 75.5652 163.876 75.5652C115.104 75.5652 75.5665 115.103 75.5665 163.875C75.5665 212.647 115.104 252.184 163.876 252.184Z" stroke="#231F20" stroke-width="0.641878" stroke-miterlimit="10" stroke-linecap="round" stroke-linejoin="round"/>
<path d="M163.877 241.182C206.573 241.182 241.184 206.571 241.184 163.875C241.184 121.179 206.573 86.5669 163.877 86.5669C121.181 86.5669 86.569 121.179 86.569 163.875C86.569 206.571 121.181 241.182 163.877 241.182Z" stroke="#231F20" stroke-width="0.641878" stroke-miterlimit="10" stroke-linecap="round" stroke-linejoin="round"/>
<path d="M163.877 230.181C200.497 230.181 230.183 200.495 230.183 163.875C230.183 127.255 200.497 97.5688 163.877 97.5688C127.257 97.5688 97.5709 127.255 97.5709 163.875C97.5709 200.495 127.257 230.181 163.877 230.181Z" stroke="#231F20" stroke-width="0.641878" stroke-miterlimit="10" stroke-linecap="round" stroke-linejoin="round"/>
<path d="M163.876 219.179C194.42 219.179 219.181 194.419 219.181 163.875C219.181 133.331 194.42 108.571 163.876 108.571C133.333 108.571 108.572 133.331 108.572 163.875C108.572 194.419 133.333 219.179 163.876 219.179Z" stroke="#231F20" stroke-width="0.641878" stroke-miterlimit="10" stroke-linecap="round" stroke-linejoin="round"/>
<path d="M163.876 208.177C188.344 208.177 208.179 188.342 208.179 163.875C208.179 139.407 188.344 119.573 163.876 119.573C139.409 119.573 119.574 139.407 119.574 163.875C119.574 188.342 139.409 208.177 163.876 208.177Z" stroke="#231F20" stroke-width="0.641878" stroke-miterlimit="10" stroke-linecap="round" stroke-linejoin="round"/>
<path d="M163.876 197.175C182.268 197.175 197.177 182.266 197.177 163.875C197.177 145.483 182.268 130.574 163.876 130.574C145.485 130.574 130.576 145.483 130.576 163.875C130.576 182.266 145.485 197.175 163.876 197.175Z" stroke="#231F20" stroke-width="0.641878" stroke-miterlimit="10" stroke-linecap="round" stroke-linejoin="round"/>
<path d="M163.877 186.174C176.192 186.174 186.176 176.19 186.176 163.875C186.176 151.56 176.192 141.576 163.877 141.576C151.561 141.576 141.578 151.56 141.578 163.875C141.578 176.19 151.561 186.174 163.877 186.174Z" stroke="#231F20" stroke-width="0.641878" stroke-miterlimit="10" stroke-linecap="round" stroke-linejoin="round"/>
<path d="M163.877 175.172C170.116 175.172 175.174 170.114 175.174 163.875C175.174 157.636 170.116 152.578 163.877 152.578C157.637 152.578 152.579 157.636 152.579 163.875C152.579 170.114 157.637 175.172 163.877 175.172Z" stroke="#231F20" stroke-width="0.641878" stroke-miterlimit="10" stroke-linecap="round" stroke-linejoin="round"/>
<path d="M163.876 31.8279V295.922" stroke="#231F20" stroke-width="0.641878" stroke-miterlimit="10" stroke-linecap="round" stroke-linejoin="round"/>
<path d="M295.923 163.875H31.829" stroke="#231F20" stroke-width="0.641878" stroke-miterlimit="10" stroke-linecap="round" stroke-linejoin="round"/>
<path d="M257.244 70.5074L70.5085 257.243" stroke="#231F20" stroke-width="0.641878" stroke-miterlimit="10" stroke-linecap="round" stroke-linejoin="round"/>
<path d="M257.244 257.243L70.5085 70.5074" stroke="#231F20" stroke-width="0.641878" stroke-miterlimit="10" stroke-linecap="round" stroke-linejoin="round"/>
<path d="M113.347 41.8796L214.404 285.87" stroke="#231F20" stroke-width="0.641878" stroke-miterlimit="10" stroke-linecap="round" stroke-linejoin="round"/>
<path d="M285.871 113.346L41.8807 214.403" stroke="#231F20" stroke-width="0.641878" stroke-miterlimit="10" stroke-linecap="round" stroke-linejoin="round"/>
<path d="M214.404 41.8796L113.347 285.87" stroke="#231F20" stroke-width="0.641878" stroke-miterlimit="10" stroke-linecap="round" stroke-linejoin="round"/>
<path d="M285.871 214.403L41.8807 113.346" stroke="#231F20" stroke-width="0.641878" stroke-miterlimit="10" stroke-linecap="round" stroke-linejoin="round"/>
<path d="M278.118 116.556C275.011 109.071 271.147 101.857 266.628 95.117C262.148 88.4415 256.987 82.1639 251.3 76.4641C245.6 70.7642 239.336 65.6163 232.647 61.136C225.895 56.6172 218.68 52.7403 211.209 49.6464C210.926 49.5309 210.618 49.4667 210.323 49.4667C210.027 49.4667 209.719 49.5309 209.437 49.6464C208.872 49.8775 208.423 50.3268 208.192 50.8916L187.998 99.6358C180.296 96.7474 172.195 95.2711 163.889 95.2711C155.583 95.2711 147.47 96.7346 139.78 99.6358L132.232 81.3937C132.001 80.8288 131.551 80.3795 130.987 80.1484C130.704 80.0329 130.409 79.9687 130.101 79.9687C129.806 79.9687 129.497 80.0329 129.215 80.1484C118.188 84.7186 108.303 91.33 99.8299 99.8156C91.3571 108.301 84.7072 118.16 80.137 129.188C79.906 129.753 79.906 130.395 80.137 130.959C80.3681 131.524 80.8174 131.974 81.3823 132.205L130.152 152.411C128.894 156.095 128.265 159.934 128.265 163.875C128.265 167.816 128.907 171.655 130.152 175.339L71.2149 199.756C70.6501 199.987 70.2008 200.436 69.9697 201.001C69.7386 201.566 69.7386 202.208 69.9697 202.773C75.0919 215.135 82.512 226.227 92.0246 235.727C101.537 245.239 112.616 252.647 124.979 257.782C125.261 257.897 125.569 257.961 125.864 257.961C126.16 257.961 126.468 257.897 126.75 257.782C127.315 257.551 127.764 257.101 127.995 256.536L143.978 217.96C150.333 220.309 157.021 221.49 163.876 221.49C170.732 221.49 177.42 220.309 183.775 217.96L191.336 236.202C191.567 236.767 192.016 237.216 192.581 237.447C192.864 237.563 193.159 237.627 193.467 237.627C193.762 237.627 194.07 237.563 194.353 237.447C204.032 233.429 212.723 227.613 220.169 220.168C227.615 212.722 233.43 204.031 237.448 194.351C237.68 193.787 237.68 193.145 237.448 192.58C237.217 192.015 236.768 191.566 236.203 191.335L207.781 179.562C209.578 174.543 210.49 169.28 210.49 163.875C210.49 158.47 209.578 153.207 207.781 148.188L276.873 119.573C277.437 119.342 277.887 118.892 278.118 118.327C278.349 117.762 278.362 117.121 278.118 116.556Z" fill="#F0F0F0"/>
<path d="M210.309 51.7648C239.964 64.0632 263.688 87.787 275.986 117.442L163.876 163.875L210.309 51.7648Z" fill="#231F20" stroke="#231F20" stroke-width="0.641878" stroke-miterlimit="10" stroke-linecap="round" stroke-linejoin="round"/>
<path d="M72.1002 201.887C82.1649 226.163 101.588 245.586 125.864 255.651L163.876 163.875L72.1002 201.887Z" fill="#231F20" stroke="#231F20" stroke-width="0.641878" stroke-miterlimit="10" stroke-linecap="round" stroke-linejoin="round"/>
<path d="M82.2681 130.074C91.2158 108.481 108.482 91.2146 130.075 82.2668L163.876 163.875L82.2681 130.074Z" fill="#F0F0F0" stroke="#231F20" stroke-width="0.641878" stroke-miterlimit="10" stroke-linecap="round" stroke-linejoin="round"/>
<path d="M193.467 235.316C212.363 227.485 227.473 212.362 235.317 193.466L163.876 163.875L193.467 235.316Z" fill="#F0F0F0" stroke="#231F20" stroke-width="0.641878" stroke-miterlimit="10" stroke-linecap="round" stroke-linejoin="round"/>
<path d="M142.707 214.981C149.228 217.69 156.379 219.179 163.876 219.179C171.373 219.179 178.524 217.69 185.045 214.981L163.876 163.875L142.707 214.981Z" fill="#F0F0F0" stroke="#231F20" stroke-width="0.641878" stroke-miterlimit="10" stroke-linecap="round" stroke-linejoin="round"/>
<path d="M163.876 163.875L189.256 102.602C181.438 99.3536 172.862 97.5692 163.876 97.5692C154.89 97.5692 146.314 99.3536 138.496 102.602L163.876 163.875Z" fill="#F0F0F0" stroke="#231F20" stroke-width="0.641878" stroke-miterlimit="10" stroke-linecap="round" stroke-linejoin="round"/>
<path d="M204.815 146.917C206.984 152.141 208.178 157.867 208.178 163.875C208.178 169.883 206.984 175.608 204.815 180.833L163.876 163.875L204.815 146.917Z" fill="#F0F0F0" stroke="#231F20" stroke-width="0.641878" stroke-miterlimit="10" stroke-linecap="round" stroke-linejoin="round"/>
<path d="M133.104 176.623C131.474 172.695 130.575 168.394 130.575 163.875C130.575 159.356 131.474 155.056 133.104 151.127L163.876 163.875L133.104 176.623Z" fill="#F0F0F0" stroke="#231F20" stroke-width="0.641878" stroke-miterlimit="10" stroke-linecap="round" stroke-linejoin="round"/>
<path d="M219 107.056H254.329L255.574 108.866L257.256 111.318L258.938 108.866L260.183 107.056H295.512C296.154 107.056 296.667 106.542 296.667 105.901V66.2325C296.667 65.5907 296.154 65.0771 295.512 65.0771H219C218.358 65.0771 217.845 65.5907 217.845 66.2325V105.901C217.845 106.53 218.358 107.056 219 107.056Z" fill="#F0F0F0" stroke="#231F20" stroke-width="0.641878" stroke-miterlimit="10" stroke-linecap="round" stroke-linejoin="round"/>
<path d="M238.397 97.7745C244.573 97.7745 249.579 92.7684 249.579 86.593C249.579 80.4176 244.573 75.4115 238.397 75.4115C232.222 75.4115 227.216 80.4176 227.216 86.593C227.216 92.7684 232.222 97.7745 238.397 97.7745Z" fill="#231F20"/>
<path d="M286.821 80.9187H254.393V83.8457H286.821V80.9187Z" fill="#231F20"/>
<path d="M254.817 88.6598H283.111" stroke="#231F20" stroke-width="0.641878" stroke-miterlimit="10" stroke-linecap="round" stroke-linejoin="round"/>
<path d="M254.817 92.2672H280.466" stroke="#231F20" stroke-width="0.641878" stroke-miterlimit="10" stroke-linecap="round" stroke-linejoin="round"/>
<path d="M117.134 125.555C116.569 125.555 116.03 125.272 115.709 124.797L113.295 121.306H78.8777C77.2859 121.306 75.9893 120.009 75.9893 118.417V78.7492C75.9893 77.1573 77.2859 75.8607 78.8777 75.8607H155.39C156.981 75.8607 158.278 77.1573 158.278 78.7492V118.417C158.278 120.009 156.981 121.306 155.39 121.306H120.972L118.559 124.81C118.238 125.272 117.698 125.555 117.134 125.555Z" fill="#F0F0F0"/>
<path d="M78.8777 119.573H114.207L115.452 121.383L117.134 123.835L118.815 121.383L120.061 119.573H155.39C156.031 119.573 156.545 119.059 156.545 118.417V78.7491C156.545 78.1073 156.031 77.5938 155.39 77.5938H78.8777C78.2358 77.5938 77.7223 78.1073 77.7223 78.7491V118.417C77.7223 119.046 78.2358 119.573 78.8777 119.573Z" fill="#F0F0F0" stroke="#231F20" stroke-width="0.641878" stroke-miterlimit="10" stroke-linecap="round" stroke-linejoin="round"/>
<path d="M98.2877 110.291C104.463 110.291 109.469 105.285 109.469 99.1095C109.469 92.9341 104.463 87.928 98.2877 87.928C92.1123 87.928 87.1062 92.9341 87.1062 99.1095C87.1062 105.285 92.1123 110.291 98.2877 110.291Z" fill="#F0F0F0" stroke="#231F20" stroke-width="0.641878" stroke-miterlimit="10" stroke-linecap="round" stroke-linejoin="round"/>
<path d="M146.711 93.4353H114.284V96.3623H146.711V93.4353Z" fill="#231F20"/>
<path d="M114.707 101.189H142.988" stroke="#231F20" stroke-width="0.641878" stroke-miterlimit="10" stroke-linecap="round" stroke-linejoin="round"/>
<path d="M114.707 104.784H140.357" stroke="#231F20" stroke-width="0.641878" stroke-miterlimit="10" stroke-linecap="round" stroke-linejoin="round"/>
<path d="M208.178 209.577C208.743 209.577 209.282 209.859 209.603 210.334L212.004 213.839H246.421C248.013 213.839 249.31 215.135 249.31 216.727V256.395C249.31 257.987 248.013 259.284 246.421 259.284H169.909C168.317 259.284 167.021 257.987 167.021 256.395V216.727C167.021 215.135 168.317 213.839 169.909 213.839H204.327L206.727 210.334C207.074 209.859 207.6 209.577 208.178 209.577Z" fill="#F0F0F0"/>
<path d="M246.421 215.572H211.092L209.847 213.762L208.165 211.31L206.483 213.762L205.238 215.572H169.909C169.267 215.572 168.754 216.085 168.754 216.727V256.395C168.754 257.037 169.267 257.55 169.909 257.55H246.421C247.063 257.55 247.576 257.037 247.576 256.395V216.727C247.576 216.085 247.063 215.572 246.421 215.572Z" fill="#F0F0F0" stroke="#231F20" stroke-width="0.641878" stroke-miterlimit="10" stroke-linecap="round" stroke-linejoin="round"/>
<path d="M189.781 247.781C195.957 247.781 200.963 242.775 200.963 236.6C200.963 230.424 195.957 225.418 189.781 225.418C183.606 225.418 178.6 230.424 178.6 236.6C178.6 242.775 183.606 247.781 189.781 247.781Z" fill="#F0F0F0" stroke="#231F20" stroke-width="0.641878" stroke-miterlimit="10" stroke-linecap="round" stroke-linejoin="round"/>
<path d="M238.205 230.925H205.777V233.852H238.205V230.925Z" fill="#231F20"/>
<path d="M206.2 238.679H234.494" stroke="#231F20" stroke-width="0.641878" stroke-miterlimit="10" stroke-linecap="round" stroke-linejoin="round"/>
<path d="M206.2 242.287H231.85" stroke="#231F20" stroke-width="0.641878" stroke-miterlimit="10" stroke-linecap="round" stroke-linejoin="round"/>
<path d="M52.6504 262.313L48.0931 263.687C47.6566 263.815 47.31 264.162 47.1688 264.611L45.7952 269.169C45.5641 269.952 44.4472 269.952 44.2161 269.169L42.8425 264.611C42.7141 264.175 42.3675 263.828 41.9182 263.687L37.3609 262.313C36.5778 262.082 36.5778 260.966 37.3609 260.734L41.9182 259.361C42.3547 259.232 42.7013 258.886 42.8297 258.449L44.2033 253.892C44.4344 253.109 45.5512 253.109 45.7823 253.892L47.1559 258.449C47.2843 258.886 47.6309 259.232 48.0802 259.374L52.6376 260.747C53.4335 260.966 53.4335 262.082 52.6504 262.313Z" fill="#231F20"/>
<path d="M265.972 40.4932L262.789 41.456C262.48 41.5459 262.237 41.7898 262.147 42.0979L261.184 45.2816C261.017 45.8336 260.247 45.8336 260.08 45.2816L259.117 42.0979C259.027 41.7898 258.783 41.5459 258.475 41.456L255.291 40.4932C254.739 40.3263 254.739 39.5561 255.291 39.3892L258.475 38.4264C258.783 38.3365 259.027 38.0926 259.117 37.7845L260.08 34.6008C260.247 34.0488 261.017 34.0488 261.184 34.6008L262.147 37.7845C262.237 38.0926 262.48 38.3365 262.789 38.4264L265.972 39.3892C266.511 39.5561 266.511 40.3392 265.972 40.4932Z" fill="#231F20"/>
<path d="M284.908 282.096L282.674 282.764C282.456 282.828 282.289 282.995 282.225 283.213L281.558 285.447C281.442 285.832 280.903 285.832 280.787 285.447L280.12 283.213C280.056 282.995 279.889 282.828 279.67 282.764L277.437 282.096C277.052 281.981 277.052 281.441 277.437 281.326L279.67 280.645C279.889 280.581 280.056 280.414 280.12 280.196L280.8 277.962C280.916 277.577 281.455 277.577 281.57 277.962L282.238 280.196C282.302 280.414 282.469 280.581 282.687 280.645L284.921 281.313C285.28 281.441 285.28 281.981 284.908 282.096Z" fill="#231F20"/>
<path d="M288.338 188.919C291.572 181.11 287.865 172.159 280.056 168.924C272.248 165.69 263.297 169.398 260.062 177.206C256.828 185.014 260.536 193.966 268.344 197.2C276.152 200.435 285.104 196.727 288.338 188.919Z" fill="#F0F0F0"/>
<path d="M274.188 196.637C281.682 196.637 287.758 190.561 287.758 183.067C287.758 175.573 281.682 169.498 274.188 169.498C266.694 169.498 260.619 175.573 260.619 183.067C260.619 190.561 266.694 196.637 274.188 196.637Z" fill="#F0F0F0" stroke="#231F20" stroke-width="0.641878" stroke-miterlimit="10" stroke-linecap="round" stroke-linejoin="round"/>
<path d="M287.745 183.594C287.553 188.575 284.677 192.875 280.518 195.071" stroke="#231F20" stroke-width="0.641878" stroke-miterlimit="10"/>
<path d="M267.86 171.064C269.747 170.063 271.904 169.498 274.189 169.498C276.846 169.498 279.324 170.268 281.416 171.591" stroke="#231F20" stroke-width="0.641878" stroke-miterlimit="10"/>
<path d="M266.961 194.544C263.162 192.144 260.633 187.894 260.633 183.067C260.633 182.888 260.633 182.721 260.645 182.541" stroke="#231F20" stroke-width="0.641878" stroke-miterlimit="10"/>
<path d="M287.746 183.594C287.746 183.594 279.645 176.687 274.189 183.067C271.391 175.159 281.417 171.591 281.417 171.591C285.217 173.991 287.746 178.24 287.746 183.067C287.758 183.234 287.746 183.414 287.746 183.594Z" fill="#231F20" stroke="#231F20" stroke-width="0.641878" stroke-miterlimit="10" stroke-linecap="round" stroke-linejoin="round"/>
<path d="M260.633 182.541C260.633 182.541 268.733 189.448 274.189 183.067C265.934 181.54 267.86 171.064 267.86 171.064C263.701 173.259 260.825 177.56 260.633 182.541Z" fill="#231F20" stroke="#231F20" stroke-width="0.641878" stroke-miterlimit="10" stroke-linecap="round" stroke-linejoin="round"/>
<path d="M280.518 195.07C278.631 196.072 276.474 196.636 274.189 196.636C271.532 196.636 269.054 195.866 266.962 194.544C266.962 194.544 277.001 190.975 274.189 183.067C282.444 184.595 280.518 195.07 280.518 195.07Z" fill="#231F20" stroke="#231F20" stroke-width="0.641878" stroke-miterlimit="10" stroke-linecap="round" stroke-linejoin="round"/>
</svg>
