<svg width="545" height="447" viewBox="0 0 545 447" fill="none" xmlns="http://www.w3.org/2000/svg">
<path d="M545 382.4H0V382.65H545V382.4Z" fill="#EBEBEB"/>
<path d="M490.391 391.92H391.31V392.17H490.391V391.92Z" fill="#EBEBEB"/>
<path d="M361.03 389.21H333.9V389.46H361.03V389.21Z" fill="#EBEBEB"/>
<path d="M423.04 401.21H380.977V401.46H423.04V401.21Z" fill="#EBEBEB"/>
<path d="M81.859 399.53H57.1814V399.78H81.859V399.53Z" fill="#EBEBEB"/>
<path d="M120.87 399.53H91.56V399.78H120.87V399.53Z" fill="#EBEBEB"/>
<path d="M245.414 395.31H194.358V395.56H245.414V395.31Z" fill="#EBEBEB"/>
<path d="M258.33 337.8H47.8619C46.2131 337.797 44.6329 337.195 43.468 336.124C42.3032 335.053 41.6489 333.603 41.6489 332.09V60.66C41.6633 59.156 42.3238 57.718 43.4871 56.6582C44.6505 55.5985 46.2225 55.0026 47.8619 55H258.33C259.981 55 261.564 55.6016 262.731 56.6724C263.898 57.7433 264.554 59.1956 264.554 60.71V332.09C264.554 333.604 263.898 335.057 262.731 336.128C261.564 337.198 259.981 337.8 258.33 337.8ZM47.8619 55.2C46.2854 55.2026 44.7744 55.7791 43.6607 56.8027C42.5469 57.8264 41.9214 59.2136 41.9214 60.66V332.09C41.9214 333.536 42.5469 334.924 43.6607 335.947C44.7744 336.971 46.2854 337.547 47.8619 337.55H258.33C259.908 337.547 261.42 336.971 262.535 335.948C263.651 334.924 264.279 333.537 264.281 332.09V60.66C264.279 59.2127 263.651 57.8255 262.535 56.8021C261.42 55.7787 259.908 55.2026 258.33 55.2H47.8619Z" fill="#EBEBEB"/>
<path d="M494.108 337.8H283.629C281.979 337.797 280.398 337.195 279.231 336.125C278.065 335.054 277.408 333.604 277.405 332.09V60.66C277.422 59.1551 278.085 57.7171 279.25 56.6576C280.415 55.5981 281.989 55.0025 283.629 55H494.108C495.745 55.0052 497.315 55.6022 498.476 56.6617C499.637 57.7212 500.296 59.1578 500.31 60.66V332.09C500.31 333.601 499.657 335.05 498.495 336.121C497.332 337.191 495.755 337.795 494.108 337.8ZM283.629 55.2C282.051 55.2026 280.539 55.7787 279.424 56.8021C278.308 57.8255 277.68 59.2127 277.678 60.66V332.09C277.68 333.537 278.308 334.924 279.424 335.948C280.539 336.971 282.051 337.547 283.629 337.55H494.108C495.685 337.547 497.198 336.971 498.313 335.948C499.428 334.924 500.056 333.537 500.059 332.09V60.66C500.056 59.2127 499.428 57.8255 498.313 56.8021C497.198 55.7787 495.685 55.2026 494.108 55.2H283.629Z" fill="#EBEBEB"/>
<path d="M464.558 376.72H484.995V272.7H464.558V376.72Z" fill="#F0F0F0"/>
<path d="M255.954 382.4H481.072V376.71H255.954V382.4Z" fill="#F0F0F0"/>
<path d="M464.558 272.69H252.03V376.71H464.558V272.69Z" fill="#F5F5F5"/>
<path d="M466.683 272.69H487.568V267.73H466.683V272.69Z" fill="#F0F0F0"/>
<path d="M466.684 267.73H249.457V272.69H466.684V267.73Z" fill="#FAFAFA"/>
<path d="M457.222 310.23H259.42V283.11H457.222V310.23ZM260.75 309H455.86V284.4H260.75V309Z" fill="#E0E0E0"/>
<path d="M457.222 366.3H259.42V317.75H457.222V366.3ZM260.75 365H455.86V319H260.75V365Z" fill="#E0E0E0"/>
<path d="M287.836 287.77H428.752C429.751 287.77 430.561 287.027 430.561 286.11V285.39C430.561 284.473 429.751 283.73 428.752 283.73H287.836C286.837 283.73 286.027 284.473 286.027 285.39V286.11C286.027 287.027 286.837 287.77 287.836 287.77Z" fill="#E0E0E0"/>
<path d="M287.836 322.42H428.752C429.751 322.42 430.561 321.677 430.561 320.76V320.04C430.561 319.123 429.751 318.38 428.752 318.38H287.836C286.837 318.38 286.027 319.123 286.027 320.04V320.76C286.027 321.677 286.837 322.42 287.836 322.42Z" fill="#E0E0E0"/>
<path d="M62.239 382.4H70.7301L70.7301 250H62.239L62.239 382.4Z" fill="#E6E6E6"/>
<path d="M59.5685 382.4H65.4654L65.4654 250H59.5685L59.5685 382.4Z" fill="#F0F0F0"/>
<path d="M158.758 250H57.7373V259.57H158.758V250Z" fill="#F0F0F0"/>
<path d="M162.563 382.4H171.054L171.054 259.58H162.563L162.563 382.4Z" fill="#E6E6E6"/>
<path d="M159.892 382.4H165.789L165.789 259.58H159.892L159.892 382.4Z" fill="#F0F0F0"/>
<path d="M216.31 382.4H224.802L224.802 259.58H216.31L216.31 382.4Z" fill="#E6E6E6"/>
<path d="M213.618 382.4H219.515L219.515 259.58H213.618L213.618 382.4Z" fill="#F0F0F0"/>
<path d="M115.987 382.4H124.478L124.478 259.58H115.987L115.987 382.4Z" fill="#E6E6E6"/>
<path d="M113.305 382.4H119.202L119.202 259.58H113.305L113.305 382.4Z" fill="#F0F0F0"/>
<path d="M158.769 259.57H224.802V250H158.769V259.57Z" fill="#E6E6E6"/>
<path d="M150.202 175.97H68.5719L75.7986 118H142.975L150.202 175.97Z" fill="#EBEBEB"/>
<path d="M113.829 175.97H104.945V250H113.829V175.97Z" fill="#F5F5F5"/>
<path d="M127.53 250H91.2766C91.2766 249.061 91.6831 248.161 92.4068 247.497C93.1304 246.833 94.1118 246.46 95.1352 246.46H123.639C124.148 246.456 124.653 246.545 125.125 246.721C125.597 246.897 126.027 247.157 126.388 247.486C126.75 247.815 127.037 248.207 127.233 248.638C127.429 249.07 127.53 249.533 127.53 250Z" fill="#F0F0F0"/>
<path d="M113.829 182.38L104.945 178.49V175.97H113.829V182.38Z" fill="#E0E0E0"/>
<path d="M147.575 249.79H185.91L190.652 202.02H152.317L147.575 249.79Z" fill="#E6E6E6"/>
<path d="M145.591 249.79H183.927L188.668 202.02H150.333L145.591 249.79Z" fill="#F0F0F0"/>
<path d="M178.684 244.5L182.379 207.31H155.576L151.881 244.5H178.684Z" fill="white"/>
<path d="M463.021 215.53H385.206L370.066 265H447.881L463.021 215.53Z" fill="#E6E6E6"/>
<path d="M447.881 265L447.576 267.73H369.739L370.055 265H447.881Z" fill="#E6E6E6"/>
<path d="M460.634 215.53H382.808L367.668 265H445.494L460.634 215.53Z" fill="#F0F0F0"/>
<path d="M444.611 261.77L457.135 218.93C457.31 218.32 456.972 217.79 456.405 217.79H384.857C384.571 217.821 384.303 217.934 384.091 218.114C383.88 218.294 383.736 218.53 383.68 218.79L371.167 261.6C370.981 262.21 371.319 262.74 371.886 262.74H443.434C443.717 262.714 443.983 262.606 444.195 262.431C444.407 262.257 444.552 262.025 444.611 261.77Z" fill="white"/>
<path d="M425.209 265L424.893 267.73H339.197L339.513 265H425.209Z" fill="#F0F0F0"/>
<path d="M479.142 86.44H290.332V193.35H479.142V86.44Z" fill="#F0F0F0"/>
<path d="M473.779 91.36H295.695V188.44H473.779V91.36Z" fill="white"/>
<path d="M479.142 193.36H481.072V86.45H479.142V193.36Z" fill="#E6E6E6"/>
<path d="M272.5 427.56C389.22 427.56 483.84 422.492 483.84 416.24C483.84 409.988 389.22 404.92 272.5 404.92C155.78 404.92 61.1599 409.988 61.1599 416.24C61.1599 422.492 155.78 427.56 272.5 427.56Z" fill="#F5F5F5"/>
<path d="M229.369 70C234.455 65.8467 241.043 63.1267 249.13 61.84C257.218 60.5533 265.767 61.37 274.778 64.29C283.76 67.21 291.975 72.4833 299.423 80.11C306.348 87.2033 311.028 94.6333 313.462 102.4C315.89 109.582 316.113 117.239 314.105 124.53C312.198 131.288 308.137 137.37 302.442 142C298.389 145.486 293.445 147.979 288.065 149.25C283.261 150.348 278.303 150.766 273.361 150.49C268.616 150.21 260.383 149.467 248.662 148.26C245.918 147.986 243.16 147.846 240.399 147.84C238.509 147.829 236.624 148.027 234.786 148.43C233.328 148.771 231.911 149.247 230.557 149.85C229.249 150.44 227.036 151.53 223.897 153.14C217.444 156.76 211.834 156.127 207.067 151.24C205.883 150.085 204.96 148.725 204.352 147.24C203.744 145.756 203.463 144.175 203.525 142.59C203.648 139.37 205.494 136.293 209.062 133.36C216.329 126.971 226.064 123.49 236.127 123.68C241.855 123.855 247.57 124.296 253.251 125C259.289 125.67 263.747 126.09 266.625 126.23C269.482 126.38 272.347 126.161 275.138 125.58C277.921 125.014 280.495 123.79 282.604 122.03C284.668 120.386 286.321 118.354 287.449 116.07C288.578 113.787 289.156 111.307 289.144 108.8C289.231 103.467 287.051 98.51 282.604 93.93C277.35 88.55 272.006 85.8067 266.57 85.7C261.135 85.5933 254.664 87.0267 247.157 90C239.52 93.2867 233.434 92.62 228.9 88C227.61 86.7309 226.622 85.2286 226.001 83.5893C225.38 81.95 225.138 80.2098 225.292 78.48C225.325 76.8892 225.702 75.3202 226.402 73.8644C227.102 72.4085 228.11 71.0949 229.369 70ZM176.678 177.69C173.83 174.851 172.24 171.138 172.22 167.28C172.155 163.333 174.011 159.803 177.79 156.69C179.345 155.37 181.181 154.361 183.183 153.726C185.185 153.091 187.309 152.844 189.42 153C191.559 153.119 193.649 153.631 195.567 154.508C197.485 155.384 199.19 156.606 200.582 158.1C202.013 159.521 203.118 161.192 203.831 163.012C204.545 164.833 204.852 166.767 204.735 168.699C204.618 170.63 204.079 172.521 203.151 174.258C202.222 175.995 200.922 177.543 199.328 178.81C195.6 181.87 191.604 183.177 187.338 182.73C183.217 182.349 179.407 180.548 176.678 177.69Z" fill="#407BFF"/>
<g opacity="0.5">
<path d="M326.836 137.05C328.367 133.714 330.905 130.848 334.15 128.79C337.965 126.297 342.419 124.753 347.078 124.31C352.505 123.774 357.992 124.511 363.024 126.45C367.778 128.064 372.072 130.645 375.581 134C378.623 136.903 380.734 140.519 381.685 144.45C382.562 148.124 382.22 151.955 380.704 155.45C379.676 158.013 377.959 160.297 375.712 162.09C373.7 163.676 371.436 164.971 368.998 165.93C366.658 166.843 362.519 168.303 356.583 170.31C355.194 170.777 353.837 171.318 352.517 171.93C351.609 172.339 350.759 172.849 349.988 173.45C349.375 173.931 348.82 174.471 348.331 175.06C347.863 175.63 347.089 176.64 346.01 178.06C343.83 181.22 340.977 182.153 337.453 180.86C336.583 180.567 335.785 180.12 335.104 179.543C334.423 178.967 333.873 178.272 333.485 177.5C333.097 176.596 332.917 175.628 332.958 174.657C333 173.686 333.261 172.733 333.725 171.86C335.532 167.2 339.28 163.388 344.146 161.26C346.931 160.07 349.779 159.008 352.68 158.08C355.743 157.08 357.989 156.29 359.406 155.73C360.811 155.17 362.125 154.433 363.308 153.54C364.492 152.653 365.405 151.498 365.957 150.19C366.515 148.949 366.774 147.612 366.715 146.271C366.657 144.93 366.283 143.616 365.619 142.42C364.16 139.788 361.649 137.774 358.61 136.8C354.686 135.38 351.416 135.243 348.8 136.39C345.623 137.941 342.844 140.096 340.647 142.71C337.842 145.97 334.746 146.97 331.36 145.71C330.41 145.384 329.545 144.881 328.819 144.232C328.093 143.583 327.522 142.802 327.142 141.94C326.74 141.184 326.506 140.363 326.454 139.523C326.401 138.684 326.531 137.843 326.836 137.05ZM329.812 200.25C327.706 199.518 325.973 198.091 324.951 196.25C324.427 195.282 324.144 194.219 324.122 193.138C324.099 192.058 324.337 190.986 324.82 190C325.213 189.022 325.824 188.13 326.614 187.381C327.404 186.632 328.356 186.042 329.409 185.65C330.465 185.237 331.601 185.023 332.75 185.023C333.898 185.023 335.034 185.237 336.091 185.65C337.148 186.015 338.114 186.571 338.932 187.285C339.751 188 340.405 188.857 340.855 189.808C341.305 190.758 341.543 191.782 341.554 192.818C341.565 193.854 341.349 194.882 340.919 195.84C340.543 196.867 339.923 197.804 339.105 198.586C338.288 199.367 337.292 199.973 336.189 200.36C334.124 201.063 331.846 201.024 329.812 200.25Z" fill="#407BFF"/>
</g>
<g opacity="0.1">
<path d="M400.15 131.16C399.164 129.737 398.639 128.086 398.635 126.4C398.598 124.402 399.132 122.43 400.183 120.68C401.395 118.642 403.155 116.921 405.295 115.68C407.225 114.433 409.439 113.606 411.769 113.26C413.788 112.96 415.858 113.174 417.753 113.88C419.528 114.539 421.047 115.671 422.113 117.13C422.914 118.169 423.416 119.376 423.574 120.64C423.699 121.765 423.64 122.901 423.4 124.01C423.16 125.083 422.673 126.923 421.939 129.53C421.774 130.143 421.643 130.764 421.547 131.39C421.42 132.16 421.487 132.947 421.743 133.69C421.863 134.01 422.081 134.55 422.408 135.31C422.607 135.621 422.736 135.966 422.789 136.324C422.842 136.681 422.817 137.045 422.716 137.394C422.614 137.742 422.438 138.069 422.199 138.355C421.959 138.641 421.659 138.881 421.318 139.06C420.608 139.517 419.73 139.697 418.876 139.56C418.394 139.46 417.941 139.269 417.545 138.999C417.149 138.728 416.819 138.385 416.576 137.99C415.809 136.992 415.267 135.863 414.985 134.67C414.759 133.636 414.733 132.573 414.908 131.53C415.144 130.236 415.453 128.954 415.835 127.69C416.227 126.34 416.489 125.35 416.631 124.69C416.768 124.031 416.808 123.359 416.751 122.69C416.688 122.038 416.444 121.411 416.042 120.87C415.67 120.347 415.18 119.904 414.604 119.571C414.028 119.238 413.381 119.023 412.707 118.94C411.209 118.753 409.69 119.112 408.478 119.94C407.789 120.291 407.188 120.769 406.711 121.344C406.235 121.918 405.893 122.578 405.709 123.28C405.519 124.808 405.687 126.356 406.199 127.82C406.821 129.67 406.417 131.02 405.011 131.89C404.625 132.137 404.188 132.308 403.726 132.392C403.265 132.477 402.79 132.472 402.33 132.38C401.896 132.321 401.479 132.183 401.105 131.973C400.73 131.764 400.405 131.487 400.15 131.16ZM427.345 146.82C426.481 147.362 425.43 147.594 424.392 147.47C423.843 147.398 423.32 147.215 422.859 146.933C422.399 146.651 422.014 146.277 421.732 145.84C421.427 145.444 421.216 144.994 421.111 144.519C421.006 144.044 421.009 143.554 421.122 143.08C421.227 142.599 421.437 142.142 421.738 141.737C422.04 141.332 422.427 140.986 422.876 140.72C423.308 140.444 423.796 140.251 424.311 140.153C424.827 140.055 425.358 140.054 425.874 140.15C426.392 140.238 426.885 140.422 427.322 140.692C427.759 140.963 428.13 141.312 428.414 141.72C428.742 142.125 428.97 142.59 429.081 143.084C429.192 143.579 429.184 144.089 429.057 144.58C428.812 145.497 428.201 146.296 427.345 146.82Z" fill="#407BFF"/>
</g>
<path d="M202.511 409.62L194.271 407.66L199.187 390.37L207.427 392.33L202.511 409.62Z" fill="#FFC3BD"/>
<path d="M194.183 405.66L203.383 408.33C203.46 408.347 203.532 408.379 203.595 408.422C203.658 408.465 203.711 408.52 203.75 408.582C203.79 408.645 203.815 408.714 203.825 408.786C203.835 408.858 203.829 408.93 203.808 409L201.868 415.55C201.732 415.894 201.456 416.176 201.099 416.338C200.742 416.5 200.33 416.53 199.95 416.42C196.767 415.42 195.295 414.84 191.23 413.66C188.734 412.94 182.717 411.31 179.24 410.31C175.763 409.31 177.06 406.31 178.575 406.5C185.573 407.17 189.638 406.63 192.548 405.7C193.074 405.522 193.649 405.508 194.183 405.66Z" fill="#263238"/>
<path opacity="0.2" d="M207.427 392.34L199.187 390.38L196.658 399.29L204.898 401.25L207.427 392.34Z" fill="black"/>
<path d="M228.192 215.53C228.192 215.53 213.106 281.3 209.095 302.83C204.735 326.41 195.154 393.92 195.154 393.92L209.16 398.59C209.16 398.59 231.08 327 234.405 304.33C241.37 282.17 259.017 215.53 259.017 215.53H228.192Z" fill="#407BFF"/>
<path opacity="0.3" d="M247.561 237C242.667 247.78 240.89 267.41 241.74 279.15C245.621 265.29 249.926 249.46 253.262 237.06C252.182 233.65 250.7 230.07 247.561 237Z" fill="black"/>
<path d="M208.877 400.11L193.857 396.13L194.423 390.3L212.299 394.91L208.877 400.11Z" fill="#263238"/>
<path d="M190.805 406.08C191.548 406.275 192.311 406.399 193.083 406.45C193.122 406.456 193.162 406.451 193.197 406.435C193.232 406.418 193.261 406.392 193.279 406.36C193.299 406.332 193.31 406.299 193.31 406.265C193.31 406.231 193.299 406.198 193.279 406.17C193.072 405.93 191.273 403.86 190.151 403.92C190.021 403.924 189.896 403.959 189.785 404.02C189.675 404.081 189.583 404.167 189.518 404.27C189.407 404.414 189.34 404.582 189.323 404.758C189.305 404.933 189.339 405.11 189.42 405.27C189.758 405.686 190.251 405.975 190.805 406.08ZM192.658 406.08C191.088 405.91 190.031 405.56 189.769 405.08C189.718 404.976 189.699 404.862 189.715 404.749C189.73 404.636 189.779 404.529 189.856 404.44C189.887 404.389 189.931 404.346 189.984 404.315C190.037 404.283 190.098 404.264 190.161 404.26C190.75 404.24 191.905 405.25 192.658 406.06V406.08Z" fill="#407BFF"/>
<path d="M193.039 406.45H193.137C193.169 406.446 193.2 406.434 193.226 406.417C193.253 406.399 193.275 406.377 193.29 406.35C193.29 406.26 194.293 404.23 193.726 403.29C193.648 403.17 193.544 403.066 193.42 402.985C193.296 402.904 193.155 402.848 193.006 402.82C192.842 402.777 192.668 402.783 192.508 402.839C192.349 402.895 192.214 402.997 192.123 403.13C191.633 403.87 192.298 405.73 192.952 406.39C192.973 406.418 193.004 406.439 193.039 406.45ZM193.039 403.19C193.114 403.211 193.184 403.246 193.244 403.292C193.304 403.338 193.353 403.396 193.388 403.46C193.585 404.286 193.474 405.149 193.072 405.91C192.559 405.17 192.167 403.79 192.494 403.31C192.494 403.22 192.658 403.12 192.941 403.17L193.039 403.19Z" fill="#407BFF"/>
<path d="M239.865 159.2C239.135 160.82 238.438 162.26 237.685 163.74C236.933 165.22 236.127 166.67 235.309 168.12C233.652 171.01 231.908 173.86 229.99 176.64C226.173 182.418 221.557 187.719 216.256 192.41L216.06 192.59C215.782 192.82 215.474 193.018 215.144 193.18C214.237 193.629 213.239 193.905 212.212 193.99C211.624 194.029 211.034 194.029 210.446 193.99C209.567 193.938 208.692 193.828 207.83 193.66C206.283 193.36 204.909 192.99 203.558 192.6C200.876 191.82 198.38 190.87 195.928 189.91C193.475 188.95 191.055 187.91 188.679 186.78C186.303 185.65 183.97 184.52 181.659 183.24C181.124 182.94 180.722 182.474 180.527 181.927C180.332 181.379 180.356 180.786 180.595 180.253C180.834 179.721 181.272 179.284 181.831 179.021C182.39 178.758 183.032 178.687 183.643 178.82C188.701 179.94 193.748 181.19 198.718 182.3C201.192 182.87 203.667 183.37 206.043 183.79C207.163 183.998 208.294 184.148 209.433 184.24C209.861 184.263 210.29 184.263 210.719 184.24C210.882 184.24 210.948 184.24 210.904 184.24C210.517 184.25 210.14 184.357 209.814 184.55L208.724 185.32C210.833 183.179 212.788 180.914 214.577 178.54C216.409 176.11 218.142 173.54 219.809 170.96C221.477 168.38 223.079 165.67 224.595 162.96C226.11 160.25 227.614 157.46 228.955 154.85L229.02 154.72C229.663 153.394 230.854 152.357 232.331 151.836C233.808 151.316 235.45 151.355 236.895 151.945C238.341 152.535 239.471 153.628 240.039 154.983C240.606 156.338 240.563 157.844 239.92 159.17L239.865 159.2Z" fill="#FFC3BD"/>
<path d="M238.187 148.62C231.167 148.8 226.349 155.79 221.75 164.5C225.276 170.092 230.328 174.745 236.41 178C236.41 178 254.853 148.19 238.187 148.62Z" fill="#E0E0E0"/>
<path d="M181.311 183.28L174.989 181.8L179.915 175.99C179.915 175.99 185.365 176.78 187.436 180.99L185.191 182.46C184.646 182.844 184.018 183.116 183.348 183.258C182.679 183.399 181.984 183.407 181.311 183.28Z" fill="#FFC3BD"/>
<path d="M173.452 175.86L174.673 174.86C175.172 174.459 175.81 174.232 176.473 174.219C177.137 174.206 177.785 174.408 178.302 174.79L179.915 175.98L174.989 181.79L172.972 178.91C172.638 178.434 172.503 177.863 172.591 177.303C172.679 176.742 172.985 176.23 173.452 175.86Z" fill="#FFC3BD"/>
<path d="M276.271 408.72H267.65L265.589 391.1H274.211L276.271 408.72Z" fill="#FFC3BD"/>
<path d="M266.897 407.84H276.588C276.748 407.832 276.905 407.882 277.025 407.979C277.146 408.076 277.219 408.213 277.231 408.36L277.699 415.12C277.691 415.483 277.527 415.829 277.244 416.084C276.961 416.338 276.58 416.48 276.184 416.48C272.816 416.42 271.203 416.25 266.941 416.25C264.325 416.25 257.131 416.49 253.48 416.49C249.828 416.49 249.959 413.33 251.496 413.05C258.374 411.76 262.973 409.99 265.415 408.31C265.839 408.008 266.36 407.843 266.897 407.84Z" fill="#263238"/>
<path opacity="0.2" d="M274.211 391.1H265.589L266.658 400.19H275.28L274.211 391.1Z" fill="black"/>
<path d="M245.043 215.53C245.043 215.53 246.95 281.65 248.313 303.44C249.839 327.3 262.755 397.99 262.755 397.99H278.56C278.56 397.99 275.094 326.4 272.478 302.99C273.568 277.35 274.288 215.51 274.288 215.51L245.043 215.53Z" fill="#407BFF"/>
<path d="M279.193 397.99H261.273L260.423 392.7L279.672 393L279.193 397.99Z" fill="#263238"/>
<path d="M263.845 409.16C264.62 409.144 265.391 409.054 266.145 408.89C266.182 408.884 266.216 408.867 266.241 408.842C266.267 408.816 266.283 408.784 266.287 408.75C266.297 408.716 266.296 408.681 266.282 408.648C266.268 408.616 266.243 408.588 266.211 408.57C265.938 408.41 263.497 406.93 262.439 407.3C262.321 407.34 262.216 407.407 262.135 407.494C262.053 407.582 261.996 407.687 261.971 407.8C261.902 407.971 261.89 408.157 261.934 408.334C261.979 408.512 262.078 408.674 262.221 408.8C262.699 409.094 263.275 409.222 263.845 409.16ZM265.589 408.64C264.042 408.91 262.908 408.86 262.505 408.51C262.422 408.426 262.365 408.324 262.34 408.213C262.315 408.102 262.323 407.987 262.363 407.88C262.373 407.825 262.399 407.773 262.437 407.729C262.475 407.685 262.525 407.651 262.581 407.63C263.148 407.43 264.587 408.07 265.589 408.64Z" fill="#407BFF"/>
<path d="M266.091 408.9H266.189C266.218 408.884 266.243 408.862 266.262 408.836C266.281 408.81 266.293 408.781 266.298 408.75C266.298 408.66 266.494 406.47 265.622 405.75C265.511 405.652 265.376 405.579 265.228 405.538C265.08 405.496 264.924 405.487 264.772 405.51C264.603 405.512 264.441 405.565 264.308 405.661C264.176 405.757 264.083 405.89 264.042 406.04C263.845 406.87 265.132 408.46 265.993 408.91L266.091 408.9ZM264.87 405.81C264.951 405.808 265.031 405.821 265.106 405.848C265.181 405.876 265.249 405.917 265.306 405.97C265.783 406.696 265.983 407.548 265.873 408.39C265.121 407.83 264.26 406.62 264.39 406.08C264.39 405.97 264.489 405.85 264.783 405.82L264.87 405.81Z" fill="#407BFF"/>
<path d="M231.821 153.71C232.286 152.415 233.123 151.259 234.243 150.364C235.363 149.468 236.725 148.866 238.187 148.62C240.317 148.164 242.475 147.83 244.651 147.62C251.186 147.289 257.735 147.289 264.271 147.62C267.693 147.76 271.181 148.13 273.961 148.49H274.059C274.773 148.566 275.463 148.775 276.086 149.104C276.709 149.432 277.253 149.874 277.684 150.401C278.116 150.929 278.426 151.532 278.595 152.173C278.764 152.814 278.79 153.48 278.669 154.13C276.493 164.32 275.07 174.634 274.408 185C273.732 200.06 274.647 211.88 274.32 215.51H228.192C225.39 178.78 229.009 162.08 231.821 153.71Z" fill="#E0E0E0"/>
<path d="M267.399 125.21C268.204 125.743 268.844 126.459 269.256 127.287C269.669 128.115 269.84 129.027 269.754 129.934C269.667 130.841 269.325 131.712 268.761 132.462C268.197 133.211 267.431 133.814 266.538 134.21C268.402 137.04 263.442 142.04 258.45 138.9C253.458 135.76 260.51 122.54 267.399 125.21Z" fill="#263238"/>
<path d="M246.754 122.17C246.069 122.189 245.391 122.044 244.785 121.749C244.18 121.455 243.668 121.022 243.3 120.492C242.932 119.961 242.72 119.353 242.686 118.725C242.651 118.097 242.795 117.472 243.103 116.91C240.781 116.08 241.195 111.43 245.381 111.23C249.566 111.03 251.725 121 246.754 122.17Z" fill="#263238"/>
<path d="M245.392 151.55C245.08 151.287 244.848 150.955 244.718 150.585C244.588 150.215 244.566 149.82 244.653 149.44C244.74 149.06 244.933 148.707 245.213 148.416C245.494 148.125 245.852 147.906 246.253 147.78C250.46 146.36 251.223 143.56 250.885 140.51C250.789 139.652 250.636 138.801 250.428 137.96L257.567 132.73L262.821 128.89C261.513 133.89 260.052 142.6 262.821 147.01C263.131 147.471 263.251 148.02 263.159 148.555C263.067 149.091 262.769 149.578 262.319 149.93C260.51 151.4 256.804 153.3 250.7 153C247.899 152.87 246.34 152.28 245.392 151.55Z" fill="#FFC3BD"/>
<path d="M229.456 153.89C229.976 152.45 230.892 151.158 232.116 150.138C233.34 149.119 234.831 148.406 236.443 148.07C238.512 147.769 240.597 147.568 242.689 147.47C242.907 147.441 243.13 147.463 243.337 147.533C243.544 147.603 243.729 147.719 243.875 147.87C244.021 148.022 244.123 148.205 244.173 148.402C244.223 148.599 244.218 148.805 244.16 149C240.509 161.44 235.298 186.33 236.912 217.16C236.919 217.352 236.884 217.543 236.808 217.722C236.732 217.901 236.617 218.064 236.47 218.2C236.323 218.337 236.147 218.445 235.953 218.517C235.759 218.589 235.551 218.624 235.342 218.62H226.186C225.789 218.626 225.404 218.493 225.11 218.248C224.817 218.002 224.636 217.663 224.605 217.3C221.848 179.63 226.72 160.86 229.456 153.89Z" fill="#263238"/>
<path d="M273.71 147.74C270.779 147.355 267.829 147.108 264.87 147C264.335 146.964 263.802 147.103 263.368 147.392C262.933 147.681 262.623 148.102 262.494 148.58C259.104 162.28 256.085 192.72 255.954 217.21C255.958 217.396 256.002 217.58 256.084 217.751C256.166 217.922 256.283 218.076 256.43 218.205C256.577 218.334 256.75 218.436 256.939 218.503C257.129 218.571 257.331 218.604 257.534 218.6H273.884C274.289 218.608 274.682 218.47 274.977 218.216C275.273 217.962 275.448 217.611 275.465 217.24C275.574 212.31 274.833 200.76 275.465 186.42C276.069 176.202 277.468 166.036 279.65 156C280.217 153.19 276.947 148.16 273.71 147.74Z" fill="#263238"/>
<path d="M279.454 152.09C282.953 156.93 286.136 161.78 289.144 166.87C290.627 169.42 292.087 172.01 293.406 174.73C294.06 176.09 294.703 177.48 295.303 178.95C295.964 180.54 296.474 182.18 296.829 183.85C297.097 185.067 297.156 186.316 297.003 187.55C296.825 188.549 296.544 189.53 296.164 190.48C295.542 192.029 294.78 193.528 293.886 194.96C292.281 197.558 290.494 200.056 288.534 202.44C284.764 207.056 280.64 211.42 276.195 215.5C275.682 215.972 274.997 216.255 274.271 216.294C273.545 216.333 272.829 216.127 272.258 215.713C271.688 215.3 271.303 214.708 271.176 214.051C271.05 213.394 271.192 212.718 271.574 212.15V212.09C274.745 207.4 277.95 202.62 280.849 197.88C282.288 195.52 283.662 193.12 284.763 190.8C285.863 188.48 286.67 185.94 286.103 185.87C285.756 184.806 285.333 183.764 284.839 182.75C284.294 181.61 283.673 180.43 283.019 179.26C281.689 176.91 280.261 174.52 278.768 172.17C275.781 167.45 272.598 162.69 269.448 158.08V158.02C268.591 156.803 268.296 155.323 268.628 153.906C268.96 152.489 269.892 151.251 271.219 150.465C272.546 149.679 274.159 149.408 275.704 149.713C277.248 150.018 278.597 150.873 279.454 152.09Z" fill="#FFC3BD"/>
<path d="M272.674 147.61C279.694 147.49 283.411 152.94 288.011 161.61C282.801 170.46 272.86 174.29 272.86 174.29C272.86 174.29 258.875 147.83 272.674 147.61Z" fill="#E0E0E0"/>
<path d="M269.077 211.89L265.034 213.07L272.522 218.29C272.522 218.29 278.648 215.37 276.729 212.72L275.487 212.21C273.464 211.391 271.185 211.277 269.077 211.89Z" fill="#FFC3BD"/>
<path d="M262.766 217.65L267.312 221.84C267.459 221.971 267.634 222.073 267.826 222.14C268.018 222.206 268.223 222.235 268.428 222.224C268.633 222.214 268.833 222.165 269.016 222.08C269.199 221.994 269.361 221.875 269.492 221.73L272.511 218.29L265.023 213.07L262.69 216C262.475 216.234 262.363 216.533 262.378 216.839C262.392 217.144 262.53 217.434 262.766 217.65Z" fill="#FFC3BD"/>
<path opacity="0.2" d="M250.428 138C250.636 138.841 250.789 139.692 250.885 140.55C253.589 141.18 257.425 138.34 257.785 135.93C257.831 134.873 257.758 133.814 257.567 132.77L250.428 138Z" fill="black"/>
<path d="M267.301 121.79C265.459 129.17 264.805 133.57 259.856 136.86C258.237 137.946 256.334 138.619 254.339 138.811C252.344 139.003 250.33 138.706 248.501 137.951C246.672 137.195 245.094 136.009 243.927 134.512C242.761 133.016 242.047 131.262 241.86 129.43C241.228 122.51 244.345 111.6 253.153 109.66C261.96 107.72 269.143 114.4 267.301 121.79Z" fill="#FFC3BD"/>
<path d="M263.573 128.25C261.24 128.36 258.755 120.81 263.9 117.17C263.082 117.58 260.848 116.83 261.24 115.42C259.725 116 253.098 115.75 254.7 113.28C251.332 114.08 243.986 112.74 243.201 109.79C242.416 106.84 246.209 106.74 246.798 107.13C245.13 104.99 245.163 101.85 249.588 100.71C254.014 99.57 260.684 105.44 260.684 105.44C259.987 103.89 262.439 102.64 264.979 103.97C267.519 105.3 268.707 109.08 268.707 109.08C268.707 107.94 274.636 109.47 271.824 114.25C274.735 115.25 276.064 116.67 275.879 119.14C275.694 121.61 273.852 121.75 273.852 121.75C274.242 122.639 274.296 123.623 274.005 124.543C273.715 125.464 273.097 126.269 272.249 126.83C269.23 129.06 266.592 126.44 263.573 128.25Z" fill="#263238"/>
<path d="M268.195 128.82C267.169 130.196 265.655 131.204 263.911 131.67C261.665 132.22 260.902 130.38 261.818 128.46C262.646 126.73 264.805 124.35 266.919 124.65C269.034 124.95 269.459 127.1 268.195 128.82Z" fill="#FFC3BD"/>
<path d="M253.97 121.49C253.861 122.09 253.403 122.54 252.956 122.49C252.509 122.44 252.226 121.9 252.335 121.29C252.444 120.68 252.902 120.29 253.349 120.29C253.796 120.29 254.025 120.88 253.97 121.49Z" fill="#263238"/>
<path d="M245.991 120.16C245.882 120.77 245.435 121.22 244.988 121.16C244.542 121.1 244.258 120.57 244.367 119.96C244.476 119.35 244.923 118.96 245.37 118.96C245.817 118.96 246.1 119.56 245.991 120.16Z" fill="#263238"/>
<path d="M249.141 121.52C247.98 123.28 246.561 124.885 244.923 126.29C245.347 126.656 245.851 126.934 246.402 127.106C246.953 127.279 247.537 127.342 248.117 127.29L249.141 121.52Z" fill="#ED847E"/>
<path d="M249.534 130.27C250.326 130.352 251.129 130.288 251.895 130.082C252.66 129.876 253.373 129.532 253.992 129.07C254.028 129.035 254.048 128.988 254.048 128.94C254.048 128.892 254.028 128.845 253.992 128.81C253.952 128.779 253.902 128.762 253.85 128.762C253.798 128.762 253.748 128.779 253.708 128.81C253.028 129.305 252.234 129.653 251.387 129.826C250.539 129.999 249.659 129.994 248.814 129.81C248.789 129.804 248.762 129.803 248.735 129.807C248.709 129.811 248.684 129.82 248.662 129.833C248.639 129.846 248.62 129.863 248.605 129.883C248.59 129.903 248.58 129.926 248.575 129.95C248.568 129.973 248.567 129.997 248.572 130.021C248.576 130.044 248.586 130.066 248.6 130.086C248.614 130.106 248.633 130.123 248.655 130.135C248.677 130.148 248.701 130.157 248.727 130.16C248.993 130.215 249.262 130.252 249.534 130.27Z" fill="#263238"/>
<path d="M254.297 117.33C254.232 117.346 254.172 117.377 254.123 117.42C254.085 117.453 254.054 117.492 254.034 117.536C254.013 117.58 254.002 117.627 254.002 117.675C254.002 117.723 254.013 117.77 254.034 117.814C254.054 117.858 254.085 117.897 254.123 117.93C254.547 118.365 255.08 118.7 255.676 118.906C256.272 119.111 256.913 119.181 257.545 119.11C257.598 119.105 257.648 119.091 257.694 119.067C257.74 119.043 257.78 119.011 257.812 118.973C257.844 118.934 257.866 118.89 257.879 118.843C257.891 118.796 257.892 118.748 257.883 118.7C257.874 118.652 257.854 118.606 257.826 118.565C257.797 118.524 257.76 118.489 257.717 118.461C257.673 118.433 257.624 118.413 257.572 118.403C257.52 118.392 257.467 118.391 257.414 118.4C256.915 118.44 256.412 118.371 255.947 118.197C255.483 118.023 255.07 117.75 254.744 117.4C254.684 117.352 254.61 117.32 254.531 117.308C254.452 117.295 254.371 117.303 254.297 117.33Z" fill="#263238"/>
<path d="M243.735 115.52C243.795 115.545 243.86 115.557 243.926 115.557C243.991 115.557 244.056 115.545 244.116 115.52C244.582 115.307 245.092 115.19 245.612 115.178C246.132 115.166 246.648 115.259 247.125 115.45C247.218 115.498 247.328 115.512 247.431 115.488C247.535 115.463 247.624 115.403 247.681 115.32C247.728 115.233 247.738 115.133 247.707 115.04C247.677 114.947 247.609 114.868 247.517 114.82C246.929 114.561 246.284 114.427 245.632 114.427C244.979 114.427 244.334 114.561 243.746 114.82C243.698 114.839 243.655 114.867 243.62 114.902C243.585 114.937 243.558 114.979 243.542 115.024C243.526 115.07 243.52 115.118 243.525 115.165C243.53 115.213 243.546 115.259 243.571 115.3C243.596 115.389 243.654 115.467 243.735 115.52Z" fill="#263238"/>
</svg>
