<svg width="220" height="360" viewBox="0 0 220 360" fill="none" xmlns="http://www.w3.org/2000/svg">
<path d="M73.6401 46.1502C73.9201 46.5352 74.3401 46.9102 74.8951 47.2752C74.9151 47.2902 74.9351 47.3002 74.9551 47.3152L75.0351 47.3652C75.6251 47.7302 76.3901 48.1102 77.3451 48.4952C83.3951 50.8802 95.5101 52.5302 109.565 52.6002C109.885 52.6002 110.205 52.6052 110.53 52.6052C110.86 52.6052 111.19 52.6052 111.515 52.6002C121.71 52.5452 130.88 51.6652 137.46 50.2702C142.3 49.2052 145.13 47.9852 146.43 47.0952C146.672 46.9258 146.898 46.735 147.105 46.5252C147.885 45.6252 147.97 44.6202 147.21 43.6602C144.02 40.1402 128.815 37.4702 110.535 37.4702C92.5501 37.4702 77.5401 40.0502 74.0251 43.4902C73.3801 44.1552 72.9451 45.0702 73.6401 46.1502Z" fill="#15BDFF"/>
<path opacity="0.4" d="M73.6401 43.8748C73.9201 44.2598 74.3401 44.6348 74.8951 44.9998C74.9151 45.0148 74.9351 45.0248 74.9551 45.0398L75.0351 45.0898C75.6251 45.4548 76.3901 45.8348 77.3451 46.2198C83.3951 48.6048 95.5101 50.2548 109.565 50.3248C109.885 50.3248 110.205 50.3298 110.53 50.3298C110.86 50.3298 111.19 50.3298 111.515 50.3248C121.71 50.2698 130.88 49.3898 137.46 47.9948C142.3 46.9298 145.13 45.7098 146.43 44.8198C146.672 44.6504 146.898 44.4596 147.105 44.2498C147.885 43.3498 147.97 42.3448 147.21 41.3848C144.02 37.8648 128.815 35.1948 110.535 35.1948C92.5501 35.1948 77.5401 37.7748 74.0251 41.2148C73.3801 41.8748 72.9451 42.7898 73.6401 43.8748Z" fill="white"/>
<path d="M78.6699 17.0452C78.6699 17.0452 88.8049 5.68018 110.39 5.68018C131.975 5.68018 143.13 17.2152 143.13 17.2152" fill="#429AF3"/>
<path d="M49.0149 41.9352C49.0149 28.9902 76.5549 18.5002 110.53 18.5002C144.505 18.5002 172.045 28.9952 172.045 41.9352C172.045 54.2702 147.035 64.3752 115.285 65.3002C148.825 64.3302 175.275 53.1652 175.275 39.5352C175.275 25.2702 146.285 13.7002 110.53 13.7002C74.7699 13.7002 45.7849 25.2652 45.7849 39.5352C45.7849 53.1652 72.2399 64.3302 105.775 65.3002C74.0199 64.3802 49.0149 54.2702 49.0149 41.9352Z" fill="#955AC6"/>
<path d="M49.0149 41.9352C49.0149 28.9902 76.5549 18.5002 110.53 18.5002C144.505 18.5002 172.045 28.9952 172.045 41.9352C172.045 54.2702 147.035 64.3752 115.285 65.3002C148.825 64.3302 175.275 53.1652 175.275 39.5352C175.275 25.2702 146.285 13.7002 110.53 13.7002C74.7699 13.7002 45.7849 25.2652 45.7849 39.5352C45.7849 53.1652 72.2399 64.3302 105.775 65.3002C74.0199 64.3802 49.0149 54.2702 49.0149 41.9352Z" fill="#C2DCF3"/>
<path d="M112.15 65.365C112.3 65.365 112.445 65.36 112.595 65.36C112.715 65.36 112.835 65.355 112.95 65.355C113.125 65.35 113.295 65.35 113.47 65.345C113.56 65.345 113.65 65.34 113.74 65.34L114.34 65.325C114.4 65.325 114.455 65.32 114.515 65.32C114.745 65.315 114.97 65.31 115.2 65.3H115.285C147.04 64.375 172.045 54.265 172.045 41.935C172.045 28.99 144.505 18.5 110.53 18.5C76.5549 18.5 49.0149 28.995 49.0149 41.935C49.0149 54.27 74.0249 64.375 105.775 65.3H105.86C106.085 65.305 106.315 65.315 106.545 65.32C106.605 65.32 106.66 65.325 106.72 65.325L107.32 65.34C107.41 65.34 107.5 65.345 107.59 65.345C107.765 65.35 107.935 65.35 108.11 65.355C108.23 65.355 108.35 65.36 108.465 65.36C108.615 65.36 108.76 65.365 108.91 65.365C109.07 65.365 109.225 65.365 109.385 65.37H111.675C111.835 65.365 111.99 65.365 112.15 65.365ZM97.6649 55.79C79.9999 54.33 71.2999 51.405 69.3649 48.2C67.4299 44.995 73.4249 42.09 75.6499 42.355C75.6499 42.355 74.7099 42.775 74.0149 43.495C77.5349 40.06 92.5449 37.475 110.525 37.475C128.805 37.475 144.01 40.145 147.2 43.665C146.5 42.78 145.09 41.94 142.83 41.26C142.83 41.26 147.045 41.54 150.835 44.555C154.625 47.57 150.28 50.72 142.06 52.98C133.84 55.24 115.33 57.245 97.6649 55.79Z" fill="#BAC4DB"/>
<path d="M112.15 63.95C112.3 63.95 112.445 63.945 112.595 63.945C112.715 63.945 112.835 63.94 112.95 63.94C113.125 63.935 113.295 63.935 113.47 63.93C113.56 63.93 113.65 63.925 113.74 63.925L114.34 63.91C114.4 63.91 114.455 63.905 114.515 63.905C114.745 63.9 114.97 63.895 115.2 63.885H115.285C147.04 62.96 172.045 52.85 172.045 40.52C172.045 27.575 144.505 17.085 110.53 17.085C76.5549 17.085 49.0149 27.58 49.0149 40.52C49.0149 52.855 74.0249 62.96 105.775 63.885H105.86C106.085 63.89 106.315 63.9 106.545 63.905C106.605 63.905 106.66 63.91 106.72 63.91L107.32 63.925C107.41 63.925 107.5 63.93 107.59 63.93C107.765 63.935 107.935 63.935 108.11 63.94C108.23 63.94 108.35 63.945 108.465 63.945C108.615 63.945 108.76 63.95 108.91 63.95C109.07 63.95 109.225 63.955 109.385 63.955H111.675C111.835 63.955 111.99 63.95 112.15 63.95ZM97.6649 54.375C79.9999 52.915 70.9299 50.185 69.3649 46.785C66.6649 40.905 86.1549 36.06 110.53 36.06C128.81 36.06 145.5 38.985 150.845 43.135C154.67 46.105 150.29 49.3 142.07 51.56C133.85 53.82 115.33 55.835 97.6649 54.375Z" fill="#CAD0DB"/>
<path d="M49.385 39.865C49.385 39.865 59.41 25.92 110.68 25.92C161.95 25.92 171.64 39.225 171.64 39.225C171.64 39.225 164.375 18.165 109.565 18.5C63.24 18.785 49.795 34.65 49.385 39.865Z" fill="white"/>
<path d="M175.2 40.8C173.575 27.11 145.245 16.21 110.53 16.21C75.8151 16.21 47.4851 27.11 45.8601 40.8C46.2001 43.615 47.6701 46.31 50.0901 48.82C49.3851 47.4 51.0151 49.935 51.0151 48.44C51.0151 48.02 49.0451 43.6 49.1051 43.185C49.0478 42.7724 49.0177 42.3565 49.0151 41.94C49.0151 28.995 76.5551 18.505 110.53 18.505C144.505 18.505 172.045 28.995 172.045 41.94C172.045 42.36 172.015 42.775 171.955 43.185C172.01 43.6 170.05 48.355 170.05 48.775C170.05 50.275 171.67 47.4 170.965 48.82C173.39 46.31 174.86 43.615 175.2 40.8Z" fill="#2059A0"/>
<path d="M108.91 65.3652C108.76 65.3652 108.615 65.3602 108.465 65.3602C108.615 65.3602 108.76 65.3602 108.91 65.3652ZM107.32 65.3402L106.72 65.3252L107.32 65.3402ZM108.11 65.3552C107.935 65.3502 107.765 65.3502 107.59 65.3452C107.76 65.3502 107.935 65.3502 108.11 65.3552ZM112.595 65.3602C112.445 65.3602 112.3 65.3652 112.15 65.3652C112.3 65.3602 112.445 65.3602 112.595 65.3602ZM113.47 65.3452C113.295 65.3502 113.125 65.3502 112.95 65.3552C113.125 65.3502 113.3 65.3502 113.47 65.3452ZM115.2 65.3052C114.975 65.3102 114.745 65.3202 114.515 65.3252C114.745 65.3202 114.975 65.3102 115.2 65.3052ZM114.34 65.3252L113.74 65.3402L114.34 65.3252ZM106.54 65.3252C106.31 65.3202 106.085 65.3152 105.855 65.3052C106.085 65.3102 106.315 65.3202 106.54 65.3252Z" fill="#955AC6"/>
<path d="M73.6399 46.1499C73.6399 46.1549 73.6449 46.1549 73.6449 46.1599C73.8599 46.4949 74.2749 46.8749 74.8949 47.2749C74.3399 46.9099 73.9199 46.5349 73.6399 46.1499ZM146.425 47.0949C146.725 46.8899 146.95 46.6999 147.09 46.5349L147.095 46.5299C146.91 46.7199 146.685 46.9099 146.425 47.0949ZM137.46 50.2749C130.885 51.6649 121.71 52.5499 111.515 52.6049C123.425 52.5499 131.815 51.5149 137.46 50.2749ZM75.0349 47.3649L74.9549 47.3149C74.9799 47.3299 75.0049 47.3499 75.0349 47.3649ZM109.565 52.5999C95.5149 52.5249 83.3949 50.8799 77.3449 48.4949C82.2899 50.4799 92.3299 52.5299 109.565 52.5999Z" fill="#BAC4DB"/>
<path d="M150.845 44.5499C147.055 41.5349 142.84 41.2549 142.84 41.2549C145.095 41.9349 146.51 42.7749 147.21 43.6599C147.97 44.6199 147.88 45.6249 147.105 46.5249L147.1 46.5299C146.902 46.7428 146.678 46.9308 146.435 47.0899C145.135 47.9799 142.31 49.1999 137.465 50.2649C131.82 51.5099 123.435 52.5399 111.52 52.5949C111.195 52.5949 110.865 52.5999 110.535 52.5999C110.21 52.5999 109.89 52.5999 109.57 52.5949C92.335 52.5199 82.295 50.4749 77.35 48.4899C76.395 48.1049 75.63 47.7249 75.04 47.3599C75.01 47.3449 74.985 47.3249 74.96 47.3099C74.94 47.2949 74.92 47.2849 74.9 47.2699C74.28 46.8699 73.865 46.4899 73.65 46.1549C73.65 46.1499 73.645 46.1499 73.645 46.1449C72.955 45.0649 73.385 44.1499 74.025 43.4849C74.72 42.7649 75.66 42.3449 75.66 42.3449C73.435 42.0799 67.44 44.9849 69.375 48.1899C71.31 51.3949 80.005 54.3199 97.675 55.7799C115.34 57.2399 133.855 55.2299 142.08 52.9699C150.305 50.7099 154.635 47.5699 150.845 44.5499Z" fill="#955AC6"/>
<path d="M150.845 44.5499C147.055 41.5349 142.84 41.2549 142.84 41.2549C145.095 41.9349 146.51 42.7749 147.21 43.6599C147.97 44.6199 147.88 45.6249 147.105 46.5249L147.1 46.5299C146.902 46.7428 146.678 46.9308 146.435 47.0899C145.135 47.9799 142.31 49.1999 137.465 50.2649C131.82 51.5099 123.435 52.5399 111.52 52.5949C111.195 52.5949 110.865 52.5999 110.535 52.5999C110.21 52.5999 109.89 52.5999 109.57 52.5949C92.335 52.5199 82.295 50.4749 77.35 48.4899C76.395 48.1049 75.63 47.7249 75.04 47.3599C75.01 47.3449 74.985 47.3249 74.96 47.3099C74.94 47.2949 74.92 47.2849 74.9 47.2699C74.28 46.8699 73.865 46.4899 73.65 46.1549C73.65 46.1499 73.645 46.1499 73.645 46.1449C72.955 45.0649 73.385 44.1499 74.025 43.4849C74.72 42.7649 75.66 42.3449 75.66 42.3449C73.435 42.0799 67.44 44.9849 69.375 48.1899C71.31 51.3949 80.005 54.3199 97.675 55.7799C115.34 57.2399 133.855 55.2299 142.08 52.9699C150.305 50.7099 154.635 47.5699 150.845 44.5499Z" fill="#2059A0"/>
<path d="M99.5449 30.4799C100.349 30.4799 101.119 30.1607 101.687 29.5925C102.256 29.0242 102.575 28.2535 102.575 27.4499C102.575 26.6463 102.256 25.8756 101.687 25.3074C101.119 24.7392 100.349 24.4199 99.5449 24.4199C98.7413 24.4199 97.9706 24.7392 97.4024 25.3074C96.8342 25.8756 96.5149 26.6463 96.5149 27.4499C96.5149 28.2535 96.8342 29.0242 97.4024 29.5925C97.9706 30.1607 98.7413 30.4799 99.5449 30.4799ZM78.8849 34.0799C79.6355 34.0799 80.3553 33.7818 80.886 33.251C81.4168 32.7203 81.7149 32.0005 81.7149 31.2499C81.7149 30.4994 81.4168 29.7795 80.886 29.2488C80.3553 28.7181 79.6355 28.4199 78.8849 28.4199C78.1344 28.4199 77.4145 28.7181 76.8838 29.2488C76.3531 29.7795 76.0549 30.4994 76.0549 31.2499C76.0549 32.0005 76.3531 32.7203 76.8838 33.251C77.4145 33.7818 78.1344 34.0799 78.8849 34.0799ZM61.8299 41.9399C63.2989 41.9399 64.4899 40.8339 64.4899 39.4699C64.4899 38.1059 63.2989 36.9999 61.8299 36.9999C60.3599 36.9999 59.1699 38.1059 59.1699 39.4699C59.1699 40.8339 60.3599 41.9399 61.8299 41.9399ZM64.1849 54.3099C65.5549 54.3099 66.6649 53.4189 66.6649 52.3199C66.6649 51.2199 65.5549 50.3299 64.1849 50.3299C62.8149 50.3299 61.7049 51.2199 61.7049 52.3199C61.7049 53.4189 62.8149 54.3099 64.1849 54.3099ZM78.8249 59.1249C80.0119 59.1249 80.9749 58.3499 80.9749 57.3949C80.9749 56.4399 80.0119 55.6649 78.8249 55.6649C77.6369 55.6649 76.6749 56.4399 76.6749 57.3949C76.6749 58.3499 77.6369 59.1249 78.8249 59.1249ZM92.3849 61.9349C93.5719 61.9349 94.5349 61.1599 94.5349 60.2049C94.5349 59.2499 93.5719 58.4749 92.3849 58.4749C91.1969 58.4749 90.2349 59.2499 90.2349 60.2049C90.2349 61.1609 91.1979 61.9349 92.3849 61.9349ZM105.335 62.9499C106.522 62.9499 107.485 62.1749 107.485 61.2199C107.485 60.2639 106.522 59.4899 105.335 59.4899C104.147 59.4899 103.185 60.2639 103.185 61.2199C103.185 62.1749 104.147 62.9499 105.335 62.9499ZM115.235 62.9499C116.422 62.9499 117.385 62.1749 117.385 61.2199C117.385 60.2639 116.422 59.4899 115.235 59.4899C114.048 59.4899 113.085 60.2639 113.085 61.2199C113.085 62.1749 114.048 62.9499 115.235 62.9499ZM121.41 30.4799C122.214 30.4799 122.984 30.1607 123.552 29.5925C124.121 29.0242 124.44 28.2535 124.44 27.4499C124.44 26.6463 124.121 25.8756 123.552 25.3074C122.984 24.7392 122.214 24.4199 121.41 24.4199C120.606 24.4199 119.836 24.7392 119.267 25.3074C118.699 25.8756 118.38 26.6463 118.38 27.4499C118.38 28.2535 118.699 29.0242 119.267 29.5925C119.836 30.1607 120.606 30.4799 121.41 30.4799ZM142.07 34.0799C142.82 34.0799 143.54 33.7818 144.071 33.251C144.602 32.7203 144.9 32.0005 144.9 31.2499C144.9 30.4994 144.602 29.7795 144.071 29.2488C143.54 28.7181 142.82 28.4199 142.07 28.4199C141.319 28.4199 140.6 28.7181 140.069 29.2488C139.538 29.7795 139.24 30.4994 139.24 31.2499C139.24 32.0005 139.538 32.7203 140.069 33.251C140.6 33.7818 141.319 34.0799 142.07 34.0799ZM159.125 41.9399C160.594 41.9399 161.785 40.8339 161.785 39.4699C161.785 38.1059 160.594 36.9999 159.125 36.9999C157.656 36.9999 156.465 38.1059 156.465 39.4699C156.465 40.8339 157.656 41.9399 159.125 41.9399ZM156.77 54.3099C158.139 54.3099 159.25 53.4189 159.25 52.3199C159.25 51.2199 158.139 50.3299 156.77 50.3299C155.4 50.3299 154.29 51.2199 154.29 52.3199C154.29 53.4189 155.4 54.3099 156.77 54.3099ZM142.13 59.1249C143.317 59.1249 144.28 58.3499 144.28 57.3949C144.28 56.4399 143.317 55.6649 142.13 55.6649C140.943 55.6649 139.98 56.4399 139.98 57.3949C139.98 58.3499 140.943 59.1249 142.13 59.1249ZM128.57 61.9349C129.757 61.9349 130.72 61.1599 130.72 60.2049C130.72 59.2499 129.757 58.4749 128.57 58.4749C127.383 58.4749 126.42 59.2499 126.42 60.2049C126.42 61.1609 127.383 61.9349 128.57 61.9349Z" fill="white"/>
<path opacity="0.3" d="M96.5151 27.4498C96.5151 27.4498 99.4951 24.2258 102.515 26.8658C102.515 26.8658 102.07 24.0358 99.0751 24.4208C96.0801 24.8108 96.5151 27.4508 96.5151 27.4508V27.4498ZM76.0601 31.2498C76.0601 31.2498 78.8401 28.2398 81.6651 30.7048C81.6651 30.7048 81.2501 28.0598 78.4551 28.4248C75.6551 28.7848 76.0601 31.2498 76.0601 31.2498ZM59.1701 39.4698C59.1701 39.4698 61.7851 36.8458 64.4401 38.9958C64.4401 38.9958 64.0501 36.6908 61.4201 37.0058C58.7851 37.3158 59.1701 39.4708 59.1701 39.4708V39.4698ZM61.7101 52.3198C61.7101 52.3198 64.1501 50.1998 66.6201 51.9358C66.6201 51.9358 66.2551 50.0758 63.8051 50.3308C61.3501 50.5808 61.7101 52.3208 61.7101 52.3208V52.3198ZM76.6751 57.3958C76.6751 57.3958 78.7901 55.5558 80.9351 57.0608C80.9351 57.0608 80.6201 55.4458 78.4951 55.6658C76.3651 55.8908 76.6751 57.3958 76.6751 57.3958ZM90.2401 60.2058C90.2401 60.2058 92.3551 58.3658 94.5001 59.8708C94.5001 59.8708 94.1851 58.2558 92.0601 58.4758C89.9351 58.6958 90.2401 60.2058 90.2401 60.2058ZM103.185 61.2198C103.185 61.2198 105.3 59.3798 107.445 60.8848C107.445 60.8848 107.13 59.2698 105.005 59.4898C102.88 59.7098 103.185 61.2198 103.185 61.2198ZM113.085 61.2198C113.085 61.2198 115.2 59.3798 117.345 60.8848C117.345 60.8848 117.03 59.2698 114.905 59.4898C112.775 59.7098 113.085 61.2198 113.085 61.2198ZM124.44 27.4498C124.44 27.4498 121.46 24.2258 118.44 26.8658C118.44 26.8658 118.885 24.0358 121.88 24.4208C124.875 24.8058 124.44 27.4508 124.44 27.4508V27.4498ZM144.895 31.2498C144.895 31.2498 142.115 28.2398 139.29 30.7048C139.29 30.7048 139.705 28.0598 142.5 28.4248C145.305 28.7848 144.895 31.2498 144.895 31.2498ZM161.785 39.4698C161.785 39.4698 159.17 36.8458 156.515 38.9958C156.515 38.9958 156.905 36.6908 159.535 37.0058C162.17 37.3158 161.785 39.4708 161.785 39.4708V39.4698ZM159.245 52.3198C159.245 52.3198 156.805 50.1998 154.335 51.9358C154.335 51.9358 154.7 50.0758 157.15 50.3308C159.605 50.5808 159.245 52.3208 159.245 52.3208V52.3198ZM144.28 57.3958C144.28 57.3958 142.165 55.5558 140.02 57.0608C140.02 57.0608 140.335 55.4458 142.46 55.6658C144.59 55.8908 144.28 57.3958 144.28 57.3958ZM130.72 60.2058C130.72 60.2058 128.605 58.3658 126.46 59.8708C126.46 59.8708 126.775 58.2558 128.9 58.4758C131.025 58.6958 130.72 60.2058 130.72 60.2058Z" fill="#052B61"/>
<path d="M99.5451 31.16C98.5602 31.1587 97.6161 30.7668 96.9197 30.0704C96.2233 29.374 95.8314 28.4299 95.8301 27.445C95.8314 26.4601 96.2233 25.516 96.9197 24.8195C97.6161 24.1231 98.5602 23.7313 99.5451 23.73C100.53 23.7305 101.475 24.1221 102.171 24.8187C102.868 25.5152 103.26 26.4599 103.26 27.445C103.258 28.4295 102.866 29.3731 102.169 30.0693C101.473 30.7654 100.53 31.1576 99.5451 31.16ZM99.5451 25.105C98.9234 25.1058 98.3274 25.3531 97.8878 25.7927C97.4482 26.2323 97.2009 26.8283 97.2001 27.45C97.2001 28.74 98.2501 29.795 99.5451 29.795C100.835 29.795 101.89 28.745 101.89 27.45C101.888 26.8286 101.641 26.2332 101.201 25.7939C100.762 25.3545 100.166 25.1068 99.5451 25.105ZM78.8851 34.765C77.9533 34.7637 77.06 34.3929 76.4011 33.734C75.7422 33.0751 75.3714 32.1818 75.3701 31.25C75.3706 30.3179 75.7411 29.4242 76.4002 28.7651C77.0593 28.106 77.953 27.7355 78.8851 27.735C79.8169 27.7363 80.7102 28.1071 81.3691 28.766C82.028 29.4249 82.3988 30.3182 82.4001 31.25C82.3996 32.1821 82.0291 33.0758 81.37 33.7349C80.7109 34.394 79.8172 34.7645 78.8851 34.765ZM78.8851 29.11C77.7051 29.11 76.7401 30.07 76.7401 31.255C76.7401 32.435 77.7001 33.4 78.8851 33.4C79.454 33.4 79.9996 33.174 80.4018 32.7717C80.8041 32.3695 81.0301 31.8239 81.0301 31.255C81.0301 30.6861 80.8041 30.1405 80.4018 29.7382C79.9996 29.336 79.454 29.11 78.8851 29.11ZM61.8301 42.62C59.9851 42.62 58.4851 41.205 58.4851 39.465C58.4851 37.725 59.9851 36.31 61.8301 36.31C63.6751 36.31 65.1751 37.725 65.1751 39.465C65.1751 41.205 63.6751 42.62 61.8301 42.62ZM61.8301 37.685C60.7401 37.685 59.8551 38.485 59.8551 39.47C59.8551 40.455 60.7401 41.255 61.8301 41.255C62.9201 41.255 63.8051 40.455 63.8051 39.47C63.8051 38.485 62.9201 37.685 61.8301 37.685ZM64.1851 54.995C62.4401 54.995 61.0201 53.795 61.0201 52.32C61.0201 50.845 62.4401 49.645 64.1851 49.645C65.9301 49.645 67.3501 50.845 67.3501 52.32C67.3501 53.795 65.9301 54.995 64.1851 54.995ZM64.1851 51.01C63.2151 51.01 62.3901 51.61 62.3901 52.315C62.3901 53.02 63.2101 53.62 64.1851 53.62C65.1551 53.62 65.9801 53.02 65.9801 52.315C65.9801 51.61 65.1601 51.01 64.1851 51.01ZM78.8251 59.81C77.2601 59.81 75.9901 58.73 75.9901 57.395C75.9901 56.065 77.2601 54.98 78.8251 54.98C80.3901 54.98 81.6601 56.06 81.6601 57.395C81.6601 58.73 80.3901 59.81 78.8251 59.81ZM78.8251 56.355C78.0301 56.355 77.3601 56.83 77.3601 57.4C77.3601 57.97 78.0301 58.445 78.8251 58.445C79.6201 58.445 80.2901 57.965 80.2901 57.4C80.2901 56.835 79.6201 56.355 78.8251 56.355ZM92.3901 62.615C90.8251 62.615 89.5551 61.535 89.5551 60.2C89.5551 58.865 90.8251 57.785 92.3901 57.785C93.9551 57.785 95.2251 58.865 95.2251 60.2C95.2251 61.535 93.9501 62.615 92.3901 62.615ZM92.3901 59.16C91.5951 59.16 90.9251 59.635 90.9251 60.205C90.9251 60.775 91.5951 61.25 92.3901 61.25C93.1851 61.25 93.8551 60.775 93.8551 60.205C93.8551 59.635 93.1801 59.16 92.3901 59.16ZM105.335 63.63C103.77 63.63 102.5 62.55 102.5 61.215C102.5 59.88 103.77 58.8 105.335 58.8C106.9 58.8 108.17 59.88 108.17 61.215C108.17 62.55 106.895 63.63 105.335 63.63ZM105.335 60.175C104.54 60.175 103.87 60.655 103.87 61.22C103.87 61.785 104.54 62.265 105.335 62.265C106.13 62.265 106.8 61.79 106.8 61.22C106.8 60.65 106.13 60.175 105.335 60.175ZM115.235 63.63C113.67 63.63 112.4 62.55 112.4 61.215C112.4 59.88 113.67 58.8 115.235 58.8C116.8 58.8 118.07 59.88 118.07 61.215C118.07 62.55 116.795 63.63 115.235 63.63ZM115.235 60.175C114.44 60.175 113.77 60.655 113.77 61.22C113.77 61.785 114.44 62.265 115.235 62.265C116.03 62.265 116.7 61.79 116.7 61.22C116.7 60.65 116.03 60.175 115.235 60.175ZM121.41 31.16C120.425 31.1587 119.481 30.7668 118.785 30.0704C118.088 29.374 117.696 28.4299 117.695 27.445C117.696 26.4601 118.088 25.516 118.785 24.8195C119.481 24.1231 120.425 23.7313 121.41 23.73C122.395 23.7305 123.34 24.1221 124.036 24.8187C124.733 25.5152 125.125 26.4599 125.125 27.445C125.125 28.4301 124.733 29.3747 124.036 30.0713C123.34 30.7679 122.395 31.1595 121.41 31.16ZM121.41 25.105C120.788 25.1058 120.192 25.3531 119.753 25.7927C119.313 26.2323 119.066 26.8283 119.065 27.45C119.065 27.9138 119.203 28.3672 119.46 28.7528C119.718 29.1384 120.084 29.439 120.513 29.6165C120.941 29.794 121.413 29.8404 121.868 29.7499C122.322 29.6594 122.74 29.4361 123.068 29.1081C123.396 28.7802 123.62 28.3624 123.71 27.9075C123.801 27.4526 123.754 26.9811 123.577 26.5526C123.399 26.1241 123.099 25.7579 122.713 25.5002C122.327 25.2425 121.874 25.105 121.41 25.105ZM142.07 34.765C141.138 34.7637 140.245 34.3929 139.586 33.734C138.927 33.0751 138.556 32.1818 138.555 31.25C138.556 30.3179 138.926 29.4242 139.585 28.7651C140.244 28.106 141.138 27.7355 142.07 27.735C143.002 27.7363 143.895 28.1071 144.554 28.766C145.213 29.4249 145.584 30.3182 145.585 31.25C145.584 32.1818 145.213 33.0751 144.554 33.734C143.895 34.3929 143.002 34.7637 142.07 34.765ZM142.07 29.11C140.89 29.11 139.925 30.07 139.925 31.255C139.925 31.6792 140.051 32.0939 140.287 32.4467C140.522 32.7994 140.857 33.0744 141.249 33.2367C141.641 33.3991 142.072 33.4415 142.489 33.3588C142.905 33.276 143.287 33.0717 143.587 32.7717C143.887 32.4717 144.091 32.0895 144.174 31.6735C144.257 31.2574 144.214 30.8261 144.052 30.4341C143.889 30.0422 143.615 29.7072 143.262 29.4715C142.909 29.2358 142.494 29.11 142.07 29.11ZM159.125 42.62C157.28 42.62 155.78 41.205 155.78 39.465C155.78 37.725 157.28 36.31 159.125 36.31C160.97 36.31 162.47 37.725 162.47 39.465C162.47 41.205 160.97 42.62 159.125 42.62ZM159.125 37.685C158.035 37.685 157.15 38.485 157.15 39.47C157.15 40.455 158.035 41.255 159.125 41.255C160.215 41.255 161.1 40.455 161.1 39.47C161.1 38.485 160.215 37.685 159.125 37.685ZM156.77 54.995C155.025 54.995 153.605 53.795 153.605 52.32C153.605 50.845 155.025 49.645 156.77 49.645C158.515 49.645 159.935 50.845 159.935 52.32C159.935 53.795 158.515 54.995 156.77 54.995ZM156.77 51.01C155.8 51.01 154.975 51.61 154.975 52.315C154.975 53.02 155.795 53.62 156.77 53.62C157.74 53.62 158.565 53.02 158.565 52.315C158.565 51.61 157.74 51.01 156.77 51.01ZM142.13 59.81C140.565 59.81 139.295 58.73 139.295 57.395C139.295 56.065 140.565 54.98 142.13 54.98C143.695 54.98 144.965 56.06 144.965 57.395C144.965 58.73 143.695 59.81 142.13 59.81ZM142.13 56.355C141.335 56.355 140.665 56.83 140.665 57.4C140.665 57.97 141.335 58.445 142.13 58.445C142.925 58.445 143.595 57.965 143.595 57.4C143.595 56.835 142.925 56.355 142.13 56.355ZM128.57 62.615C127.005 62.615 125.735 61.535 125.735 60.2C125.735 58.865 127.005 57.785 128.57 57.785C130.135 57.785 131.405 58.865 131.405 60.2C131.405 61.535 130.13 62.615 128.57 62.615ZM128.57 59.16C127.775 59.16 127.105 59.635 127.105 60.205C127.105 60.775 127.775 61.25 128.57 61.25C129.365 61.25 130.035 60.775 130.035 60.205C130.035 59.635 129.36 59.16 128.57 59.16Z" fill="#052B61"/>
<path opacity="0.4" d="M49.925 37.8952C49.925 37.8952 59.3101 26.4752 88.2751 22.0302C100.84 20.4702 120.065 19.2052 143.13 23.8452C155.59 26.6202 164.375 30.8102 164.375 30.8102C164.375 30.8102 149.75 19.1202 112.15 18.5052C74.5501 17.8902 53.565 29.3352 49.925 37.8952Z" fill="white"/>
<path opacity="0.3" d="M81.6599 16.6348C81.6599 16.6348 88.7799 10.8798 98.0149 8.50977C98.0149 8.50977 106.675 14.9698 136.685 13.7098C136.685 13.7098 139.73 15.3998 141.09 16.7648C141.09 16.7648 129.2 14.1148 110.075 13.7098C91.4999 13.3148 81.6599 16.6348 81.6599 16.6348Z" fill="#2059A0"/>
<path opacity="0.4" d="M137.855 13.175C137.855 13.175 134.53 9.30504 120.52 6.57504C107.155 3.97004 96.7251 7.35504 96.7251 7.35504C96.7251 7.35504 104.735 6.59504 115.01 7.61004C115.01 7.62004 115.005 7.63004 115.005 7.64004C114.865 8.58004 116.685 9.63004 119.07 9.98504C121.455 10.345 123.505 9.87004 123.645 8.93504C123.65 8.91004 123.65 8.88504 123.65 8.86004C128.405 9.78004 133.29 11.15 137.855 13.175Z" fill="white"/>
<path d="M110.53 66.0551C93.1501 66.0551 76.8001 63.3501 64.4951 58.4401C51.9901 53.4501 45.1001 46.7351 45.1001 39.5351C45.1001 32.3351 51.9901 25.6201 64.4951 20.6301C76.8051 15.7201 93.1501 13.0151 110.53 13.0151C127.91 13.0151 144.26 15.7201 156.565 20.6301C169.07 25.6201 175.96 32.3351 175.96 39.5351C175.96 46.7351 169.07 53.4501 156.565 58.4401C144.26 63.3501 127.91 66.0551 110.53 66.0551ZM110.53 14.3901C93.3201 14.3901 77.1501 17.0601 65.0001 21.9101C59.1351 24.2501 54.5401 26.9651 51.3401 29.9851C48.1051 33.0351 46.4651 36.2501 46.4651 39.5401C46.4651 42.8301 48.1051 46.0451 51.3401 49.0951C54.5401 52.1101 59.1351 54.8301 65.0001 57.1701C77.1501 62.0201 93.3201 64.6901 110.53 64.6901C127.74 64.6901 143.91 62.0201 156.06 57.1701C161.925 54.8301 166.52 52.1151 169.72 49.0951C172.955 46.0451 174.595 42.8301 174.595 39.5401C174.595 36.2501 172.955 33.0351 169.72 29.9851C166.52 26.9701 161.925 24.2501 156.06 21.9101C143.91 17.0601 127.74 14.3901 110.53 14.3901Z" fill="#052B61"/>
<path d="M110.53 56.93C99.375 56.93 88.88 55.95 80.975 54.165C75.175 52.855 68.26 50.525 68.26 46.86C68.26 43.195 75.175 40.865 80.975 39.555C88.875 37.77 99.375 36.79 110.53 36.79C121.685 36.79 132.18 37.77 140.085 39.555C145.885 40.865 152.8 43.195 152.8 46.86C152.8 50.525 145.885 52.855 140.085 54.165C132.185 55.95 121.685 56.93 110.53 56.93ZM110.53 38.16C86.43 38.16 69.63 42.745 69.63 46.86C69.63 50.975 86.425 55.56 110.53 55.56C134.63 55.56 151.43 50.975 151.43 46.86C151.43 42.745 134.63 38.16 110.53 38.16Z" fill="#052B61"/>
<path d="M77.8301 41.9251C77.7409 41.9255 77.6532 41.9031 77.5751 41.8601C69.8701 37.5901 63.7601 27.3251 63.5051 26.8901C63.4696 26.8308 63.4462 26.765 63.4363 26.6966C63.4264 26.6282 63.4302 26.5585 63.4474 26.4915C63.4646 26.4246 63.4949 26.3617 63.5366 26.3065C63.5782 26.2513 63.6304 26.205 63.6901 26.1701C63.8102 26.0995 63.9533 26.0794 64.0883 26.114C64.2232 26.1487 64.3389 26.2354 64.4101 26.3551C64.4701 26.4601 70.6301 36.8051 78.0851 40.9351C78.3401 41.0751 78.4301 41.3951 78.2901 41.6501C78.246 41.7337 78.1798 41.8036 78.0987 41.8521C78.0175 41.9007 77.9246 41.9259 77.8301 41.9251ZM62.4151 47.8201C56.0101 47.8201 50.0701 46.8301 49.9901 46.8201C49.8603 46.7892 49.747 46.7101 49.6733 46.5988C49.5997 46.4875 49.571 46.3523 49.5933 46.2207C49.6156 46.0891 49.687 45.9709 49.7932 45.89C49.8994 45.8091 50.0323 45.7716 50.1651 45.7851C50.2701 45.8051 60.8551 47.5601 68.8651 46.3451C69.003 46.3239 69.1437 46.3583 69.2562 46.4408C69.3687 46.5233 69.4439 46.6472 69.4651 46.7851C69.4863 46.923 69.4519 47.0637 69.3694 47.1762C69.2868 47.2887 69.163 47.3639 69.0251 47.3851C66.9201 47.7001 64.6401 47.8201 62.4151 47.8201ZM65.5651 58.4551C65.4393 58.4554 65.3175 58.4108 65.2217 58.3293C65.1259 58.2479 65.0623 58.1348 65.0424 58.0106C65.0225 57.8864 65.0476 57.7592 65.1132 57.6518C65.1787 57.5445 65.2805 57.4641 65.4001 57.4251C65.4801 57.4001 73.3351 54.8051 76.2901 51.9251C76.5001 51.7201 76.8301 51.7251 77.0351 51.9351C77.2401 52.1451 77.2351 52.4751 77.0251 52.6801C73.8951 55.7301 66.0601 58.3151 65.7301 58.4251C65.678 58.4471 65.6216 58.4573 65.5651 58.4551ZM84.4701 63.7001C84.3739 63.6995 84.2796 63.6727 84.1975 63.6224C84.1154 63.5722 84.0486 63.5004 84.0044 63.415C83.9601 63.3295 83.94 63.2336 83.9463 63.1376C83.9526 63.0415 83.985 62.949 84.0401 62.8701C84.0651 62.8351 86.4501 59.4051 88.9801 54.8651C89.0523 54.7522 89.1649 54.6711 89.2948 54.6382C89.4247 54.6054 89.5623 54.6233 89.6795 54.6882C89.7967 54.7532 89.8848 54.8604 89.9257 54.988C89.9667 55.1156 89.9576 55.254 89.9001 55.3751C88.3588 58.1495 86.6921 60.8523 84.9051 63.4751C84.8554 63.5442 84.7902 63.6006 84.7146 63.6397C84.639 63.6788 84.5552 63.6995 84.4701 63.7001ZM94.1551 38.7601C94.0051 38.7601 93.8551 38.6951 93.7551 38.5751C88.7001 32.6201 85.4251 21.1051 85.2901 20.6151C85.2714 20.5485 85.266 20.4788 85.2742 20.41C85.2824 20.3413 85.3041 20.2749 85.338 20.2145C85.3719 20.1541 85.4173 20.1011 85.4717 20.0583C85.5261 20.0155 85.5884 19.9838 85.6551 19.9651C85.7217 19.9464 85.7914 19.941 85.8602 19.9492C85.9289 19.9574 85.9953 19.9791 86.0557 20.013C86.116 20.0469 86.1691 20.0923 86.2119 20.1467C86.2547 20.2011 86.2864 20.2635 86.3051 20.3301C86.3401 20.4451 89.6551 32.1101 94.5601 37.8901C94.6505 37.997 94.695 38.1354 94.6838 38.275C94.6725 38.4146 94.6065 38.544 94.5001 38.6351C94.4019 38.7135 94.2807 38.7574 94.1551 38.7601ZM143.325 41.9251C143.208 41.9255 143.095 41.8871 143.003 41.8159C142.91 41.7446 142.844 41.6446 142.815 41.5317C142.786 41.4187 142.795 41.2993 142.841 41.1921C142.887 41.085 142.968 40.9963 143.07 40.9401C150.525 36.8101 156.685 26.4601 156.745 26.3601C156.895 26.1101 157.215 26.0251 157.465 26.1751C157.715 26.3251 157.8 26.6451 157.65 26.8951C157.395 27.3301 151.285 37.5951 143.58 41.8651C143.501 41.9049 143.414 41.9254 143.325 41.9251ZM158.74 47.8201C156.515 47.8201 154.24 47.7001 152.13 47.3801C152.062 47.3701 151.996 47.3466 151.936 47.3109C151.877 47.2752 151.825 47.2281 151.784 47.1722C151.743 47.1164 151.714 47.053 151.698 46.9857C151.682 46.9183 151.679 46.8485 151.69 46.7801C151.7 46.7117 151.724 46.6461 151.76 46.587C151.796 46.5278 151.843 46.4763 151.899 46.4355C151.954 46.3946 152.018 46.3651 152.085 46.3487C152.152 46.3324 152.222 46.3294 152.29 46.3401C160.3 47.5551 170.885 45.8001 170.99 45.7801C171.058 45.7679 171.128 45.7695 171.195 45.7846C171.263 45.7997 171.326 45.8281 171.383 45.8681C171.439 45.9082 171.487 45.959 171.523 46.0177C171.56 46.0765 171.584 46.1419 171.595 46.2101C171.607 46.2781 171.605 46.3477 171.59 46.415C171.574 46.4823 171.546 46.5459 171.506 46.6021C171.466 46.6583 171.415 46.7061 171.357 46.7427C171.298 46.7792 171.233 46.8038 171.165 46.8151C171.085 46.8351 165.14 47.8201 158.74 47.8201ZM155.59 58.4551C155.534 58.4541 155.479 58.4457 155.425 58.4301C155.095 58.3201 147.26 55.7301 144.13 52.6851C144.08 52.637 144.04 52.5795 144.013 52.516C143.985 52.4524 143.971 52.384 143.97 52.3147C143.969 52.2454 143.981 52.1766 144.007 52.1123C144.033 52.048 144.071 51.9895 144.12 51.9401C144.168 51.8902 144.226 51.8503 144.289 51.8228C144.353 51.7952 144.421 51.7805 144.491 51.7796C144.56 51.7787 144.629 51.7915 144.693 51.8173C144.757 51.8432 144.816 51.8815 144.865 51.9301C147.82 54.8101 155.675 57.4051 155.755 57.4301C155.875 57.4684 155.977 57.5483 156.042 57.6554C156.108 57.7624 156.133 57.8895 156.113 58.0136C156.093 58.1376 156.03 58.2504 155.934 58.3314C155.838 58.4124 155.716 58.4563 155.59 58.4551ZM136.69 63.7001C136.606 63.7 136.522 63.6794 136.448 63.6403C136.373 63.6011 136.308 63.5444 136.26 63.4751C136.235 63.4401 133.82 59.9701 131.265 55.3751C131.232 55.3147 131.21 55.2483 131.203 55.1796C131.195 55.111 131.2 55.0415 131.22 54.9751C131.239 54.9087 131.27 54.8467 131.313 54.7927C131.356 54.7386 131.41 54.6936 131.47 54.6601C131.531 54.6266 131.597 54.6053 131.666 54.5975C131.734 54.5897 131.804 54.5955 131.87 54.6145C131.936 54.6336 131.998 54.6655 132.052 54.7085C132.107 54.7515 132.152 54.8047 132.185 54.8651C134.715 59.4101 137.1 62.8401 137.125 62.8701C137.29 63.1101 137.235 63.4351 136.995 63.6051C136.904 63.6636 136.798 63.6964 136.69 63.7001ZM127 38.7601C126.9 38.7589 126.802 38.7292 126.718 38.6746C126.634 38.62 126.567 38.5426 126.525 38.4515C126.483 38.3604 126.468 38.2593 126.481 38.16C126.495 38.0606 126.536 37.967 126.6 37.8901C131.505 32.1101 134.82 20.4451 134.855 20.3301C134.874 20.2635 134.905 20.2011 134.948 20.1467C134.991 20.0923 135.044 20.0469 135.104 20.013C135.165 19.9791 135.231 19.9574 135.3 19.9492C135.369 19.941 135.438 19.9464 135.505 19.9651C135.572 19.9838 135.634 20.0155 135.688 20.0583C135.743 20.1011 135.788 20.1541 135.822 20.2145C135.856 20.2749 135.878 20.3413 135.886 20.41C135.894 20.4788 135.889 20.5485 135.87 20.6151C135.735 21.1001 132.46 32.6151 127.405 38.5751C127.355 38.633 127.292 38.6794 127.223 38.7113C127.153 38.7432 127.077 38.7598 127 38.7601ZM110.53 38.0001C110.461 38.0001 110.393 37.9865 110.329 37.9601C110.265 37.9338 110.208 37.8951 110.159 37.8463C110.11 37.7976 110.071 37.7397 110.045 37.676C110.019 37.6123 110.005 37.544 110.005 37.4751V18.5001C110.005 18.3609 110.06 18.2273 110.159 18.1289C110.257 18.0304 110.391 17.9751 110.53 17.9751C110.669 17.9751 110.803 18.0304 110.901 18.1289C111 18.2273 111.055 18.3609 111.055 18.5001V37.4751C111.055 37.7651 110.82 38.0001 110.53 38.0001ZM110.53 65.9001C110.461 65.9001 110.393 65.8865 110.329 65.8601C110.265 65.8338 110.208 65.7951 110.159 65.7463C110.11 65.6976 110.071 65.6397 110.045 65.576C110.019 65.5123 110.005 65.444 110.005 65.3751V56.2501C110.005 56.1109 110.06 55.9773 110.159 55.8789C110.257 55.7804 110.391 55.7251 110.53 55.7251C110.669 55.7251 110.803 55.7804 110.901 55.8789C111 55.9773 111.055 56.1109 111.055 56.2501V65.3751C111.055 65.6651 110.82 65.9001 110.53 65.9001ZM98.5101 65.4501C98.428 65.4508 98.3469 65.4322 98.2734 65.3958C98.1998 65.3594 98.1359 65.3061 98.0867 65.2404C98.0376 65.1747 98.0046 65.0983 97.9904 65.0175C97.9762 64.9367 97.9812 64.8536 98.0051 64.7751C98.0201 64.7201 99.5801 59.4251 100.325 55.8801C100.34 55.8125 100.367 55.7483 100.406 55.6914C100.446 55.6344 100.496 55.5858 100.554 55.5482C100.612 55.5105 100.677 55.4847 100.745 55.4722C100.813 55.4597 100.882 55.4607 100.95 55.4751C101.018 55.4895 101.082 55.5172 101.139 55.5564C101.196 55.5956 101.244 55.6457 101.282 55.7037C101.32 55.7618 101.345 55.8266 101.358 55.8946C101.371 55.9627 101.37 56.0325 101.355 56.1001C100.6 59.6851 99.0301 65.0201 99.0151 65.0751C98.9823 65.1835 98.9155 65.2785 98.8245 65.346C98.7336 65.4135 98.6234 65.45 98.5101 65.4501ZM123.065 65.4501C122.835 65.4501 122.625 65.3001 122.56 65.0701C122.545 65.0151 120.975 59.6801 120.22 56.0951C120.206 56.0275 120.205 55.9577 120.217 55.8896C120.23 55.8216 120.256 55.7568 120.293 55.6987C120.331 55.6407 120.379 55.5906 120.436 55.5514C120.493 55.5122 120.557 55.4845 120.625 55.4701C120.693 55.4557 120.763 55.4547 120.831 55.4672C120.899 55.4797 120.963 55.5055 121.021 55.5432C121.08 55.5808 121.13 55.6294 121.169 55.6864C121.208 55.7433 121.236 55.8075 121.25 55.8751C121.995 59.4151 123.555 64.7151 123.57 64.7701C123.65 65.0501 123.495 65.3401 123.215 65.4251C123.165 65.4451 123.115 65.4501 123.065 65.4501Z" fill="#052B61"/>
<path d="M110.53 66.0549C94.0149 66.0549 78.48 63.5999 66.785 59.1449C54.88 54.6099 48.325 48.4999 48.325 41.9349C48.325 35.3699 54.88 29.2599 66.785 24.7249C78.48 20.2699 94.0149 17.8149 110.53 17.8149C127.045 17.8149 142.58 20.2699 154.27 24.7249C166.175 29.2599 172.73 35.3699 172.73 41.9349C172.73 48.4999 166.175 54.6099 154.27 59.1449C142.58 63.6049 127.045 66.0549 110.53 66.0549ZM110.53 19.1849C94.1799 19.1849 78.82 21.6049 67.275 26.0049C61.705 28.1249 57.34 30.5899 54.305 33.3249C51.25 36.0799 49.695 38.9749 49.695 41.9399C49.695 44.9049 51.245 47.7999 54.305 50.5549C57.34 53.2899 61.705 55.7499 67.275 57.8749C78.82 62.2699 94.1799 64.6949 110.53 64.6949C126.88 64.6949 142.24 62.2749 153.785 57.8749C159.355 55.7549 163.72 53.2899 166.755 50.5549C169.81 47.7999 171.365 44.9049 171.365 41.9399C171.365 38.9749 169.815 36.0799 166.755 33.3249C163.72 30.5899 159.355 28.1299 153.785 26.0049C142.24 21.6049 126.88 19.1849 110.53 19.1849Z" fill="#052B61"/>
<path d="M110.53 53.29C100.525 53.29 91.1099 52.5 84.0249 51.06C76.4149 49.515 72.5549 47.49 72.5549 45.04C72.5549 42.59 76.4149 40.565 84.0249 39.02C91.1099 37.58 100.525 36.79 110.53 36.79C120.535 36.79 129.95 37.58 137.035 39.02C144.645 40.565 148.505 42.59 148.505 45.04C148.505 47.49 144.645 49.515 137.035 51.06C129.95 52.5 120.535 53.29 110.53 53.29ZM110.53 38.16C100.615 38.16 91.2949 38.94 84.2949 40.36C76.6449 41.91 73.9199 43.795 73.9199 45.04C73.9199 46.285 76.6449 48.165 84.2949 49.72C91.2949 51.14 100.61 51.92 110.53 51.92C120.445 51.92 129.765 51.14 136.765 49.72C144.415 48.17 147.14 46.285 147.14 45.04C147.14 43.795 144.415 41.915 136.765 40.36C129.765 38.94 120.445 38.16 110.53 38.16ZM143.13 17.9C142.95 17.9 142.77 17.83 142.64 17.69C142.615 17.66 139.83 14.825 134.485 12.025C129.555 9.445 121.375 6.365 110.395 6.365C99.4249 6.365 91.5249 9.39 86.8299 11.93C81.7399 14.68 79.2099 17.47 79.1849 17.5C79.0639 17.6347 78.8945 17.716 78.7138 17.7263C78.533 17.7366 78.3555 17.675 78.2199 17.555C78.0853 17.434 78.0039 17.2646 77.9936 17.0838C77.9833 16.9031 78.0449 16.7256 78.1649 16.59C78.2699 16.47 80.8399 13.625 86.1149 10.765C90.9599 8.135 99.0999 5 110.395 5C121.685 5 130.105 8.18 135.18 10.845C140.7 13.745 143.51 16.62 143.63 16.74C143.756 16.8707 143.826 17.0463 143.823 17.2281C143.82 17.4099 143.745 17.5832 143.615 17.71C143.481 17.8298 143.309 17.8973 143.13 17.9Z" fill="#052B61"/>
<path opacity="0.3" d="M218.56 276.48L138.735 41.2048C138.735 39.5798 126.11 38.2598 110.53 38.2598C94.955 38.2598 82.325 39.5798 82.325 41.2048L2.5 276.48H218.56Z" fill="url(#paint0_linear_122_13771)"/>
<path opacity="0.3" d="M214.315 326.215L138.735 41.1999C138.735 39.5749 126.11 38.2549 110.53 38.2549C94.955 38.2549 82.325 39.5749 82.325 41.1999L6.74503 326.215C6.21503 327.25 5.90503 328.305 5.90503 329.375C5.90503 343.38 52.745 354.73 110.53 354.73C168.31 354.73 215.155 343.375 215.155 329.375C215.155 328.305 214.85 327.255 214.315 326.215Z" fill="url(#paint1_linear_122_13771)"/>
<path opacity="0.2" d="M110.53 354.735C168.313 354.735 215.155 343.384 215.155 329.38C215.155 315.377 168.313 304.025 110.53 304.025C52.747 304.025 5.90503 315.377 5.90503 329.38C5.90503 343.384 52.747 354.735 110.53 354.735Z" fill="white"/>
<path d="M81.2399 274.14L91.2049 271.12L96.5549 288.775L86.5899 291.795L91.3799 307.605L69.7199 314.17L64.9299 298.36L28.9749 309.255L22.8049 288.895L44.0799 237.75L68.0149 230.495L81.2399 274.14ZM60.3399 280.475L53.2199 256.975L40.9549 286.35L60.3399 280.475Z" fill="#052B61" stroke="#052B61" stroke-width="2" stroke-miterlimit="10"/>
<path d="M90.5251 271.325L100.49 268.305L105.84 285.96L95.8751 288.98L100.665 304.79L79.0051 311.355L74.2151 295.545L38.2601 306.44L32.0901 286.08L53.3651 234.935L77.3001 227.68L90.5251 271.325ZM69.6201 277.66L62.5001 254.16L50.2351 283.535L69.6201 277.66Z" fill="white" stroke="#052B61" stroke-width="2" stroke-miterlimit="10"/>
<path d="M172.615 245.205L182.67 247.91L177.88 265.725L167.825 263.02L163.535 278.975L141.68 273.1L145.97 257.145L109.685 247.39L115.21 226.845L160.305 194.67L184.455 201.165L172.615 245.205ZM151.525 239.535L157.9 215.82L131.96 234.275L151.525 239.535Z" fill="#052B61" stroke="#052B61" stroke-width="2" stroke-miterlimit="10"/>
<path d="M181.985 247.725L192.04 250.43L187.25 268.245L177.195 265.54L172.905 281.495L151.05 275.62L155.34 259.665L119.055 249.91L124.58 229.365L169.675 197.19L193.825 203.685L181.985 247.725ZM160.895 242.055L167.27 218.34L141.33 236.795L160.895 242.055Z" fill="white" stroke="#052B61" stroke-width="2" stroke-miterlimit="10"/>
<path opacity="0.2" d="M78.3349 332.42C97.601 332.42 113.22 330.936 113.22 329.105C113.22 327.274 97.601 325.79 78.3349 325.79C59.0679 325.79 43.45 327.274 43.45 329.105C43.45 330.936 59.0679 332.42 78.3349 332.42ZM160.575 330.95C171.295 330.95 179.985 330.124 179.985 329.105C179.985 328.086 171.295 327.26 160.575 327.26C149.855 327.26 141.165 328.086 141.165 329.105C141.165 330.124 149.855 330.95 160.575 330.95Z" fill="#052B61"/>
<path d="M131.26 211.95C124.74 218.975 115.565 222.21 103.735 221.66C91.9001 221.11 83.1051 217.04 77.3401 209.445C71.4901 202 68.8851 191.495 69.5151 177.925C70.1401 164.435 73.7151 154.18 80.2351 147.155C86.6751 140.205 95.8101 137 107.645 137.55C119.4 138.095 128.24 142.13 134.16 149.655C139.92 157.325 142.49 167.865 141.87 181.28C141.235 194.78 137.7 205 131.26 211.95ZM104.59 203.235C108.96 203.44 112.25 201.78 114.45 198.255C116.65 194.73 117.95 188.715 118.345 180.195C118.735 171.755 118 165.66 116.135 161.91C114.27 158.16 111.15 156.185 106.78 155.98C102.635 155.79 99.3851 157.41 97.0401 160.85C94.7651 164.295 93.4251 170.35 93.0251 179.015C92.6251 187.68 93.3951 193.8 95.3451 197.36C97.2851 201.085 100.37 203.04 104.59 203.235Z" fill="#052B61" stroke="#052B61" stroke-width="2" stroke-miterlimit="10"/>
<path d="M140.95 212.4C134.43 219.425 125.255 222.66 113.425 222.11C101.59 221.56 92.795 217.49 87.03 209.895C81.18 202.45 78.575 191.945 79.205 178.375C79.83 164.885 83.405 154.63 89.925 147.605C96.365 140.655 105.5 137.45 117.335 138C129.09 138.545 137.93 142.58 143.85 150.105C149.61 157.775 152.18 168.315 151.56 181.73C150.925 195.23 147.39 205.45 140.95 212.4ZM114.28 203.685C118.65 203.89 121.94 202.23 124.14 198.705C126.345 195.18 127.64 189.165 128.035 180.645C128.425 172.205 127.69 166.11 125.825 162.36C123.96 158.61 120.84 156.635 116.47 156.43C112.325 156.24 109.075 157.86 106.73 161.3C104.455 164.745 103.115 170.8 102.715 179.465C102.315 188.13 103.085 194.25 105.035 197.81C106.975 201.535 110.055 203.49 114.28 203.685Z" fill="white" stroke="#052B61" stroke-width="2" stroke-miterlimit="10"/>
<defs>
<linearGradient id="paint0_linear_122_13771" x1="110.53" y1="259.445" x2="110.53" y2="59.0218" gradientUnits="userSpaceOnUse">
<stop stop-color="#62DCFB" stop-opacity="0"/>
<stop offset="0.999" stop-color="#62DCFB"/>
</linearGradient>
<linearGradient id="paint1_linear_122_13771" x1="110.53" y1="40.6199" x2="110.53" y2="316.051" gradientUnits="userSpaceOnUse">
<stop offset="0.1" stop-color="#62DCFB" stop-opacity="0.9"/>
<stop offset="1" stop-color="#62DCFB"/>
</linearGradient>
</defs>
</svg>
