<svg width="120" height="120" viewBox="0 0 120 120" fill="none" xmlns="http://www.w3.org/2000/svg">
<path d="M108.445 51.4578C113.162 78.213 95.2974 103.727 68.5422 108.445C41.787 113.162 16.2732 95.2974 11.5554 68.5422C6.8376 41.787 24.7026 16.2732 51.4578 11.5554C78.213 6.8376 103.727 24.7026 108.445 51.4578Z" fill="url(#paint0_linear_4741_3536)"/>
<path opacity="0.9" d="M60 90.6V55.8L91.8 45V74.6412C91.8 77.1318 91.8 78.3774 91.1262 79.3176C90.453 80.2578 89.2734 80.658 86.9154 81.459L60 90.6Z" fill="url(#paint1_linear_4741_3536)" fill-opacity="0.9"/>
<path opacity="0.9" d="M60.0002 90.6V55.8L28.2002 45V74.6412C28.2002 77.1318 28.2002 78.3774 28.874 79.3176C29.5472 80.2578 30.7268 80.658 33.0848 81.459L60.0002 90.6Z" fill="url(#paint2_linear_4741_3536)" fill-opacity="0.9"/>
<path opacity="0.3" d="M60.0002 45.0002V34.2002L28.2002 45.0002L60.0002 55.8002V45.0002Z" fill="url(#paint3_linear_4741_3536)" fill-opacity="0.9"/>
<path opacity="0.3" d="M60 45.0002V34.2002L91.8 45.0002L60 55.8002V45.0002Z" fill="url(#paint4_linear_4741_3536)" fill-opacity="0.9"/>
<path opacity="0.4" d="M91.8 45L97.2 54.6L65.4 65.4L60 55.8L91.8 45Z" fill="url(#paint5_linear_4741_3536)" fill-opacity="0.6"/>
<path opacity="0.4" d="M28.1998 45L22.7998 54.6L54.5998 65.4L59.9998 55.8L28.1998 45Z" fill="url(#paint6_linear_4741_3536)" fill-opacity="0.6"/>
<path d="M60 26.4V10.5" stroke="url(#paint7_linear_4741_3536)" stroke-width="4" stroke-linecap="round"/>
<path d="M60 26.4V10.5" stroke="url(#paint8_linear_4741_3536)" stroke-opacity="0.2" stroke-width="4" stroke-linecap="round"/>
<path d="M83.9996 20.4004C81.3579 20.4002 78.79 21.2719 76.6941 22.88C74.5983 24.4882 73.0918 26.743 72.4082 29.2948" stroke="url(#paint9_linear_4741_3536)" stroke-width="4" stroke-linecap="round"/>
<path d="M83.9996 20.4004C81.3579 20.4002 78.79 21.2719 76.6941 22.88C74.5983 24.4882 73.0918 26.743 72.4082 29.2948" stroke="url(#paint10_linear_4741_3536)" stroke-opacity="0.2" stroke-width="4" stroke-linecap="round"/>
<path d="M36 20.4004C38.6417 20.4003 41.2096 21.272 43.3054 22.8802C45.4012 24.4883 46.9077 26.7431 47.5914 29.2948" stroke="url(#paint11_linear_4741_3536)" stroke-width="4" stroke-linecap="round"/>
<path d="M36 20.4004C38.6417 20.4003 41.2096 21.272 43.3054 22.8802C45.4012 24.4883 46.9077 26.7431 47.5914 29.2948" stroke="url(#paint12_linear_4741_3536)" stroke-opacity="0.2" stroke-width="4" stroke-linecap="round"/>
<path d="M34.5269 28.5817C34.7979 29.3947 35.2545 30.1335 35.8605 30.7395C36.4665 31.3455 37.2053 31.8021 38.0183 32.0731C38.0868 32.0961 38.1463 32.1401 38.1885 32.1987C38.2306 32.2574 38.2533 32.3278 38.2533 32.4001C38.2533 32.4723 38.2306 32.5428 38.1885 32.6014C38.1463 32.6601 38.0868 32.7041 38.0183 32.7271C37.2053 32.9981 36.4665 33.4547 35.8605 34.0607C35.2545 34.6667 34.7979 35.4054 34.5269 36.2185C34.5039 36.287 34.4599 36.3465 34.4012 36.3887C34.3426 36.4308 34.2722 36.4535 34.1999 36.4535C34.1277 36.4535 34.0572 36.4308 33.9986 36.3887C33.9399 36.3465 33.8959 36.287 33.8729 36.2185C33.6019 35.4054 33.1453 34.6667 32.5393 34.0607C31.9333 33.4547 31.1946 32.9981 30.3815 32.7271C30.313 32.7041 30.2535 32.6601 30.2113 32.6014C30.1692 32.5428 30.1465 32.4723 30.1465 32.4001C30.1465 32.3278 30.1692 32.2574 30.2113 32.1987C30.2535 32.1401 30.313 32.0961 30.3815 32.0731C31.1946 31.8021 31.9333 31.3455 32.5393 30.7395C33.1453 30.1335 33.6019 29.3947 33.8729 28.5817C33.8959 28.5132 33.9399 28.4537 33.9986 28.4115C34.0572 28.3694 34.1277 28.3467 34.1999 28.3467C34.2722 28.3467 34.3426 28.3694 34.4012 28.4115C34.4599 28.4537 34.5039 28.5132 34.5269 28.5817Z" fill="url(#paint13_linear_4741_3536)"/>
<path d="M73.0905 6.2725C73.4969 7.49192 74.1817 8.59997 75.0905 9.50891C75.9994 10.4179 77.1073 11.1027 78.3267 11.5093C78.7989 11.6665 78.7989 12.3337 78.3267 12.4909C77.1074 12.8974 75.9995 13.5822 75.0906 14.491C74.1818 15.3999 73.497 16.5078 73.0905 17.7271C72.9333 18.1993 72.2661 18.1993 72.1089 17.7271C71.7024 16.5078 71.0176 15.3999 70.1088 14.491C69.1999 13.5822 68.092 12.8974 66.8727 12.4909C66.4005 12.3337 66.4005 11.6665 66.8727 11.5093C68.092 11.1028 69.1999 10.418 70.1088 9.50918C71.0176 8.60034 71.7024 7.49241 72.1089 6.2731C72.2661 5.8009 72.9333 5.8003 73.0905 6.2725Z" fill="url(#paint14_linear_4741_3536)"/>
<path d="M45.2979 9.96598C45.9349 10.3408 46.6606 10.5385 47.3997 10.5385C48.1388 10.5385 48.8645 10.3408 49.5015 9.96598C49.8471 9.76318 50.2371 10.1526 50.0337 10.4982C49.6588 11.1352 49.4612 11.8609 49.4612 12.6C49.4612 13.3391 49.6588 14.0648 50.0337 14.7018C50.2371 15.0474 49.8477 15.4368 49.5015 15.234C48.8645 14.8591 48.1388 14.6614 47.3997 14.6614C46.6606 14.6614 45.9349 14.8591 45.2979 15.234C44.9523 15.4368 44.5629 15.0474 44.7663 14.7018C45.1411 14.0648 45.3387 13.3391 45.3387 12.6C45.3387 11.8609 45.1411 11.1352 44.7663 10.4982C44.5623 10.1526 44.9523 9.76318 45.2979 9.96598Z" fill="url(#paint15_linear_4741_3536)"/>
<path d="M83.6981 29.7658C84.3351 30.1406 85.0607 30.3383 85.7999 30.3383C86.539 30.3383 87.2647 30.1406 87.9017 29.7658C88.2473 29.563 88.6373 29.9524 88.4339 30.298C88.0591 30.935 87.8614 31.6607 87.8614 32.3998C87.8614 33.1389 88.0591 33.8646 88.4339 34.5016C88.6373 34.8472 88.2473 35.2366 87.9017 35.0338C87.2647 34.6589 86.539 34.4613 85.7999 34.4613C85.0607 34.4613 84.3351 34.6589 83.6981 35.0338C83.3525 35.2366 82.9631 34.8472 83.1665 34.5016C83.5413 33.8646 83.7389 33.1389 83.7389 32.3998C83.7389 31.6607 83.5413 30.935 83.1665 30.298C82.9631 29.9524 83.3525 29.563 83.6981 29.7658Z" fill="url(#paint16_linear_4741_3536)"/>
<defs>
<linearGradient id="paint0_linear_4741_3536" x1="42.5028" y1="2.2962" x2="80.2998" y2="121.369" gradientUnits="userSpaceOnUse">
<stop stop-color="#A7B3BE" stop-opacity="0.05"/>
<stop offset="1" stop-color="#A7B3BE" stop-opacity="0.3"/>
</linearGradient>
<linearGradient id="paint1_linear_4741_3536" x1="60.795" y1="42.72" x2="100.442" y2="94.7664" gradientUnits="userSpaceOnUse">
<stop stop-color="#F0F2F5"/>
<stop offset="1" stop-color="#AFBDCF" stop-opacity="0.85"/>
</linearGradient>
<linearGradient id="paint2_linear_4741_3536" x1="28.2002" y1="45" x2="55.8434" y2="92.994" gradientUnits="userSpaceOnUse">
<stop stop-color="#F0F2F5"/>
<stop offset="1" stop-color="#AFBDCF" stop-opacity="0.85"/>
</linearGradient>
<linearGradient id="paint3_linear_4741_3536" x1="62.1002" y1="77.4002" x2="46.5002" y2="30.3002" gradientUnits="userSpaceOnUse">
<stop stop-color="#F0F2F5"/>
<stop offset="1" stop-color="#AFBDCF" stop-opacity="0.85"/>
</linearGradient>
<linearGradient id="paint4_linear_4741_3536" x1="81.6" y1="99.6002" x2="66" y2="34.2002" gradientUnits="userSpaceOnUse">
<stop stop-color="#F0F2F5"/>
<stop offset="1" stop-color="#AFBDCF" stop-opacity="0.85"/>
</linearGradient>
<linearGradient id="paint5_linear_4741_3536" x1="97.2" y1="45" x2="57.4332" y2="56.6028" gradientUnits="userSpaceOnUse">
<stop stop-color="#7A8A99"/>
<stop offset="1" stop-color="#455C73"/>
</linearGradient>
<linearGradient id="paint6_linear_4741_3536" x1="22.7998" y1="45" x2="62.5666" y2="56.6028" gradientUnits="userSpaceOnUse">
<stop stop-color="#7A8A99"/>
<stop offset="1" stop-color="#455C73"/>
</linearGradient>
<linearGradient id="paint7_linear_4741_3536" x1="-nan" y1="-nan" x2="-nan" y2="-nan" gradientUnits="userSpaceOnUse">
<stop stop-color="#A7B3BE" stop-opacity="0.4"/>
<stop offset="1" stop-color="#A7B3BE" stop-opacity="0.3"/>
</linearGradient>
<linearGradient id="paint8_linear_4741_3536" x1="-nan" y1="-nan" x2="-nan" y2="-nan" gradientUnits="userSpaceOnUse">
<stop stop-color="#414D58" stop-opacity="0"/>
<stop offset="1" stop-color="#414D58"/>
</linearGradient>
<linearGradient id="paint9_linear_4741_3536" x1="96.116" y1="50.4778" x2="97.9898" y2="50.3932" gradientUnits="userSpaceOnUse">
<stop stop-color="#A7B3BE" stop-opacity="0.4"/>
<stop offset="1" stop-color="#A7B3BE" stop-opacity="0.3"/>
</linearGradient>
<linearGradient id="paint10_linear_4741_3536" x1="83.9996" y1="20.4004" x2="83.9996" y2="44.4004" gradientUnits="userSpaceOnUse">
<stop stop-color="#414D58" stop-opacity="0"/>
<stop offset="1" stop-color="#414D58"/>
</linearGradient>
<linearGradient id="paint11_linear_4741_3536" x1="23.8836" y1="50.4778" x2="22.0092" y2="50.3932" gradientUnits="userSpaceOnUse">
<stop stop-color="#A7B3BE" stop-opacity="0.4"/>
<stop offset="1" stop-color="#A7B3BE" stop-opacity="0.3"/>
</linearGradient>
<linearGradient id="paint12_linear_4741_3536" x1="36" y1="20.4004" x2="36" y2="44.4004" gradientUnits="userSpaceOnUse">
<stop stop-color="#414D58" stop-opacity="0"/>
<stop offset="1" stop-color="#414D58"/>
</linearGradient>
<linearGradient id="paint13_linear_4741_3536" x1="33.6353" y1="25.0123" x2="35.9501" y2="45.1693" gradientUnits="userSpaceOnUse">
<stop stop-color="#4C9AFF"/>
<stop offset="1" stop-color="#0052CC"/>
</linearGradient>
<linearGradient id="paint14_linear_4741_3536" x1="71.7531" y1="0.918095" x2="75.2247" y2="31.1533" gradientUnits="userSpaceOnUse">
<stop stop-color="#4C9AFF"/>
<stop offset="1" stop-color="#0052CC"/>
</linearGradient>
<linearGradient id="paint15_linear_4741_3536" x1="41.7765" y1="7.77478" x2="57.6663" y2="20.3916" gradientUnits="userSpaceOnUse">
<stop stop-color="#4C9AFF"/>
<stop offset="1" stop-color="#0052CC"/>
</linearGradient>
<linearGradient id="paint16_linear_4741_3536" x1="80.1767" y1="27.5746" x2="96.0665" y2="40.1914" gradientUnits="userSpaceOnUse">
<stop stop-color="#4C9AFF"/>
<stop offset="1" stop-color="#0052CC"/>
</linearGradient>
</defs>
</svg>
