<svg width="25" height="24" viewBox="0 0 25 24" fill="none" xmlns="http://www.w3.org/2000/svg">
<g clip-path="url(#clip0_3993_2083)">
<mask id="mask0_3993_2083" style="mask-type:luminance" maskUnits="userSpaceOnUse" x="0" y="0" width="25" height="24">
<path d="M12.5 24C19.1274 24 24.5 18.6274 24.5 12C24.5 5.37258 19.1274 0 12.5 0C5.87258 0 0.5 5.37258 0.5 12C0.5 18.6274 5.87258 24 12.5 24Z" fill="white"/>
</mask>
<g mask="url(#mask0_3993_2083)">
<path d="M0.5 6.78276L12.6312 1.8562L24.5 6.78276V17.2171L12.5469 23.1093L0.5 17.2171V6.78276Z" fill="#EEEEEE"/>
<path d="M0.5 0V6.78281H5.45V5.74219H7.025V6.78281H8.58594V5.74219H10.1609V6.78281H11.7219V5.74219H13.2969V6.78281H14.8438V5.74219H16.4188V6.78281H17.975V5.74219H19.55V6.78281H24.5V0H0.5Z" fill="#6DA544"/>
<path d="M0.5 17.2173V24.0001H24.5V17.2173H19.55V18.2673H17.975V17.2173H16.4188V18.2673H14.8438V17.2173H13.2969V18.2673H11.7219V17.2173H10.1609V18.2673H8.58594V17.2173H7.025V18.2673H5.45V17.2173H0.5ZM16.3953 8.87354H14.8297C14.8391 9.04697 14.8484 9.22041 14.8484 9.39385C14.8484 10.5563 14.5578 11.6813 14.0516 12.4876C13.8969 12.7313 13.6297 13.0782 13.2828 13.3126V8.87354H11.7172V13.3173C11.3656 13.0829 11.1078 12.736 10.9484 12.4876C10.4422 11.6907 10.1516 10.5657 10.1516 9.39854C10.1516 9.2251 10.1609 9.05166 10.1703 8.88291H8.60938C8.59815 9.05457 8.59189 9.22651 8.59063 9.39854C8.59063 12.6188 10.3109 15.1407 12.5047 15.1407C14.6984 15.1407 16.4188 12.6188 16.4188 9.39854C16.4188 9.2251 16.4141 9.05166 16.4 8.88291L16.3953 8.87354Z" fill="#D80027"/>
</g>
</g>
<defs>
<clipPath id="clip0_3993_2083">
<rect width="24" height="24" fill="white" transform="translate(0.5)"/>
</clipPath>
</defs>
</svg>
